<svg width="1460" height="732" viewBox="0 0 1460 732" fill="none" xmlns="http://www.w3.org/2000/svg">
<path d="M0 731.5V0H1459.5V731.5H0Z" fill="#265952"/>
<path d="M25 119.5C30.8333 95 42.2 44.8 41 40H238.5L349.5 21L549.5 30L645.5 21L853 30L1270.5 40L1427.5 71V250L1436 475V667.5C1358.17 677.167 1200.7 697 1193.5 699C1186.3 701 825.167 707.833 645.5 711L25 651.5V440V250V119.5Z" fill="#B79E52"/>
<path d="M178 577L39 631.5L215 657.5L432 680.5H596L783 688L990.5 680.5L1206 667L1410.5 646.5L1283.5 602.5L1142 609L1041 545H1002.5L990.5 534L462.5 523H280L178 534V577Z" fill="#949E9B" stroke="black" stroke-width="3"/>
<path d="M786 575H840.5H899L957 580L999.5 587L1024 602L1030 616.5L999.5 629L947.5 636H872.5H800L735.5 629L685 616.5L682 602L695 592C707.5 589.333 733.1 583.8 735.5 583C738.5 582 782.5 575 786 575Z" fill="#9FA5A2"/>
<path d="M205.5 143L47.5 83L252.5 46L504 41.5L846.5 46L1137.5 62L1394 83L1277.5 120L1199.5 116L1073.5 172H1003L981.5 183H683H326.5L205.5 143Z" fill="#C6CAC4" stroke="black" stroke-width="3"/>
<path d="M707.5 112.5C698.667 115.667 680.6 122.4 679 124L685 141L707.5 150L739.5 154.5L772.5 159.5L812.5 164H862.5L921 159.5H963.5L1008 150L1027.5 141V124L1008 115.5L963.5 107L921 105L867 102H817L763 105L707.5 112.5Z" fill="#D2D5D0"/>
<path fill-rule="evenodd" clip-rule="evenodd" d="M48 83L37 358L42.5 631L172.5 584L192.5 198L259 214L243 556.5L313 527L487 537H719L994 527L985 184.5H588H327L48 83ZM1006 172V537H1076.5L1413 645.5L1396 83L1129.5 172L1082.5 171L1006 172Z" fill="#CCC29F"/>
<path d="M985 184.5L994 527L1006 537V172L985 184.5Z" fill="#BAB298"/>
<path d="M313 527L243 556.5L259 214L192.5 198L172.5 584L42.5 631L37 358L48 83L327 184.5M313 527L327 184.5M313 527L487 537H719L994 527M327 184.5H588H985M985 184.5L994 527M985 184.5L1006 172M994 527L1006 537M1006 172V537M1006 172L1082.5 171M1006 537H1076.5M1076.5 537L1082.5 171M1076.5 537L1413 645.5L1396 83L1129.5 172L1082.5 171" stroke="black" stroke-width="3"/>
<g opacity="0.3">
<path d="M861.5 338L855 302.5H974.5V293L989.5 312V338H861.5Z" fill="#B0A789"/>
<path d="M1119.5 312L1109 293L1082.5 276V169L1202 117L1279 125L1299.5 117L1303 187.5L1293 190L1295.5 326L1149.5 330.5L1119.5 312Z" fill="#B0A789"/>
</g>
<path d="M344 211H368L560 278.5L591 272.5V391V458.5V506.5L599 524.5V536L296.5 532L278 488.5L271.5 429.5L351 398.5L354.5 235H344V211Z" fill="#B0A789"/>
<g opacity="0.3">
<path d="M43 327.5L34.5 336.5L38 492V632.5L110 643.5L269.5 664L352 673L364 658.5L449 650L524 640V632.5L449 643.5L364 653L278 643.5L140 632.5L282.5 618.5L146 625L173 618.5H123.5H81.5V611.5V584.5V554V527.5L89.5 516V486.5V455L81.5 418L66 408.5V396.5L76.5 380L78 364.5L76.5 349.5L70.5 340L62 333.5L53 327.5H43Z" fill="#726F6C"/>
<path d="M1049 590.5L1036.5 601.5L1047.5 621L1066 632.5L1091.5 637.5H1110.5L1129 629.5L1133 612.5L1094.5 590.5H1080H1072.5H1063.5H1049Z" fill="#726F6C"/>
<path d="M1214 624L1196.5 609H1242.5L1281 604.5L1315.5 615.5L1313.5 624L1295 629.5H1258.5L1214 624Z" fill="#726F6C"/>
</g>
<path d="M864.5 541L991.5 544V527.5L864.5 526V541Z" fill="#757874"/>
<path d="M856 533L864.5 541V526L856 519.5V533Z" fill="#757874"/>
<path d="M972.5 436H885.5V469H972.5V436Z" fill="#757874"/>
<path d="M885.5 504H972.5V486H885.5V504Z" fill="#D8DED4"/>
<path d="M885.5 486H972.5V479H885.5V486Z" fill="#757874"/>
<path d="M885.5 479H972.5V473.5H885.5V479Z" fill="#757874"/>
<path fill-rule="evenodd" clip-rule="evenodd" d="M856 399V519.5L864.5 526L991.5 527.5L994.5 526L993 408L979.5 399H856ZM885.5 436H972.5V469V473.5V479V486V504H885.5V486V479V473.5V469V436Z" fill="#F2F4F1"/>
<path d="M885.5 473.5H972.5V469H885.5V473.5Z" fill="#757874"/>
<path d="M864.5 541L856 533V519.5M864.5 541L991.5 544V527.5M864.5 541V526M991.5 527.5L864.5 526M991.5 527.5L994.5 526L993 408M864.5 526L856 519.5M864.5 526V408M856 519.5V399M856 399L864.5 408M856 399H979.5L993 408M864.5 408H993M885.5 436H972.5M885.5 436V469M885.5 436H879V424H979.5V436H972.5M972.5 436V469M885.5 486V504H972.5V486M885.5 486H972.5M885.5 486V479M972.5 486V479M885.5 479H972.5M885.5 479V473.5M972.5 479V473.5M972.5 473.5H885.5M972.5 473.5V469M885.5 473.5V469M885.5 469H972.5" stroke="black" stroke-width="3"/>
<path d="M894 415.105L896.4 413H900L902 415.105V418.474L900 421H896.8L894 418.895V415.105Z" stroke="black" stroke-width="3"/>
<path d="M906 415.105L908.4 413H912L914 415.105V418.474L912 421H908.8L906 418.895V415.105Z" stroke="black" stroke-width="3"/>
<path d="M919 415.105L921.4 413H925L927 415.105V418.474L925 421H921.8L919 418.895V415.105Z" stroke="black" stroke-width="3"/>
<path d="M931 415.105L933.4 413H937L939 415.105V418.474L937 421H933.8L931 418.895V415.105Z" stroke="black" stroke-width="3"/>
<path d="M944 415.105L946.4 413H950L952 415.105V418.474L950 421H946.8L944 418.895V415.105Z" stroke="black" stroke-width="3"/>
<path d="M956 415.105L958.4 413H962L964 415.105V418.474L962 421H958.8L956 418.895V415.105Z" stroke="black" stroke-width="3"/>
<path d="M937.5 404H969M876.5 404H920.5" stroke="black" stroke-width="3"/>
<path d="M854.5 408H858.5V400.5H738.5V408H796.5H854.5Z" fill="#C4C7C0"/>
<path d="M738.5 400.5H858.5L849.5 395H734L738.5 400.5Z" fill="#C4C7C0"/>
<path d="M738.5 408V400.5L734 395V402L738.5 408Z" fill="#C4C7C0"/>
<path d="M734 524.5L738.5 529V408L734 402V524.5Z" fill="#B39C59"/>
<path fill-rule="evenodd" clip-rule="evenodd" d="M738.5 408V529V544L852 542V527.5L854.5 408H796.5H738.5Z" fill="#E5C472"/>
<path d="M734 524.5V538L738.5 544V529L734 524.5Z" fill="#B39C59"/>
<path d="M734 395L738.5 400.5M734 395H849.5L858.5 400.5M734 395V402M734 524.5V538L738.5 544M734 524.5L738.5 529M734 524.5V402M738.5 544L852 542V527.5M738.5 544V529M852 527.5L854.5 408M852 527.5L795.25 528.25M738.5 529V408M738.5 529L795.25 528.25M738.5 408V400.5M738.5 408H796.5M738.5 408L734 402M854.5 408H858.5V400.5M854.5 408H796.5M858.5 400.5H738.5M796.5 408L795.25 528.25" stroke="black" stroke-width="3"/>
<path opacity="0.5" d="M853 413.5H740V409L853 409.5V413.5Z" fill="#B39C59"/>
<path d="M850.5 534L740 534.5V530.5L850.5 529.5V534Z" fill="#B39C59"/>
<path fill-rule="evenodd" clip-rule="evenodd" d="M367 209.5V225.5H371.861L370 281H389.5L404.5 278.5L426.5 283.5H446L462 285L482.5 281L506 283.5L527 287L544.5 285H569V205H563L560.5 209.5V221V238L558 221V205H367V209.5ZM382.5 219L387 205.5H390.5L386 219L389.5 226.5L388 251V233L382.5 219Z" fill="#CEA664"/>
<path d="M569 205L573 203.5H578V198H365L363.899 206L367 205H558H563H569Z" fill="#CEA664"/>
<path d="M544.5 285V422.5H569V285H544.5Z" fill="#F2F4F1"/>
<path d="M333 425.5V451H578.5V430.5L333 425.5Z" fill="#F2F4F1"/>
<path d="M367 422.5L333 425.5L578.5 430.5V451L584.5 447.5V422.5H569H544.5H367Z" fill="#F2F4F1"/>
<path fill-rule="evenodd" clip-rule="evenodd" d="M544.5 422.5H367L370 281H389.5L404.5 278.5L426.5 283.5H446L462 285L482.5 281L506 283.5L527 287L544.5 285V422.5ZM458 309.5L462 307.5L460.5 311L459.5 314.5L458.5 317.5L459.5 326L456 324L454.5 317.5L456 313L458 309.5Z" fill="#8FA5BA"/>
<path d="M367 225.5H365.5V227H367V225.5ZM371.861 225.5L373.36 225.55L373.412 224H371.861V225.5ZM333 425.5L332.868 424.006L331.5 424.127V425.5H333ZM333 451H331.5V452.5H333V451ZM578.5 451V452.5H578.906L579.256 452.296L578.5 451ZM584.5 447.5L585.256 448.796L586 448.362V447.5H584.5ZM584.5 422.5H586V421H584.5V422.5ZM544.5 285V283.5H544.415L544.33 283.51L544.5 285ZM573 203.5V202H572.728L572.473 202.096L573 203.5ZM578 203.5V205H579.5V203.5H578ZM578 198H579.5V196.5H578V198ZM363.899 206L362.413 205.795L362.087 208.16L364.359 207.428L363.899 206ZM367 205V203.5H366.764L366.54 203.572L367 205ZM370 281L368.501 280.95L368.501 280.959L368.5 280.968L370 281ZM389.5 281V282.5H389.624L389.747 282.48L389.5 281ZM404.5 278.5L404.832 277.037L404.545 276.972L404.253 277.02L404.5 278.5ZM426.5 283.5L426.168 284.963L426.332 285H426.5V283.5ZM446 283.5L446.14 282.007L446.07 282H446V283.5ZM482.5 281L482.659 279.508L482.434 279.485L482.213 279.528L482.5 281ZM506 283.5L506.247 282.02L506.203 282.013L506.159 282.008L506 283.5ZM527 287L526.753 288.48L526.961 288.514L527.17 288.49L527 287ZM387 205.5V204H385.919L385.577 205.026L387 205.5ZM382.5 219L381.077 218.526L380.905 219.042L381.104 219.548L382.5 219ZM388 233H389.5V232.716L389.396 232.452L388 233ZM388 251H386.5C386.5 251.811 387.144 252.475 387.954 252.499C388.764 252.524 389.448 251.901 389.497 251.092L388 251ZM389.5 226.5L390.997 226.592L391.02 226.211L390.859 225.866L389.5 226.5ZM386 219L384.577 218.526L384.388 219.093L384.641 219.634L386 219ZM390.5 205.5L391.923 205.974L392.581 204H390.5V205.5ZM558 221H556.5V221.11L556.516 221.218L558 221ZM560.5 238L559.016 238.218C559.13 238.996 559.826 239.553 560.609 239.496C561.393 239.439 562 238.786 562 238H560.5ZM560.5 209.5L559.189 208.772L559 209.111V209.5H560.5ZM458 309.5L457.329 308.158L456.923 308.361L456.698 308.756L458 309.5ZM454.5 317.5L453.077 317.026L452.944 317.426L453.038 317.837L454.5 317.5ZM459.5 326L458.756 327.302L458.913 327.392L459.088 327.442L459.5 326ZM466.5 324.5L467.372 325.721L467.713 325.477L467.879 325.091L466.5 324.5ZM466 309.5L467.404 308.973L467.198 308.422L466.671 308.158L466 309.5ZM456 313L454.698 312.256L454.624 312.385L454.577 312.526L456 313ZM456 324L454.538 324.337L454.686 324.977L455.256 325.302L456 324ZM463 327L462.588 328.442L463.283 328.641L463.872 328.221L463 327ZM468.5 317.5L469.985 317.712L470.026 317.421L469.955 317.136L468.5 317.5ZM460.5 311L459.121 310.409L459.084 310.497L459.058 310.588L460.5 311ZM459.5 314.5L460.923 314.974L460.933 314.943L460.942 314.912L459.5 314.5ZM458.5 317.5L457.077 317.026L456.971 317.343L457.01 317.675L458.5 317.5ZM468 321L469.379 321.591L469.457 321.409L469.485 321.212L468 321ZM467.5 313.5L468.955 313.136L468.934 313.053L468.904 312.973L467.5 313.5ZM365.5 209.5V225.5H368.5V209.5H365.5ZM367 227H371.861V224H367V227ZM366.868 421.006L332.868 424.006L333.132 426.994L367.132 423.994L366.868 421.006ZM331.5 425.5V451H334.5V425.5H331.5ZM333 452.5H578.5V449.5H333V452.5ZM580 451V430.5H577V451H580ZM578.531 429L333.031 424L332.969 427L578.469 432L578.531 429ZM579.256 452.296L585.256 448.796L583.744 446.204L577.744 449.704L579.256 452.296ZM586 447.5V422.5H583V447.5H586ZM544.5 421H367V424H544.5V421ZM546 422.5V285H543V422.5H546ZM544.5 286.5H569V283.5H544.5V286.5ZM584.5 421H569V424H584.5V421ZM569 421H544.5V424H569V421ZM567.5 285V422.5H570.5V285H567.5ZM570.5 285V205H567.5V285H570.5ZM569.527 206.404L573.527 204.904L572.473 202.096L568.473 203.596L569.527 206.404ZM573 205H578V202H573V205ZM579.5 203.5V198H576.5V203.5H579.5ZM578 196.5H365V199.5H578V196.5ZM365 196.5H361V199.5H365V196.5ZM363.514 197.795L362.413 205.795L365.385 206.205L366.486 198.205L363.514 197.795ZM364.359 207.428L367.46 206.428L366.54 203.572L363.439 204.572L364.359 207.428ZM365.5 205V209.5H368.5V205H365.5ZM370.362 225.45L368.501 280.95L371.499 281.05L373.36 225.55L370.362 225.45ZM368.5 280.968L365.5 422.468L368.5 422.532L371.5 281.032L368.5 280.968ZM370 282.5H389.5V279.5H370V282.5ZM389.747 282.48L404.747 279.98L404.253 277.02L389.253 279.52L389.747 282.48ZM404.168 279.963L426.168 284.963L426.832 282.037L404.832 277.037L404.168 279.963ZM426.5 285H446V282H426.5V285ZM445.86 284.993L461.86 286.493L462.14 283.507L446.14 282.007L445.86 284.993ZM462.287 286.472L482.787 282.472L482.213 279.528L461.713 283.528L462.287 286.472ZM482.341 282.492L505.841 284.992L506.159 282.008L482.659 279.508L482.341 282.492ZM505.753 284.98L526.753 288.48L527.247 285.52L506.247 282.02L505.753 284.98ZM527.17 288.49L544.67 286.49L544.33 283.51L526.83 285.51L527.17 288.49ZM385.577 205.026L381.077 218.526L383.923 219.474L388.423 205.974L385.577 205.026ZM381.104 219.548L386.604 233.548L389.396 232.452L383.896 218.452L381.104 219.548ZM386.5 233V251H389.5V233H386.5ZM389.497 251.092L390.997 226.592L388.003 226.408L386.503 250.908L389.497 251.092ZM390.859 225.866L387.359 218.366L384.641 219.634L388.141 227.134L390.859 225.866ZM387.423 219.474L391.923 205.974L389.077 205.026L384.577 218.526L387.423 219.474ZM390.5 204H387V207H390.5V204ZM367 206.5H558V203.5H367V206.5ZM556.5 205V221H559.5V205H556.5ZM556.516 221.218L559.016 238.218L561.984 237.782L559.484 220.782L556.516 221.218ZM562 238V221H559V238H562ZM562 221V209.5H559V221H562ZM558 206.5H563V203.5H558V206.5ZM563 206.5H569V203.5H563V206.5ZM561.811 210.228L564.311 205.728L561.689 204.272L559.189 208.772L561.811 210.228ZM579.7 431.4L585.7 423.4L583.3 421.6L577.3 429.6L579.7 431.4ZM460.5 285V307.5H463.5V285H460.5ZM461.329 306.158L457.329 308.158L458.671 310.842L462.671 308.842L461.329 306.158ZM466.671 308.158L462.671 306.158L461.329 308.842L465.329 310.842L466.671 308.158ZM456.698 308.756L454.698 312.256L457.302 313.744L459.302 310.244L456.698 308.756ZM454.577 312.526L453.077 317.026L455.923 317.974L457.423 313.474L454.577 312.526ZM453.038 317.837L454.538 324.337L457.462 323.663L455.962 317.163L453.038 317.837ZM455.256 325.302L458.756 327.302L460.244 324.698L456.744 322.698L455.256 325.302ZM459.088 327.442L462.588 328.442L463.412 325.558L459.912 324.558L459.088 327.442ZM463.872 328.221L467.372 325.721L465.628 323.279L462.128 325.779L463.872 328.221ZM460.621 306.909L459.121 310.409L461.879 311.591L463.379 308.091L460.621 306.909ZM459.058 310.588L458.058 314.088L460.942 314.912L461.942 311.412L459.058 310.588ZM458.077 314.026L457.077 317.026L459.923 317.974L460.923 314.974L458.077 314.026ZM457.01 317.675L458.01 326.175L460.99 325.825L459.99 317.325L457.01 317.675ZM467.879 325.091L469.379 321.591L466.621 320.409L465.121 323.909L467.879 325.091ZM469.485 321.212L469.985 317.712L467.015 317.288L466.515 320.788L469.485 321.212ZM469.955 317.136L468.955 313.136L466.045 313.864L467.045 317.864L469.955 317.136ZM468.904 312.973L467.404 308.973L464.596 310.027L466.096 314.027L468.904 312.973Z" fill="black"/>
<path d="M421.975 419.589L543.51 421.516L544.021 306.5L524.991 304.246L508.992 304.453L493.642 316.153L489.856 332.703L495.517 345.131L480.467 341.325L464.501 344.032L456.631 354.135L453.857 371.672L456.974 380.633L440.43 377.346L428.476 381.001L426.138 393.533L432.228 400.455L418.768 403.629L415.352 410.174L421.975 419.589Z" fill="#8FB143" stroke="black" stroke-width="3"/>
<path fill-rule="evenodd" clip-rule="evenodd" d="M944 171H881.5V246L860.5 286.5V298.5H919.5H969H973.5V285L944 246V171Z" fill="#C4C7C0"/>
<path d="M881.5 171L876 179.5L877 247.5L855 288V301.5H969.5L969 298.5H919.5H860.5V286.5L881.5 246V171Z" fill="#91948F"/>
<path d="M881.5 171L876 179.5L877 247.5L855 288V301.5H969.5M881.5 171H944V246L973.5 285V298.5M881.5 171V246L860.5 286.5V298.5H919.5H969M973.5 298.5H969M973.5 298.5L969.5 301.5M969.5 301.5L969 298.5" stroke="black" stroke-width="3"/>
<path d="M882.5 246V172H943V246H882.5Z" fill="#B4B8B2"/>
<path d="M861.5 297.5V287.5H972.5V297.5H861.5Z" fill="#B4B8B2"/>
<path d="M814.5 152.5C808.333 146.333 799 135 799 135L803 132L822 129L842 127H866.5H900L923 132L927 135L905 154L858.5 155.5L814.5 152.5Z" fill="#FFFDF7" stroke="black" stroke-width="3"/>
<path d="M806 141L824.093 138.222L848.053 136H871.035H894.996L905.753 138.222L912.11 139.333L917 141" stroke="#FEE6B6" stroke-width="3"/>
<path d="M802.5 135.5L823.5 131.5L848 129.5H871.5H896L908.5 131.5L918.5 133L924 135.5" stroke="#FEE6B6" stroke-width="3"/>
<path d="M1020 231L1029.5 221.5L1041.5 218L1056 220L1065.5 228.5L1067.5 243.5L1060 260L1043.5 264L1029.5 260L1020 249V231Z" fill="#B0A789"/>
<path d="M1015.5 226L1025 216.5L1037 213L1051.5 215L1061 223.5L1063 238.5L1055.5 255L1039 259L1025 255L1015.5 244V226Z" fill="#E2E4E1" stroke="black" stroke-width="3"/>
<path d="M1204 115V268H1277.5L1275 119.5L1204 115Z" fill="#B39C59"/>
<path d="M1191.5 119.5V271L1204 268V115L1191.5 119.5Z" fill="#B39C59"/>
<path fill-rule="evenodd" clip-rule="evenodd" d="M1076 166.5V290.5L1132.5 281.203L1191.5 271V119.5L1128 143.901L1076 166.5Z" fill="#E5C472"/>
<path d="M1132.5 281.203L1076 290.5L1116.5 292.5L1277.5 268H1204L1191.5 271L1132.5 281.203Z" fill="#B39C59"/>
<path d="M1076 290.5V166.5L1128 143.901M1076 290.5L1132.5 281.203M1076 290.5L1116.5 292.5L1277.5 268M1191.5 271V119.5M1191.5 271L1132.5 281.203M1191.5 271L1204 268M1191.5 119.5L1128 143.901M1191.5 119.5L1204 115M1128 143.901L1132.5 281.203M1204 115V268M1204 115L1275 119.5L1277.5 268M1204 268H1277.5" stroke="black" stroke-width="3"/>
<path d="M1024.5 537.5L1130 595.5V469.5L1024.5 446V537.5Z" fill="#B39C59"/>
<path d="M1136.5 612L1280.5 604.5L1278 469.5H1136.5V612Z" fill="#B39C59"/>
<path d="M1131.5 462H1278L1131.5 426L1020 429V439L1131.5 462Z" fill="#757874"/>
<path fill-rule="evenodd" clip-rule="evenodd" d="M1136.5 612H1130L1024.5 551V537.5L1130 595.5V469.5H1136.5V612Z" fill="#B39C59"/>
<path d="M1136.5 469.5H1278L1280.5 466L1278 462H1131.5L1020 439L1024.5 446L1130 469.5H1136.5Z" fill="#B4B8B2"/>
<path d="M1136.5 612L1280.5 604.5L1278 469.5M1136.5 612V469.5M1136.5 612H1130L1024.5 551V537.5M1278 469.5H1136.5M1278 469.5L1280.5 466L1278 462M1136.5 469.5H1130M1024.5 537.5L1130 595.5V469.5M1024.5 537.5V446M1130 469.5L1024.5 446M1024.5 446L1020 439M1278 462H1131.5L1020 439M1278 462L1131.5 426L1020 429V439" stroke="black" stroke-width="3"/>
<path d="M148.5 530.5L144.5 390L134.5 391.5L140.5 535.5L148.5 530.5Z" fill="#CFBC8B"/>
<path d="M140.5 544L142.5 636L148.5 633L146.5 544.216L140.5 544Z" fill="#CFBC8B"/>
<path d="M179 545.383L181.5 617.5L186.5 614.5L184 545.563L179 545.383Z" fill="#CFBC8B"/>
<path fill-rule="evenodd" clip-rule="evenodd" d="M126 488L117 390L134.5 391.5L140.5 535.5L148.5 530.5L177 516L266.5 519.5L268 619.5H261V532L238 544.475L231.5 548L233 643H224C224 643 223.333 578.5 224 547L184 545.563L179 545.383L181.5 617.5H173L170.5 545.078L146.5 544.216L140.5 544L142.5 636H132.5L130.5 584.5L126 488Z" fill="#B39C59"/>
<path d="M231.5 548L233 643L238 639V544.475L231.5 548Z" fill="#CFBC8B"/>
<path d="M142.5 636H132.5L130.5 584.5L126 488L117 390L134.5 391.5M142.5 636L140.5 544L146.5 544.216M142.5 636L148.5 633L146.5 544.216M233 643H224C224 643 223.333 578.5 224 547L184 545.563M233 643L231.5 548L238 544.475M233 643L238 639V544.475M266.5 519.5L268 619.5H261V532L238 544.475M266.5 519.5L177 516L148.5 530.5M266.5 519.5L228 538L140.5 535.5M148.5 530.5L144.5 390L134.5 391.5M148.5 530.5L140.5 535.5M134.5 391.5L140.5 535.5M146.5 544.216L170.5 545.078M170.5 545.078L173 617.5H181.5M170.5 545.078L179 545.383M181.5 617.5L179 545.383M181.5 617.5L186.5 614.5L184 545.563M179 545.383L184 545.563" stroke="black" stroke-width="3"/>
<path fill-rule="evenodd" clip-rule="evenodd" d="M230 407.5C230 409 224 444.5 223 445.5V466.5L227.5 472.5L267.5 475.5L320.5 417L303.5 384.133L298 373.5L285.5 401.937L244 370.5V374.757L237.5 370.5C235 382.333 230 406.3 230 407.5Z" fill="#F4F1F1"/>
<path d="M320.5 417L307.5 373.5L303.5 384.133L320.5 417Z" fill="#878682"/>
<path d="M320.5 417H308.5L285.5 401.937M320.5 417L307.5 373.5L303.5 384.133M320.5 417L267.5 475.5L227.5 472.5L223 466.5V445.5C224 444.5 230 409 230 407.5C230 406.3 235 382.333 237.5 370.5L244 374.757M320.5 417L303.5 384.133M285.5 401.937L298 373.5L303.5 384.133M285.5 401.937L244 374.757M285.5 401.937L244 370.5V374.757" stroke="#020202" stroke-width="3"/>
<path d="M253.5 441L237 464.5L265 468.5L279 453L253.5 441Z" fill="#9D9393"/>
<path d="M240 392C239.6 392.8 235.833 406 234 412.5L250 419L260 403.5L240 392Z" fill="#9D9393"/>
<path d="M240 386C240.8 385.6 242.333 383.5 243 382.5L247.5 390L250.5 389.5L255 395C255.167 394.5 257.3 393 258.5 393C259.7 393 261.167 398.5 262.5 400.5L270.5 401L271 405.5H277L280.5 411L285.5 409.5M295.5 417.5L301 419L300.5 423L305 422L306 425.5M262.5 407L268 409.5L266.5 413H272L274.5 416.5M278 419L283 420.5L284.5 424.5M290 426L294 427V430L298.5 429.5L299 433M257.5 416.5L265 419V422L269 424.5L272 423L273 427L277 429.5M283 433.5L285.5 432L288.5 436L291.5 436.5L292.5 440M250.5 423L253.5 422L256.5 428.5L260 427V431L264.429 433H269L270.5 437M276.5 440.5L280.5 439L281.5 442.5L284 445.5L287 445M231 427L236 425.5V429.5L240.5 430L243 434.5H249L250 437M240 392C239.6 392.8 235.833 406 234 412.5L250 419L260 403.5L240 392ZM253.5 441L237 464.5L265 468.5L279 453L253.5 441Z" stroke="#020202" stroke-width="3"/>
<path d="M218 336.564L213.5 334.5L207 335.064L205.5 340.064L208.5 339.5L212 338.5L218 340.064V336.564Z" fill="#2C231D"/>
<path fill-rule="evenodd" clip-rule="evenodd" d="M226.5 310.5C226.5 310.5 224.167 319.564 224 322.564L225.5 328L226.5 333.5L223 335.064L218 336.564L213.5 334.5L207 335.064L205.5 340.064L208.5 339.5L212 338.5L218 340.064V342.064L214.5 347.064V352.564L208.5 355.564L202 350.564L198 352.564L194.5 354.564L184.5 350.564C182.5 349.231 178.3 346.464 177.5 346.064C176.7 345.664 169.5 341.898 166 340.064L163 335.064V331.064L166 329L170.5 326L172 321L172.5 316.064L174.5 315.064L177 317L178.5 311.064L180 305.564L184.5 301.564L189.5 304.564L192.5 309.564L193.5 314.5L194.5 308.5L196.5 303.064C197 302.231 198.1 300.664 198.5 301.064C198.9 301.464 204.333 300.564 206.5 301.064L215 303L222.5 307L226.5 310.5ZM206.5 310.5L212.5 313.064L212 315.064L209.5 315.5L209 317.5L211 318.5L206.5 319L204.5 317V313.5L206.5 310.5Z" fill="#E4AC81"/>
<path d="M212.5 313.064L206.5 310.5L204.5 313.5V317L206.5 319L211 318.5L209 317.5L209.5 315.5L212 315.064L212.5 313.064Z" fill="white"/>
<path d="M221.5 447.5V465.5L228 467L234.5 464.5L232 459L236 455L233.5 448.5L232.5 443L224.5 444.5L221.5 447.5Z" fill="#E4AC81"/>
<path d="M218 336.564L223 335.064L226.5 333.5L225.5 328L224 322.564C224.167 319.564 226.5 310.5 226.5 310.5L222.5 307L215 303L206.5 301.064C204.333 300.564 198.9 301.464 198.5 301.064C198.1 300.664 197 302.231 196.5 303.064L194.5 308.5L193.5 314.5L192.5 309.564L189.5 304.564L184.5 301.564L180 305.564L178.5 311.064L177 317M218 336.564L213.5 334.5M218 336.564V340.064M213.5 334.5L207 335.064L205.5 340.064L208.5 339.5L212 338.5L218 340.064M213.5 334.5L211.5 332.5L212 331L213.5 330.5H215.5M218 340.064V342.064L214.5 347.064V352.564L208.5 355.564L202 350.564M202 350.564L198 352.564L194.5 354.564L184.5 350.564C182.5 349.231 178.3 346.464 177.5 346.064C176.7 345.664 169.5 341.898 166 340.064L163 335.064V331.064L166 329L170.5 326L172 321L172.5 316.064L174.5 315.064L177 317M202 350.564L194.5 344.5L188.5 339.064L187 334M177 317L177.5 319C178 320.167 179.5 321.6 179.5 322C179.5 322.4 181.5 324.5 182.5 325.5L187 326M216.5 316.5L212.5 313.064M212.5 313.064L206.5 310.5M212.5 313.064L212 315.064M206.5 310.5L201 311.064L200.5 313.064M206.5 310.5L204.5 313.5V317L206.5 319L211 318.5M211 318.5L212 317V315.064M211 318.5L209 317.5L209.5 315.5L212 315.064M188.5 311.064L184.5 309L181 313.5L181.5 318.5L183.5 321L186.5 320.5M221.5 447.5V465.5L228 467L234.5 464.5L232 459L236 455L233.5 448.5L232.5 443L224.5 444.5L221.5 447.5Z" stroke="black" stroke-width="3" stroke-linecap="round" stroke-linejoin="round"/>
<path fill-rule="evenodd" clip-rule="evenodd" d="M290.299 631.552L285.122 639.769L283.803 648.039L287.883 655.801L308.715 658.409L320.5 660.471L337.048 659.22L349.526 656.013L349.09 646.399L335.621 643.628L322.707 637.222L316.108 632.751L311.136 637.064L299.844 636.54L290.299 631.552Z" fill="#634722"/>
<path d="M293.515 625.896L290.299 631.552L299.844 636.54L311.136 637.064L313.65 630.87L304.603 630.323L297.377 628.852L293.515 625.896Z" fill="#CFD1CE"/>
<path d="M290.299 631.552L293.515 625.896L297.377 628.852L304.603 630.323L313.65 630.87L311.136 637.064M290.299 631.552L285.122 639.769L283.803 648.039L287.883 655.801L308.715 658.409L320.5 660.471L337.048 659.22L349.526 656.013L349.09 646.399L335.621 643.628L322.707 637.222L316.108 632.751L311.136 637.064M290.299 631.552L299.844 636.54L311.136 637.064" stroke="black" stroke-width="3"/>
<path fill-rule="evenodd" clip-rule="evenodd" d="M335.197 637.957L335.935 647.64L339.803 655.068L347.704 658.872L365.989 648.555L376.683 643.189L389.228 632.325L397.338 622.315L391.26 614.854L378.792 620.654L364.603 623.203L356.639 623.543L355.216 629.969L345.835 636.276L335.197 637.957Z" fill="#634722"/>
<path d="M334.41 631.498L335.197 637.957L345.835 636.276L355.216 629.969L353.545 623.496L345.953 628.448L339.273 631.571L334.41 631.498Z" fill="#CFD1CE"/>
<path d="M335.197 637.957L334.41 631.498L339.273 631.571L345.953 628.448L353.545 623.496L355.216 629.969M335.197 637.957L335.935 647.64L339.803 655.068L347.704 658.872L365.989 648.555L376.683 643.189L389.228 632.325L397.338 622.315L391.26 614.854L378.792 620.654L364.603 623.203L356.639 623.543L355.216 629.969M335.197 637.957L345.835 636.276L355.216 629.969" stroke="black" stroke-width="3"/>
<path d="M153 517.5L148 500L179.5 492.5L208.5 487L235 489.5L280 502L315 515.5L332 556.5L348 603.5L354 622.5L341 631.5H328.5L320.523 618.5L318.5 631.5H309.5L291 626.5L289 595.5V562.5V537L258 539.5H219.5H183L162 533L153 517.5Z" fill="#455A66"/>
<path d="M289 537L258 539.5H219.5H183L162 533L153 517.5L148 500L179.5 492.5L208.5 487L235 489.5L280 502L315 515.5L332 556.5L348 603.5L354 622.5L341 631.5H328.5L320.523 618.5M289 537L295 547L301.5 576.5L315 609.5L320.523 618.5M289 537V562.5V595.5L291 626.5L309.5 631.5H318.5L320.523 618.5" stroke="black" stroke-width="3"/>
<path d="M190 498.5L208 497L226.5 499.5L243 502.5L257.5 505.889L269 522.5L262 530.389H219L182.5 525.5L175 509.5L190 498.5Z" fill="#506876"/>
<path d="M337 593L329 572.5L318.5 558.5L301.5 553.5C304.167 561.833 309 581.8 309 583C309 584.2 313.833 596.833 318.5 607L332.5 627L342.5 626L349.5 621L337 593Z" fill="#506876"/>
<path d="M142.5 342.5L162.5 332L168 341L178.5 347L189.5 352L195 355.5L203 375L210 397L214 415L216.5 426.5H225.5L220.036 443L221 447.5V469L225.5 475.5L224 488H208L195 489L176.5 493L156 498L147 500.5L143 495.5L139.5 486.5L134 474L129 464.5L117 458.5V443V424.5L120 393.5C122 385.833 126 370.1 126 368.5C126 366.5 132.5 353.5 134 352C135.2 350.8 140.167 345.167 142.5 342.5Z" fill="#8F906C"/>
<path d="M129 464.5L117 458.5V443V424.5L120 393.5C122 385.833 126 370.1 126 368.5C126 366.5 132.5 353.5 134 352C135.2 350.8 140.167 345.167 142.5 342.5L162.5 332L168 341L178.5 347L189.5 352L195 355.5L203 375L210 397L214 415L216.5 426.5M129 464.5L151 469L172.5 471.5L200 470L221 469M129 464.5L134 474L139.5 486.5L143 495.5M221 469V447.5M221 469L225.5 475.5M221 447.5L210 445.5L193.5 443L178.5 440L166.5 438.5L157 437L148.5 436M221 447.5L220.036 443M144 436H148.5M148.5 436L151 426.5L156 409.5L161 387V372L157.5 360.5M216.5 426.5H225.5L220.036 443M216.5 426.5L220.036 443M225.5 475.5L224 488H208L195 489L176.5 493L156 498L147 500.5L143 495.5M225.5 475.5L207 479L197 484M143 495.5L156 489L173 488.5" stroke="black" stroke-width="3"/>
<path d="M231.5 308.5L227 310.5L223 306.5L215 302.5L205.5 300L198 300.5L193.5 312.5L190 304.5L185 301.5L181.5 303.5L177.5 312L171.5 323.5L166 302.5L168.5 286L176.5 278L188 273.5H202.5L213 281L224.5 289L233 300L231.5 308.5Z" fill="#6A6056" stroke="black" stroke-width="3"/>
<path d="M248 490V650L254.5 645V490.092L248 490Z" fill="#CFBC8B"/>
<path d="M511.5 496.5V664.5L517 661.5V494L511.5 496.5Z" fill="#CFBC8B"/>
<path fill-rule="evenodd" clip-rule="evenodd" d="M499.5 496.5V664.5H511.5V496.5L517 494L525.847 489L527.847 630.5H535V483.5L539.5 480.5L541.5 478.5V470.5L293 465.203L283.5 465L226 481.5V490H236V650H248V490L254.5 490.092L283.5 490.5V618H293V490.454L499.5 496.5Z" fill="#B39C59"/>
<path d="M535 483.5V630.5L539.587 626L539.5 480.5L535 483.5Z" fill="#CFBC8B"/>
<path d="M499.5 496.5V664.5H511.5M499.5 496.5H511.5M499.5 496.5L293 490.454M511.5 496.5V664.5M511.5 496.5L517 494M511.5 496.5V486.405M511.5 664.5L517 661.5V494M517 494L525.847 489M541.5 470.5V478.5L539.5 480.5M541.5 470.5L293 465.203L283.5 465L226 481.5M541.5 470.5L511.5 486.405M226 481.5V490H236V650H248M226 481.5L511.5 486.405M248 650V490L254.5 490.092M248 650L254.5 645V490.092M525.847 489L527.847 630.5H535M525.847 489L535 483.5M535 630.5V483.5M535 630.5L539.587 626L539.5 480.5M535 483.5L539.5 480.5M283.5 490.5V618H293V490.454M283.5 490.5L293 490.454M283.5 490.5L254.5 490.092" stroke="black" stroke-width="3"/>
<path d="M262.5 482L246 476.5L281 465L524.5 471L531 476.5L533 549.5L521.5 482L472.5 484.5L446.5 533L398.5 603.5L376.5 614.5L287.5 549.5L262.5 482Z" fill="#69A659" stroke="black" stroke-width="3"/>
<path opacity="0.5" d="M260 474.5L269.5 479.5L293.5 546.5L375.5 604.5L392.5 598.5L470.5 479L494 478L524 479L533 534.5L528 478" stroke="#EEF163" stroke-width="3" stroke-linejoin="round"/>
<path d="M1135.85 438.982L1145.66 437.222L1154.34 436.325L1161.78 437.284L1169.03 439.731L1171.62 443.09L1171.05 447.553L1167.06 451.073L1161.29 452.849L1153.03 454.305L1146.46 454.466L1139.89 454.626L1133.57 452.803L1129.73 451.3L1126.77 446.885L1128.21 443.542L1135.85 438.982Z" fill="#DECDC6" stroke="#020202" stroke-width="3"/>
<path d="M1137 433L1146.5 430L1155 428H1162.5L1170 429.5L1173 432.5V437L1169.5 441L1164 443.5L1156 446L1149.5 447L1143 448L1136.5 447L1132.5 446L1129 442L1130 438.5L1137 433Z" fill="#DECDC6" stroke="#020202" stroke-width="3"/>
<path d="M1136 426L1145.5 423L1154 421H1161.5L1169 422.5L1172 425.5V430L1168.5 434L1163 436.5L1155 439L1148.5 440L1142 441L1135.5 440L1131.5 439L1128 435L1129 431.5L1136 426Z" fill="#DECDC6" stroke="#020202" stroke-width="3"/>
<path d="M1134 421L1143.5 418L1152 416H1159.5L1167 417.5L1170 420.5V425L1166.5 429L1161 431.5L1153 434L1146.5 435L1140 436L1133.5 435L1129.5 434L1126 430L1127 426.5L1134 421Z" fill="#DECDC6" stroke="#020202" stroke-width="3"/>
<path d="M1133 414L1142.5 411L1151 409H1158.5L1166 410.5L1169 413.5V418L1165.5 422L1160 424.5L1152 427L1145.5 428L1139 429L1132.5 428L1128.5 427L1125 423L1126 419.5L1133 414Z" fill="#DECDC6" stroke="#020202" stroke-width="3"/>
<path d="M1131.74 406.277L1141.54 404.497L1150.23 403.583L1157.67 404.528L1164.92 406.96L1167.52 410.314L1166.95 414.779L1162.98 418.306L1157.2 420.093L1148.95 421.566L1142.38 421.739L1135.8 421.913L1129.48 420.102L1125.64 418.606L1122.67 414.197L1124.1 410.851L1131.74 406.277Z" fill="#DECDC6" stroke="#020202" stroke-width="3"/>
<path d="M1129 400L1138.5 397L1147 395H1154.5L1162 396.5L1165 399.5V404L1161.5 408L1156 410.5L1148 413L1141.5 414L1135 415L1128.5 414L1124.5 413L1121 409L1122 405.5L1129 400Z" fill="#DECDC6" stroke="#020202" stroke-width="3"/>
<path d="M1130.77 392.938L1140.56 391.118L1149.24 390.169L1156.69 391.084L1163.95 393.487L1166.56 396.83L1166.01 401.297L1162.05 404.84L1156.29 406.651L1148.04 408.157L1141.47 408.357L1134.9 408.557L1128.57 406.773L1124.72 405.292L1121.73 400.896L1123.15 397.544L1130.77 392.938Z" fill="#DECDC6"/>
<path d="M1131.97 403.664L1128.68 401.749L1129.6 398.336L1132.76 397.213L1138.96 395.959L1144.54 395.637L1150.62 395.376L1155.15 395.428L1158.44 397.344L1158.19 399.329L1154.97 400.948M1140.56 391.118L1130.77 392.938L1123.15 397.544L1121.73 400.896L1124.72 405.292L1128.57 406.773L1134.9 408.557L1141.47 408.357L1148.04 408.157L1156.29 406.651L1162.05 404.84L1166.01 401.297L1166.56 396.83L1163.95 393.487L1156.69 391.084L1149.24 390.169L1140.56 391.118Z" stroke="#020202" stroke-width="3"/>
<path d="M1213.02 443.975L1201.68 443.084L1191.64 442.898L1183.04 444.31L1174.66 447.063L1171.66 450.309L1172.32 454.33L1176.92 457.245L1183.6 458.443L1193.14 459.17L1200.74 458.839L1208.34 458.508L1215.65 456.39L1220.09 454.743L1223.51 450.51L1221.85 447.571L1213.02 443.975Z" fill="#DECDC6" stroke="#020202" stroke-width="3"/>
<path d="M1215.02 436.975L1203.68 436.084L1193.64 435.898L1185.04 437.31L1176.66 440.063L1173.66 443.309L1174.32 447.33L1178.92 450.245L1185.6 451.443L1195.14 452.17L1202.74 451.839L1210.34 451.508L1217.65 449.39L1222.09 447.743L1225.51 443.51L1223.85 440.571L1215.02 436.975Z" fill="#DECDC6" stroke="#020202" stroke-width="3"/>
<path d="M1213.04 429.048L1201.68 429.13L1191.66 429.804L1183.21 431.948L1175.09 435.408L1172.38 438.899L1173.38 442.849L1178.22 445.359L1184.97 445.981L1194.54 445.889L1202.08 444.909L1209.63 443.929L1216.73 441.193L1221.01 439.172L1224.06 434.661L1222.15 431.875L1213.04 429.048Z" fill="#DECDC6" stroke="#020202" stroke-width="3"/>
<path d="M1214.18 424.088L1202.82 424.17L1192.79 424.844L1184.35 426.988L1176.23 430.448L1173.52 433.939L1174.52 437.888L1179.36 440.399L1186.11 441.021L1195.68 440.929L1203.22 439.949L1210.77 438.969L1217.87 436.233L1222.15 434.212L1225.2 429.701L1223.29 426.915L1214.18 424.088Z" fill="#DECDC6" stroke="#020202" stroke-width="3"/>
<path d="M1213.75 417.658L1202.38 417.74L1192.36 418.414L1183.91 420.558L1175.8 424.018L1173.09 427.509L1174.09 431.459L1178.92 433.969L1185.68 434.591L1195.24 434.499L1202.79 433.519L1210.33 432.539L1217.43 429.803L1221.72 427.782L1224.77 423.271L1222.86 420.485L1213.75 417.658Z" fill="#DECDC6" stroke="#020202" stroke-width="3"/>
<path d="M1214.67 411.82L1203.3 411.903L1193.28 412.577L1184.83 414.72L1176.72 418.181L1174.01 421.671L1175.01 425.621L1179.84 428.131L1186.59 428.753L1196.16 428.661L1203.71 427.681L1211.25 426.701L1218.35 423.965L1222.63 421.944L1225.68 417.433L1223.78 414.647L1214.67 411.82Z" fill="#DECDC6" stroke="#020202" stroke-width="3"/>
<path d="M1214.08 408.641L1202.78 407.31L1192.76 406.733L1184.11 407.81L1175.63 410.234L1172.5 413.361L1173.01 417.404L1177.49 420.496L1184.11 421.953L1193.62 423.051L1201.23 423.016L1208.83 422.982L1216.22 421.15L1220.72 419.677L1224.31 415.58L1222.76 412.579L1214.08 408.641Z" fill="#DECDC6" stroke="#020202" stroke-width="3"/>
<path d="M1257.5 440.597L1248.52 439.613L1240.66 439.408L1234.13 440.968L1227.96 444.008L1226.06 447.592L1227.12 452.032L1231.11 455.25L1236.49 456.573L1244.03 457.375L1249.93 457.01L1255.82 456.644L1261.23 454.306L1264.48 452.487L1266.58 447.813L1264.88 444.567L1257.5 440.597Z" fill="#DECDC6" stroke="#020202" stroke-width="3"/>
<path d="M1256.98 433.546L1248.3 431.073L1240.58 429.553L1233.89 429.998L1227.3 431.961L1224.82 435.176L1225.12 439.731L1228.52 443.572L1233.59 445.776L1240.9 447.832L1246.77 448.458L1252.64 449.085L1258.37 447.687L1261.87 446.437L1264.73 442.181L1263.6 438.697L1256.98 433.546Z" fill="#DECDC6" stroke="#020202" stroke-width="3"/>
<path d="M1257.4 426.401L1248.72 423.928L1241 422.408L1234.31 422.853L1227.72 424.817L1225.24 428.031L1225.55 432.586L1228.94 436.427L1234.01 438.631L1241.32 440.687L1247.19 441.313L1253.06 441.94L1258.79 440.542L1262.3 439.292L1265.15 435.036L1264.02 431.552L1257.4 426.401Z" fill="#DECDC6" stroke="#020202" stroke-width="3"/>
<path d="M1260.6 420.141L1251.72 418.483L1243.9 417.684L1237.27 418.746L1230.89 421.311L1228.72 424.741L1229.45 429.248L1233.18 432.759L1238.44 434.484L1245.91 435.854L1251.81 435.935L1257.71 436.016L1263.29 434.093L1266.66 432.525L1269.11 428.023L1267.66 424.659L1260.6 420.141Z" fill="#DECDC6" stroke="#020202" stroke-width="3"/>
<path d="M1259.27 414.076L1250.59 411.604L1242.87 410.084L1236.18 410.529L1229.59 412.492L1227.11 415.707L1227.41 420.262L1230.81 424.103L1235.88 426.307L1243.19 428.363L1249.06 428.989L1254.93 429.615L1260.66 428.217L1264.17 426.968L1267.02 422.711L1265.89 419.228L1259.27 414.076Z" fill="#DECDC6" stroke="#020202" stroke-width="3"/>
<path d="M1260.65 407.884L1251.97 405.412L1244.25 403.892L1237.56 404.337L1230.97 406.3L1228.49 409.515L1228.8 414.07L1232.19 417.911L1237.27 420.115L1244.57 422.171L1250.44 422.797L1256.31 423.424L1262.04 422.026L1265.55 420.776L1268.4 416.519L1267.27 413.036L1260.65 407.884Z" fill="#DECDC6" stroke="#020202" stroke-width="3"/>
<path d="M1260.54 400.494L1251.58 399.351L1243.72 399.007L1237.17 400.451L1230.95 403.382L1228.98 406.931L1229.97 411.389L1233.9 414.678L1239.25 416.095L1246.78 417.031L1252.68 416.77L1258.57 416.509L1264.03 414.266L1267.31 412.506L1269.49 407.869L1267.85 404.594L1260.54 400.494Z" fill="#DECDC6" stroke="#020202" stroke-width="3"/>
<path d="M1262.39 393.536L1253.71 391.063L1245.99 389.543L1239.3 389.988L1232.7 391.952L1230.23 395.166L1230.53 399.721L1233.92 403.562L1239 405.766L1246.31 407.822L1252.18 408.448L1258.04 409.075L1263.78 407.677L1267.28 406.427L1270.14 402.171L1269.01 398.687L1262.39 393.536Z" fill="#DECDC6"/>
<path d="M1260.87 404.312L1263.89 402.586L1263.21 399.073L1260.43 397.733L1254.94 396.065L1249.96 395.379L1244.54 394.723L1240.49 394.484L1237.47 396.21L1237.6 398.234L1240.41 400.081M1253.71 391.063L1262.39 393.536L1269.01 398.687L1270.14 402.171L1267.28 406.427L1263.78 407.677L1258.04 409.075L1252.18 408.448L1246.31 407.822L1239 405.766L1233.92 403.562L1230.53 399.721L1230.23 395.166L1232.7 391.952L1239.3 389.988L1245.99 389.543L1253.71 391.063Z" stroke="#020202" stroke-width="3"/>
</svg>
