<svg width="1469" height="722" viewBox="0 0 1469 722" fill="none" xmlns="http://www.w3.org/2000/svg">
<path d="M0 721.5V0H1468.5V721.5H0Z" fill="#265952"/>
<path d="M271.5 68C189.167 70.5 23 75.5 17 75.5L6.5 326.5L17 572L54.5 627.5L295 636.5H663.5L1065.5 649.5L1244 627.5L1445.5 613.5L1456 326.5L1445.5 88.5L1287.5 68L957 37H554.5L271.5 68Z" fill="#857952"/>
<path d="M516.5 170L382.5 174L362.5 404L458.5 407.5H542L849 412.5L1054 404L1064 400.5L1069 290L1064 179L970 174L868 170H744H644.5H599.5H569.5H516.5Z" fill="#B4B4A1" stroke="black" stroke-width="4"/>
<path d="M134 517.5L50 576.5L211 597.5L645 613.5C645 613.5 1094.52 592.813 1090 597.5C1076.5 611.5 1324.5 581.333 1413 550.5L1174 446L1065.5 398L856 407.5L564 402H368.5L134 517.5Z" fill="#787878" stroke="black" stroke-width="5"/>
<path d="M354.5 432.5L195.5 515.5L178.5 529.5L174 552L183.5 570L201.5 575L588.5 602L971 575L1149.5 570H1172L1189 561.5L1196 548.5L1193.5 534L1134 472.5L1123.5 436L1077 409.5L780.472 429L400.5 419.5L375.5 422.5L354.5 432.5Z" fill="#999999"/>
<path d="M978.5 230.5L954 239L935.5 246L926 266.5L918 294.5L915 327.5L928 366L945.5 401.5L1041 397H1063.5L1067.5 332.5V264L1062 217.5L1064 187H1059.5L1055 207L1034.5 215.5L1009.5 222.5L978.5 230.5Z" fill="#878779"/>
<path d="M1368.5 102.5L1229.5 88L1255.5 96.5L1266.5 110L1261.5 127.5L1247.5 140.5L1433 114.5L1368.5 102.5Z" fill="#737C82"/>
<path fill-rule="evenodd" clip-rule="evenodd" d="M331.5 86.5C337.9 86.5 519.833 74.8333 610 69H859L1028.5 77.5L1229.5 88L1255.5 96.5L1266.5 110L1261.5 127.5L1247.5 140.5L1142.5 167L1067.5 179L854 167H718.5H580L378 173.5L267.5 155.5L243.5 128.75V113.5L259 102.5L282.5 91.5C282.5 91.5 327.893 86.5 331.5 86.5Z" fill="#8F9AA1"/>
<path d="M150.5 135.5L267.5 155.5L243.5 128.75V113.5L259 102.5L282.5 91.5C282.5 91.5 87.9765 115.072 49.5 119L150.5 135.5Z" fill="#737C82"/>
<path d="M610 69C519.833 74.8333 337.9 86.5 331.5 86.5C327.893 86.5 282.5 91.5 282.5 91.5C282.5 91.5 79.4765 111.072 41 115L148.5 131.5L259.5 153L383.5 172.5L580 167H718.5H854L1067.5 179L1142.5 167L1247.5 140.5L1430.5 116L1368.5 102.5L1229.5 88L1028.5 77.5L859 69H610Z" stroke="black" stroke-width="4"/>
<path opacity="0.3" d="M652.15 94.2418L594.966 105.183L574.931 112.882L567 121.392L574.931 129.902L593.714 139.222L652.15 150.163L794.484 153L862.938 145.301L886.73 135.98L898 124.634L882.556 112.882L862.938 108.83L794.484 97.4837L723.943 91L652.15 94.2418Z" fill="#E6E9C4"/>
<path d="M185.5 166.5L240.5 172.5L243.5 161.5V150.5L141.5 133L40.5 118L38 133L40.5 147L111 158.5L185.5 166.5Z" fill="#B68A67" stroke="black" stroke-width="3"/>
<path d="M179 162L234.5 167.5L236 159.5L236 153L140.5 136.5L43.9999 123.5L42 132L43.9999 142L111 155L179 162Z" fill="#D5B87C"/>
<path d="M183.043 200.671L235.543 203.671L237.549 192.708L210.543 184.171L237.549 186.004L235.543 175.171L136.043 165.171L35.6868 150.171L32.7184 177.987L35.6868 189.424L109.043 192.708L183.043 200.671Z" fill="#B68A67" stroke="black" stroke-width="3"/>
<path d="M109.706 190.488L182.543 197.171L223.706 199.374L225.206 193.374L208.206 187.374L206.706 182.374L228.706 178.374L118.706 167.874L43.0506 159.374L39.2061 171.168L40.721 184.374L109.706 190.488Z" fill="#D5B87C"/>
<path d="M165.22 146.309L75.0427 135.434L121.286 144.806L165.999 149.83L224.953 158.237L165.22 146.309Z" fill="#B68A67"/>
<path d="M164.764 188.122L160.26 189.022L157.144 185.345L159.44 181.283L166.973 182.095L173.043 186.648L170.543 194.171L160.26 195.317L150.043 194.171L166.227 190.481L168.032 187.289C167.411 186.687 166.152 185.499 165.596 184.926C165.278 185.157 162.762 184.755 161.951 184.616L160.803 186.648L164.764 188.122Z" fill="#B68A67"/>
<path d="M182.984 234.67L231.478 235.38L236.18 229.624L236.282 222.625L236.355 217.655L236.18 205L111.5 194L35.8585 190.689L31.8192 210.632L34.4999 231L108.644 233.582L182.984 234.67Z" fill="#B68A67" stroke="black" stroke-width="3"/>
<path d="M159.936 230.293L86.9421 229.578L40.8322 227.045L37.6674 222.508L37.804 215.136L38.0402 202.38L41.413 195.684L98.8587 196.247L221.5 207.5L217.5 223L219 230.873L159.936 230.293Z" fill="#D5B87C"/>
<path d="M181.921 270.812L228.999 270.812L234.463 261.083L232.286 254.5L233.946 243.5L232.286 236.555L107.121 236.622L33.6943 234L29.2232 260.234L33.6943 280.285L107.776 276.301L181.921 270.812Z" fill="#B68A67" stroke="black" stroke-width="3"/>
<path d="M158.577 268.49L85.8053 274.231L36.9994 275.5L36.0985 271.546L32.4994 262.985L34.6902 251.464L36.9994 238.5L93.9994 241.5L217.499 238.5L217.499 256L215.499 265.5L158.577 268.49Z" fill="#D5B87C"/>
<path d="M99.5 218.5L49.5002 223.551L73.5 223.551L106.5 223.551L143.5 223.551L99.5 218.5Z" fill="#B68A67"/>
<path d="M187.542 306.106L230.542 303.606L232.542 296.106L232.542 289.106L232.542 280.798L232.542 272.606L147.042 274.106L31.5425 282.106L31.5425 306.106L34.5425 320.367L114.542 312.606L187.542 306.106Z" fill="#B68A67" stroke="black" stroke-width="3"/>
<path d="M188.5 300L142.542 303.447L102.042 309.106L36.0425 315.606L34.0425 303.447L34.0425 295.765L34.0425 286.455L96.0425 281.606L213 275.5L213 286.455L210.5 295.765L188.5 300Z" fill="#D5B87C"/>
<path d="M185.5 343.5L227.5 337L229.5 331.5L229.5 323.5L231 314.5L229.5 305.5L122.5 313L34.5 323.5L28 350L28 365L111 353L185.5 343.5Z" fill="#B68A67" stroke="black" stroke-width="3"/>
<path d="M192.5 333.5L146 341.5L102.5 348L36.5799 358L33.5 351.5L36.5799 339.016L36.1656 329.715L98.5 319L208 310.5L208 322L196.5 326.5L208 326.5L208 331.5L192.5 333.5Z" fill="#D5B87C"/>
<path d="M140 403L51.9999 425.5L98.5 417.5L142 406L200 392.5L140 403Z" fill="#B68A67"/>
<path d="M182.853 375.603L228.353 363.603L228.353 352.103L217.5 354L228.353 350.603L228.353 337.603L118.266 354.869L27.7775 367.603L27.7774 400.815L29.2248 415.745L110.853 394.103L182.853 375.603Z" fill="#B68A67"/>
<path d="M228.353 363.603L228.735 365.054L229.853 364.759L229.853 363.603L228.353 363.603ZM182.853 375.603L183.226 377.056L183.235 377.054L182.853 375.603ZM110.853 394.103L110.479 392.65L110.468 392.653L110.853 394.103ZM29.2248 415.745L27.7318 415.89L27.9022 417.647L29.6092 417.195L29.2248 415.745ZM228.353 337.603L229.853 337.603L229.853 335.85L228.12 336.121L228.353 337.603ZM228.353 350.603L228.801 352.035L229.853 351.705L229.853 350.603L228.353 350.603ZM27.7775 367.603L27.5684 366.118L26.2775 366.299L26.2775 367.603L27.7775 367.603ZM118.266 354.869L118.475 356.354L118.487 356.353L118.499 356.351L118.266 354.869ZM27.7774 400.815L26.2774 400.815L26.2774 400.887L26.2844 400.96L27.7774 400.815ZM217.5 354L217.052 352.568C216.297 352.804 215.856 353.586 216.042 354.354C216.229 355.122 216.979 355.614 217.758 355.477L217.5 354ZM228.353 352.103L229.853 352.103L229.853 350.318L228.094 350.626L228.353 352.103ZM227.97 362.153L182.47 374.153L183.235 377.054L228.735 365.054L227.97 362.153ZM182.479 374.15L110.479 392.65L111.226 395.556L183.226 377.056L182.479 374.15ZM110.468 392.653L28.8404 414.295L29.6092 417.195L111.237 395.553L110.468 392.653ZM226.853 337.603L226.853 350.603L229.853 350.603L229.853 337.603L226.853 337.603ZM27.9865 369.089L118.475 356.354L118.057 353.384L27.5684 366.118L27.9865 369.089ZM118.499 356.351L228.585 339.085L228.12 336.121L118.034 353.387L118.499 356.351ZM30.7178 415.6L29.2704 400.67L26.2844 400.96L27.7318 415.89L30.7178 415.6ZM29.2774 400.815L29.2775 367.603L26.2775 367.603L26.2774 400.815L29.2774 400.815ZM227.905 349.172L217.052 352.568L217.948 355.431L228.801 352.035L227.905 349.172ZM226.853 352.103L226.853 363.603L229.853 363.603L229.853 352.103L226.853 352.103ZM217.758 355.477L228.611 353.581L228.094 350.626L217.242 352.522L217.758 355.477Z" fill="black"/>
<path d="M190.353 368.603L144.853 381.603L99.3526 388.103L33.3964 408.103L35.3526 394.603L35.3526 384.603L33.3964 371.007L94.8527 361.103L205 344L205 348.5L193 351L205 357.5L207 364.5L190.353 368.603Z" fill="#D5B87C"/>
<path d="M122.094 361.798L123.956 364.208L124.939 362.238L128.196 364.166L126.682 366.984C126.682 366.984 123.669 367.541 123.66 367.306L119.699 363.852L120.835 356.735L115.538 356.874L117.019 367.629L124.559 370.584L131.941 369.519L133.174 364.883L131.574 360.142L123.759 359.184L122.094 361.798Z" fill="#B68A67"/>
<path d="M183.5 405.5L224 393.5L224 385L226 379L227.745 374.5L227.745 366L116.437 395.5L27.0001 417.5L27.0001 432.5L30.5 455L118.5 424.5L183.5 405.5Z" fill="#B68A67" stroke="black" stroke-width="3"/>
<path d="M182 404L140 412.5L109 425.5L34.5 446L31.5 440L29.5 432.965L29.5 419L96.5 404L206 375L206 378.5L206 382L206 388.5L206 394.5L182 404Z" fill="#D5B87C"/>
<path d="M140 403L51.9999 425.5L98.5 417.5L142 406L200 392.5L140 403Z" fill="#B68A67"/>
<path d="M82.4998 474.07L30.1726 499.5L30.1726 482.5L47.9998 474.07L30.1726 470L30.1726 457L130.5 423L222 396.5L222 408.5L222 423L150 451L82.4998 474.07Z" fill="#B68A67" stroke="black" stroke-width="3"/>
<path d="M73.955 475.12L123.5 453.5L165.5 440L204 426L204 419L204 411L204 405L135 426L36.5 460.5L36.5 467.5L57 472.5L41.9998 481L41.9999 488L73.955 475.12Z" fill="#D5B87C"/>
<path d="M87 514.5L33.5 538L33.5 527L36.5 517.889L35.069 511L33.5 500.5L87 474.5L220.128 426L221.125 440.958L220.128 455.5L153.5 488.5L87 514.5Z" fill="#B68A67" stroke="black" stroke-width="3"/>
<path d="M76.4999 515.5L126.703 493.985L167.437 477.043L202.896 460L205 446L188 450L205 443L202.896 438.966L135.879 465.625L41.1668 503.5L41.1668 508.5L76.4999 497.5L41.1668 513L41.1669 529L76.4999 515.5Z" fill="#D5B87C"/>
<path d="M92.5 553.5L46 578L34 570.5L34 556.733L34 549.5L34 541.5L85 518L221.5 458L223 470.5L221.5 487L156 521.5L92.5 553.5Z" fill="#B68A67" stroke="black" stroke-width="3"/>
<path d="M86 534.5L131 513.5L172 493.5L200 480L200 475.5L200 472.5L139.5 500L41 544L41 549.5L45.5001 554.5L86 534.5Z" fill="#D5B87C"/>
<path d="M310.5 181L258.656 171.909L260.5 157L275.5 162.5L314.5 166L371 174L373 181V188L343.5 186.5L310.5 181Z" fill="#B68A67" stroke="black" stroke-width="3"/>
<path d="M301.5 176L265 170.5L262 167.5L265 162.5L284.5 167.5L304 170.5L317 172.5L332 174L334.5 177.5L334.5 180.808L301.5 176Z" fill="#D5B87C"/>
<path d="M373 215L289.5 208L258 204.5L258 185.856L259.5 181L261 173.5L316 181L373 188.5L373 208L364.5 208L373 210.5L373 215Z" fill="#B68A67" stroke="black" stroke-width="3"/>
<path d="M346.5 204L346.5 207.5L317 205.5L293.5 204L278.5 200.5L278.5 192.5L278.5 183L328 190.5L349 190.5L346.5 199L331 200.5L346.5 204Z" fill="#D5B87C"/>
<path d="M348.137 219.94L352.645 220.748L355.763 217.447L353.465 213.798L345.927 214.527L339.852 218.616L342.354 225.373L352.645 226.402L362.869 225.373L346.673 222.059L344.867 219.192C345.488 218.651 346.748 217.584 347.304 217.07C347.623 217.278 350.141 216.917 350.952 216.792L352.101 218.616L348.137 219.94Z" fill="#B68A67"/>
<path d="M280.631 236.83L253.5 234.977L256 223.399L256 219L256 213.816L256 206L319.5 212.052L372.543 213.816L375 223.399L372.543 238.5L325.752 236.329L280.631 236.83Z" fill="#B68A67" stroke="black" stroke-width="3"/>
<path d="M287 232.718L338.952 234.085L347.5 233.5L349 225.95L349 221L349 217.5L316.5 215L270 211.5L268 231L328 225.95L287 232.718Z" fill="#D5B87C"/>
<path d="M285.5 264.327L261.5 268L261.5 260L264.5 252.5L264.5 245.5L266.5 237.834L317.5 237.834L372 240L372 252.5L371 262L327.427 263.523L285.5 264.327Z" fill="#B68A67" stroke="black" stroke-width="3"/>
<path d="M297 260L337 257.807L347.5 257.807L347.5 250.5L313 246L350.5 246L350.5 242L308.5 240.474L266.571 240.474L262.5 257.807L262.5 261.92L297 260Z" fill="#D5B87C"/>
<path d="M332.174 225.393L359.715 226.425L346.425 227.546L328.151 229.088L307.661 230.816L332.174 225.393Z" fill="#B68A67"/>
<path d="M276.5 297L259.5 297L259.5 287.5L260.794 280L260.794 276.5L262 268.5L295 265L370.652 262L370.904 276L370.652 286.201L320 290.5L276.5 297Z" fill="#B68A67" stroke="black" stroke-width="3"/>
<path d="M273 294L302 289L327.936 286.021L344.5 282.837L344.5 279L344.5 272.5L344.5 267L309 268.989L264.035 275.198L264.5 282.837L264.5 292L273 294Z" fill="#D5B87C"/>
<path d="M276 326.5L258 329L258 321L258 316.5L258 310.107L260 300.362L311.873 291.263L371 286L371 300.362L369 310.107L321 316.5L276 326.5Z" fill="#B68A67" stroke="black" stroke-width="3"/>
<path d="M274 321L311 313.552L344.5 307.5L344.5 296L309.5 297.5L344.5 293L344.5 291L297 297.5L260.5 302.5L256.5 311.734L269.805 311.734L256.5 316L260.5 321L274 321Z" fill="#D5B87C"/>
<path d="M309.306 352.505L362.612 353.21L334.775 355.364L308.393 354.77L273.373 355.169L309.306 352.505Z" fill="#B68A67"/>
<path d="M279.5 352.5L258.5 356.5L259.5 346.5L259.5 339.5L259.5 336L258.5 331L310.5 319L368.5 310L368.5 319L366 333.5L321.5 342L279.5 352.5Z" fill="#B68A67"/>
<path d="M258.5 356.5L258.672 357.966L256.815 358.319L257 356.469L258.5 356.5ZM279.5 352.5L279.76 353.946L279.716 353.957L279.672 353.966L279.5 352.5ZM321.5 342L321.24 340.554L321.284 340.543L321.327 340.535L321.5 342ZM366 333.5L367.485 333.639L367.293 334.751L366.172 334.965L366 333.5ZM258.5 331L257.021 331.399L256.722 329.904L258.269 329.547L258.5 331ZM259.5 336L260.979 335.602L261.007 335.74L261.007 335.884L259.5 336ZM368.5 310L368.381 308.526L370.007 308.273L370.007 309.884L368.5 310ZM310.5 319L310.268 317.547L310.325 317.534L310.381 317.526L310.5 319ZM368.5 319L370.007 318.884L370.007 319.011L369.985 319.139L368.5 319ZM259.5 339.5L257.993 339.617L259.5 339.5ZM259.5 346.5L261.007 346.384L261.007 346.458L261 346.532L259.5 346.5ZM258.328 355.035L279.328 351.035L279.672 353.966L258.672 357.966L258.328 355.035ZM279.24 351.054L321.24 340.554L321.76 343.446L279.76 353.946L279.24 351.054ZM321.327 340.535L365.827 332.035L366.172 334.965L321.672 343.465L321.327 340.535ZM259.979 330.602L260.979 335.602L258.021 336.399L257.021 331.399L259.979 330.602ZM368.618 311.475L310.618 320.475L310.381 317.526L368.381 308.526L368.618 311.475ZM310.731 320.453L258.731 332.453L258.269 329.547L310.268 317.547L310.731 320.453ZM364.515 333.362L367.015 318.862L369.985 319.139L367.485 333.639L364.515 333.362ZM366.993 319.117L366.993 310.117L370.007 309.884L370.007 318.884L366.993 319.117ZM261.007 335.884L261.007 339.384L257.993 339.617L257.993 336.117L261.007 335.884ZM261 346.532L260 356.532L257 356.469L258 346.469L261 346.532ZM261.007 339.384L261.007 346.384L257.993 346.617L257.993 339.617L261.007 339.384Z" fill="black"/>
<path d="M272 347.5L301.5 341.5L326.5 336L341 332.975L341 327.5L341 322.5L340 318.5L323.5 320.5L259.5 332.975L259.5 339.5L305.5 331L259.5 341.5L260 349.5L272 347.5Z" fill="#D5B87C"/>
<path d="M279.396 317.801L279.602 315.737L280.626 316.522L281.632 314.233L280.116 313.149C280.116 313.149 278.525 313.912 278.587 314.051L277.677 317.475L280.226 321.183L277.666 323.011L275.336 316.256L278.09 311.832L281.903 309.789L283.798 312.026L284.375 315.345L280.927 318.713L279.396 317.801Z" fill="#B68A67"/>
<path d="M338 339L364.946 333.5L364.946 339L366 344L364.946 350.5L345 358L297 373L257 383.5L257 371.5L257 359L300 347.5L338 339Z" fill="#B68A67" stroke="black" stroke-width="3"/>
<path d="M303 353.515L281 358.5L290.457 351.868L258 362.5L258 368L258.5 378L289 369.12L336.5 354.5L338 350L338 343L303 353.515Z" fill="#D5B87C"/>
<path d="M321 387.344L352 375.844L363 372.5L363 363.5L364 358L363 352.5L301.38 370.094L257 384L257 394.5L257 409L285 399.5L321 387.344Z" fill="#B68A67" stroke="black" stroke-width="3"/>
<path d="M334.5 380.051L312 384.705L259 404.5L258 399.064L292 387.5L259 395L259 387.5L280.5 384L306 376.016L335.5 366L335.5 372L300 384.705L334.5 376.016L334.5 380.051Z" fill="#D5B87C"/>
<path d="M331.5 404.5L347.5 397L360.5 390L360.5 383L361.5 379L361.5 372L327.5 385L257 411.5L256 424L257 438.5L293.5 422L331.5 404.5Z" fill="#B68A67" stroke="black" stroke-width="3"/>
<path d="M285.5 417.5L292 415L300 414L258 433L258 429.5L256.5 424L258 420.659L258 415.607L282 406.5L302.5 397.5L333 386.862L334.5 399L304.5 411.5L294.5 410.5L285.5 417.5Z" fill="#D5B87C"/>
<path d="M336.5 423L356.5 412.5L359.5 397L359.5 392L348.5 397L326 409.21L287 426L255 440.5L255 450.5L257.5 461L297.5 440.5L336.5 423Z" fill="#B68A67" stroke="black" stroke-width="3"/>
<path d="M320.5 420L304.859 425.988L279.069 437.042L260.144 446L260.144 443.434L259.237 442.634L296.685 425.787L331 410L336.5 410L335 414L320.5 420Z" fill="#D5B87C"/>
<path d="M1263.74 165.352L1200 171.164L1196.52 160.509V149.854L1314.74 132.902L1431.79 118.373L1434.69 132.902L1431.79 146.463L1350.08 157.603L1263.74 165.352Z" fill="#B68A67" stroke="black" stroke-width="3"/>
<path d="M1271.28 160.993L1206.95 166.321L1205.22 158.572L1205.22 152.275L1315.9 136.293L1427.73 123.7L1430.05 131.934L1427.73 141.62L1350.08 154.213L1271.28 160.993Z" fill="#D5B87C"/>
<path d="M1266.59 198.452L1205.75 201.358L1203.42 190.739L1234.72 182.469L1203.42 184.245L1205.75 173.751L1321.06 164.065L1437.37 149.535L1440.81 176.479L1437.37 187.557L1352.35 190.739L1266.59 198.452Z" fill="#B68A67" stroke="black" stroke-width="3"/>
<path d="M1351.58 188.588L1267.17 195.061L1219.46 197.195L1217.73 191.383L1237.43 185.571L1239.17 180.728L1213.67 176.853L1341.15 166.683L1428.83 158.449L1433.29 169.873L1431.53 182.665L1351.58 188.588Z" fill="#D5B87C"/>
<path d="M1287.25 145.794L1391.76 135.261L1338.16 144.339L1286.34 149.204L1218.02 157.348L1287.25 145.794Z" fill="#B68A67"/>
<path d="M1287.77 186.296L1292.99 187.167L1296.61 183.607L1293.94 179.672L1285.21 180.458L1278.18 184.868L1281.08 192.156L1292.99 193.265L1304.84 192.156L1286.08 188.581L1283.99 185.489C1284.71 184.906 1286.17 183.755 1286.81 183.2C1287.18 183.424 1290.1 183.035 1291.03 182.9L1292.37 184.868L1287.77 186.296Z" fill="#B68A67"/>
<path d="M1266.66 231.384L1210.46 232.072L1205.01 226.497L1204.89 219.717L1204.8 214.903L1205.01 202.645L1349.5 191.99L1437.17 188.783L1441.85 208.101L1438.74 227.83L1352.81 230.331L1266.66 231.384Z" fill="#B68A67" stroke="black" stroke-width="3"/>
<path d="M1293.37 227.145L1377.97 226.452L1431.41 223.998L1435.07 219.604L1434.91 212.463L1434.64 200.107L1430.73 193.621L1364.16 194.166L1222.02 205.066L1226.66 220.08L1224.92 227.706L1293.37 227.145Z" fill="#D5B87C"/>
<path d="M1267.89 266.393L1213.33 266.393L1207 256.969L1209.52 250.592L1207.6 239.937L1209.52 233.21L1354.58 233.275L1439.68 230.735L1444.86 256.146L1439.68 275.569L1353.82 271.71L1267.89 266.393Z" fill="#B68A67" stroke="black" stroke-width="3"/>
<path d="M1294.94 264.144L1379.28 269.705L1435.85 270.934L1436.89 267.104L1441.06 258.811L1438.52 247.652L1435.85 235.094L1369.79 238L1226.66 235.094L1226.66 252.045L1228.97 261.247L1294.94 264.144Z" fill="#D5B87C"/>
<path d="M1363.41 215.721L1421.36 220.613L1393.54 220.613L1355.3 220.613L1312.42 220.613L1363.41 215.721Z" fill="#B68A67"/>
<path d="M1261.38 300.581L1211.54 298.159L1209.22 290.894L1209.22 284.114L1209.22 276.066L1209.22 268.131L1308.31 269.584L1442.17 277.333L1442.17 300.581L1438.69 314.394L1345.98 306.877L1261.38 300.581Z" fill="#B68A67" stroke="black" stroke-width="3"/>
<path d="M1260.27 294.666L1313.53 298.005L1360.47 303.487L1436.96 309.783L1439.27 298.005L1439.27 290.563L1439.27 281.545L1367.42 276.849L1231.87 270.934L1231.87 281.545L1234.77 290.563L1260.27 294.666Z" fill="#D5B87C"/>
<path d="M1263.74 336.802L1215.07 330.506L1212.75 325.178L1212.75 317.429L1211.01 308.711L1212.75 299.993L1336.76 307.258L1438.74 317.429L1446.28 343.098L1446.28 357.628L1350.08 346.004L1263.74 336.802Z" fill="#B68A67" stroke="black" stroke-width="3"/>
<path d="M1255.63 327.115L1309.52 334.865L1359.94 341.161L1436.33 350.847L1439.9 344.551L1436.33 332.458L1436.81 323.449L1364.57 313.07L1237.67 304.837L1237.67 315.976L1250.99 320.335L1237.67 320.335L1237.67 325.178L1255.63 327.115Z" fill="#D5B87C"/>
<path d="M1316.47 394.436L1418.46 416.23L1364.57 408.481L1314.16 397.342L1246.94 384.265L1316.47 394.436Z" fill="#B68A67"/>
<path d="M1266.81 367.898L1214.08 356.275L1214.08 345.135L1226.66 346.973L1214.08 343.682L1214.08 331.09L1341.66 347.815L1446.53 360.149L1446.53 392.32L1444.86 406.781L1350.25 385.818L1266.81 367.898Z" fill="#B68A67"/>
<path d="M1214.08 356.275L1213.58 357.663L1212.51 357.427L1212.51 356.402L1214.08 356.275ZM1266.81 367.898L1266.32 369.289L1266.32 369.287L1266.81 367.898ZM1350.25 385.818L1350.74 384.428L1350.75 384.43L1350.25 385.818ZM1444.86 406.781L1446.42 406.805L1446.21 408.58L1444.36 408.17L1444.86 406.781ZM1214.08 331.09L1212.51 331.217L1212.51 329.425L1214.44 329.677L1214.08 331.09ZM1214.08 343.682L1213.52 345.057L1212.51 344.791L1212.51 343.809L1214.08 343.682ZM1446.53 360.149L1446.87 358.734L1448.1 358.879L1448.1 360.022L1446.53 360.149ZM1341.66 347.815L1341.33 349.23L1341.32 349.229L1341.31 349.227L1341.66 347.815ZM1446.53 392.32L1448.1 392.193L1448.1 392.268L1448.1 392.343L1446.53 392.32ZM1226.66 346.973L1227.21 345.598C1227.99 345.802 1228.4 346.538 1228.15 347.276C1227.91 348.015 1227.08 348.5 1226.27 348.382L1226.66 346.973ZM1214.08 345.135L1212.51 345.262L1212.51 343.441L1214.46 343.726L1214.08 345.135ZM1214.57 354.886L1267.31 366.51L1266.32 369.287L1213.58 357.663L1214.57 354.886ZM1267.3 366.508L1350.74 384.428L1349.77 387.209L1266.32 369.289L1267.3 366.508ZM1350.75 384.43L1445.35 405.393L1444.36 408.17L1349.76 387.207L1350.75 384.43ZM1215.65 330.963L1215.65 343.556L1212.51 343.809L1212.51 331.217L1215.65 330.963ZM1446.2 361.565L1341.33 349.23L1342 346.399L1446.87 358.734L1446.2 361.565ZM1341.31 349.227L1213.72 332.503L1214.44 329.677L1342.02 346.402L1341.31 349.227ZM1443.3 406.758L1444.97 392.296L1448.1 392.343L1446.42 406.805L1443.3 406.758ZM1444.97 392.446L1444.96 360.276L1448.1 360.022L1448.1 392.193L1444.97 392.446ZM1214.63 342.308L1227.21 345.598L1226.1 348.347L1213.52 345.057L1214.63 342.308ZM1215.65 345.009L1215.65 356.148L1212.51 356.402L1212.51 345.262L1215.65 345.009ZM1226.27 348.382L1213.7 346.545L1214.46 343.726L1227.04 345.563L1226.27 348.382Z" fill="black"/>
<path d="M1258.12 361.118L1310.85 373.71L1363.58 380.006L1440.02 399.379L1437.76 386.303L1437.76 376.616L1440.02 363.447L1368.8 353.853L1241.14 337.286L1241.14 341.645L1255.05 344.067L1241.14 350.363L1238.83 357.143L1258.12 361.118Z" fill="#D5B87C"/>
<path d="M1337.23 354.526L1335.07 356.86L1333.93 354.952L1330.15 356.82L1331.91 359.549C1331.91 359.549 1335.4 360.089 1335.41 359.861L1340 356.516L1338.69 349.622L1344.83 349.756L1343.11 360.175L1334.37 363.036L1325.81 362.005L1324.39 357.514L1326.24 352.922L1335.3 351.994L1337.23 354.526Z" fill="#B68A67"/>
<path d="M1266.06 396.857L1219.12 385.234L1219.12 377L1216.81 371.188L1214.78 366.83L1214.78 358.596L1343.78 387.171L1447.44 408.481L1447.44 423.011L1443.38 444.805L1341.39 415.262L1266.06 396.857Z" fill="#B68A67" stroke="black" stroke-width="3"/>
<path d="M1267.8 395.404L1316.47 403.638L1352.4 416.23L1438.74 436.087L1442.22 430.276L1444.54 423.462L1444.54 409.934L1366.89 395.404L1239.98 367.314L1239.98 370.704L1239.98 374.094L1239.98 380.39L1239.98 386.202L1267.8 395.404Z" fill="#D5B87C"/>
<path d="M1316.47 394.436L1418.46 416.23L1364.57 408.481L1314.16 397.342L1246.94 384.265L1316.47 394.436Z" fill="#B68A67"/>
<path d="M1383.11 463.277L1443.76 487.91L1443.76 471.443L1423.1 463.277L1443.76 459.335L1443.76 446.743L1327.48 413.809L1221.44 388.14L1221.44 399.763L1221.44 413.809L1304.89 440.931L1383.11 463.277Z" fill="#B68A67" stroke="black" stroke-width="3"/>
<path d="M1393.02 464.294L1335.6 443.352L1286.92 430.276L1242.3 416.715L1242.3 409.934L1242.3 402.185L1242.3 396.373L1322.27 416.715L1436.43 450.133L1436.43 456.913L1412.67 461.757L1430.05 469.99L1430.05 476.77L1393.02 464.294Z" fill="#D5B87C"/>
<path d="M1377.9 502.44L1439.9 525.203L1439.9 514.548L1436.43 505.723L1438.08 499.049L1439.9 488.879L1377.9 463.694L1223.61 416.715L1222.46 431.204L1223.61 445.29L1300.83 477.255L1377.9 502.44Z" fill="#B68A67" stroke="black" stroke-width="3"/>
<path d="M1390.07 503.408L1331.88 482.568L1284.68 466.157L1243.58 449.649L1241.14 436.088L1260.85 439.962L1241.14 433.182L1243.58 429.274L1321.25 455.097L1431.02 491.785L1431.02 496.628L1390.07 485.973L1431.02 500.987L1431.02 516.485L1390.07 503.408Z" fill="#D5B87C"/>
<path d="M1371.52 540.217L1423.5 554L1439.32 551L1439.32 543.348L1439.32 536.342L1439.32 528.593L1380.22 505.83L1222.02 447.711L1220.28 459.819L1222.02 475.802L1297.93 509.22L1371.52 540.217Z" fill="#B68A67" stroke="black" stroke-width="3"/>
<path d="M1379.06 521.813L1326.91 501.471L1279.39 482.098L1246.94 469.022L1246.94 464.663L1246.94 461.757L1317.05 488.394L1431.21 531.015L1431.21 536.342L1426 541.185L1379.06 521.813Z" fill="#D5B87C"/>
<path d="M1134.15 189.229L1192.86 180.431L1190.77 166L1173.79 171.323L1129.61 174.711L1065.62 182.454L1063.36 189.229V196.005L1096.77 194.553L1134.15 189.229Z" fill="#B68A67" stroke="black" stroke-width="3"/>
<path d="M1144.34 184.39L1185.68 179.067L1189.08 176.163L1185.68 171.324L1163.59 176.163L1141.51 179.067L1126.78 181.003L1109.79 182.454L1106.96 185.842L1106.96 189.044L1144.34 184.39Z" fill="#D5B87C"/>
<path d="M1063.36 222.138L1157.93 215.363L1193.61 211.975L1193.61 193.93L1191.91 189.23L1190.21 181.971L1127.92 189.23L1063.36 196.489L1063.36 215.363L1072.99 215.363L1063.36 217.783L1063.36 222.138Z" fill="#B68A67" stroke="black" stroke-width="3"/>
<path d="M1093.37 211.491L1093.37 214.879L1126.78 212.943L1153.4 211.491L1170.39 208.104L1170.39 200.361L1170.39 191.166L1114.32 198.425L1090.54 198.425L1093.37 206.652L1110.93 208.104L1093.37 211.491Z" fill="#D5B87C"/>
<path d="M1091.52 226.92L1086.41 227.702L1082.88 224.506L1085.48 220.975L1094.02 221.681L1100.9 225.638L1098.07 232.178L1086.41 233.175L1074.83 232.178L1093.18 228.97L1095.22 226.196C1094.52 225.672 1093.09 224.64 1092.46 224.142C1092.1 224.343 1089.25 223.993 1088.33 223.873L1087.03 225.638L1091.52 226.92Z" fill="#B68A67"/>
<path d="M1167.97 243.267L1198.7 241.474L1195.87 230.268L1195.87 226.01L1195.87 220.992L1195.87 213.427L1123.95 219.285L1063.88 220.992L1061.09 230.268L1063.88 244.884L1116.87 242.782L1167.97 243.267Z" fill="#B68A67" stroke="black" stroke-width="3"/>
<path d="M1160.76 239.287L1101.92 240.611L1092.24 240.044L1090.54 232.737L1090.54 227.946L1090.54 224.558L1127.35 222.138L1180.01 218.751L1182.28 237.625L1114.32 232.737L1160.76 239.287Z" fill="#D5B87C"/>
<path d="M1162.46 269.881L1189.64 273.437L1189.64 265.694L1186.24 258.434L1186.24 251.659L1183.98 244.239L1126.22 244.239L1064.49 246.336L1064.49 258.434L1065.62 267.629L1114.97 269.103L1162.46 269.881Z" fill="#B68A67" stroke="black" stroke-width="3"/>
<path d="M1149.44 265.694L1104.13 263.571L1092.24 263.571L1092.24 256.499L1131.31 252.143L1088.84 252.143L1088.84 248.272L1136.41 246.795L1183.9 246.795L1188.51 263.571L1188.51 267.552L1149.44 265.694Z" fill="#D5B87C"/>
<path d="M1109.6 232.197L1078.4 233.197L1093.46 234.282L1114.15 235.774L1137.36 237.447L1109.6 232.197Z" fill="#B68A67"/>
<path d="M1172.65 301.506L1191.91 301.506L1191.91 292.311L1190.44 285.051L1190.44 281.664L1189.08 273.921L1151.7 270.533L1066.02 267.629L1065.73 281.18L1066.02 291.053L1123.39 295.214L1172.65 301.506Z" fill="#B68A67" stroke="black" stroke-width="3"/>
<path d="M1176.62 298.602L1143.77 293.763L1114.4 290.879L1095.64 287.798L1095.64 284.084L1095.64 277.792L1095.64 272.469L1135.84 274.394L1186.77 280.404L1186.24 287.797L1186.24 296.666L1176.62 298.602Z" fill="#D5B87C"/>
<path d="M1173.22 330.058L1193.61 332.478L1193.61 324.735L1193.61 320.379L1193.61 314.192L1191.34 304.759L1132.59 295.953L1065.62 290.859L1065.62 304.759L1067.89 314.192L1122.25 320.379L1173.22 330.058Z" fill="#B68A67" stroke="black" stroke-width="3"/>
<path d="M1175.48 324.735L1133.58 317.527L1095.64 311.668L1095.64 300.538L1135.28 301.99L1095.64 297.634L1095.64 295.698L1149.44 301.99L1190.77 306.829L1195.3 315.767L1180.24 315.767L1195.3 319.896L1190.77 324.735L1175.48 324.735Z" fill="#D5B87C"/>
<path d="M1135.5 355.229L1075.12 355.911L1106.65 357.996L1136.53 357.421L1176.19 357.807L1135.5 355.229Z" fill="#B68A67"/>
<path d="M1168.41 355.223L1192.71 359.095L1191.55 349.416L1191.55 342.641L1191.55 339.253L1192.71 334.414L1132.54 322.799L1065.42 314.088L1065.42 322.799L1068.32 336.833L1119.81 345.06L1168.41 355.223Z" fill="#B68A67"/>
<path d="M1192.71 359.095L1192.61 360.565L1194.42 360.853L1194.2 359.068L1192.71 359.095ZM1168.41 355.223L1168.24 356.68L1168.27 356.687L1168.31 356.694L1168.41 355.223ZM1119.81 345.06L1119.98 343.604L1119.94 343.596L1119.9 343.59L1119.81 345.06ZM1068.32 336.833L1066.84 336.987L1067.07 338.119L1068.22 338.303L1068.32 336.833ZM1192.71 334.414L1194.18 334.89L1194.56 333.283L1192.85 332.952L1192.71 334.414ZM1191.55 339.253L1190.08 338.776L1190.04 338.936L1190.04 339.104L1191.55 339.253ZM1065.42 314.088L1065.47 312.611L1063.91 312.409L1063.91 313.939L1065.42 314.088ZM1132.54 322.799L1132.68 321.338L1132.63 321.329L1132.58 321.322L1132.54 322.799ZM1065.42 322.799L1063.91 322.65L1063.91 322.801L1063.94 322.953L1065.42 322.799ZM1191.55 342.641L1193.06 342.79L1193.06 342.79L1191.55 342.641ZM1191.55 349.416L1190.04 349.267L1190.04 349.354L1190.05 349.442L1191.55 349.416ZM1192.8 357.625L1168.5 353.753L1168.31 356.694L1192.61 360.565L1192.8 357.625ZM1168.57 353.767L1119.98 343.604L1119.64 346.517L1168.24 356.68L1168.57 353.767ZM1119.9 343.59L1068.41 335.363L1068.22 338.303L1119.71 346.531L1119.9 343.59ZM1191.23 333.937L1190.08 338.776L1193.02 339.73L1194.18 334.89L1191.23 333.937ZM1065.38 315.565L1132.49 324.276L1132.58 321.322L1065.47 312.611L1065.38 315.565ZM1132.39 324.26L1192.56 335.875L1192.85 332.952L1132.68 321.338L1132.39 324.26ZM1069.79 336.68L1066.9 322.645L1063.94 322.953L1066.84 336.987L1069.79 336.68ZM1066.93 322.948L1066.93 314.237L1063.91 313.939L1063.91 322.65L1066.93 322.948ZM1190.04 339.104L1190.04 342.491L1193.06 342.79L1193.06 339.402L1190.04 339.104ZM1190.05 349.442L1191.21 359.121L1194.2 359.068L1193.05 349.389L1190.05 349.442ZM1190.04 342.491L1190.04 349.267L1193.06 349.565L1193.06 342.79L1190.04 342.491Z" fill="black"/>
<path d="M1177.08 350.384L1142.95 344.577L1114.02 339.253L1097.24 336.325L1097.24 331.026L1097.24 326.187L1098.4 322.315L1117.49 324.251L1191.55 336.325L1191.55 342.641L1138.32 334.414L1191.55 344.577L1190.97 352.32L1177.08 350.384Z" fill="#D5B87C"/>
<path d="M1168.53 321.639L1168.29 319.641L1167.1 320.401L1165.94 318.186L1167.69 317.136C1167.69 317.136 1169.53 317.874 1169.46 318.009L1170.51 321.323L1167.57 324.912L1170.53 326.681L1173.22 320.143L1170.04 315.861L1165.63 313.883L1163.43 316.049L1162.76 319.261L1166.76 322.522L1168.53 321.639Z" fill="#B68A67"/>
<path d="M1099.25 342.157L1067.65 336.833L1067.65 342.157L1066.41 346.996L1067.65 353.288L1091.04 360.547L1147.34 375.065L1194.25 385.228L1194.25 373.613L1194.25 361.515L1143.82 350.384L1099.25 342.157Z" fill="#B68A67" stroke="black" stroke-width="3"/>
<path d="M1140.3 356.206L1166.1 361.031L1155.01 354.611L1193.08 364.902L1193.08 370.226L1192.49 379.905L1156.72 371.31L1101.01 357.159L1099.25 352.804L1099.25 346.028L1140.3 356.206Z" fill="#D5B87C"/>
<path d="M1116.19 388.949L1078.61 377.818L1065.28 374.581L1065.28 365.87L1064.06 360.547L1065.28 355.223L1139.97 372.252L1193.77 385.712L1193.77 395.875L1193.77 409.909L1159.83 400.714L1116.19 388.949Z" fill="#B68A67" stroke="black" stroke-width="3"/>
<path d="M1099.83 381.89L1127.1 386.395L1191.35 405.554L1192.56 400.292L1151.34 389.1L1191.35 396.359L1191.35 389.1L1165.28 385.712L1134.37 377.985L1098.61 368.29L1098.61 374.098L1141.65 386.395L1099.83 377.985L1099.83 381.89Z" fill="#D5B87C"/>
<path d="M1104 402L1082.5 395L1066.13 389.5L1066.13 384.744L1064.9 380.873L1064.9 374.097L1106.76 386.68L1193.54 412.329L1194.77 424.428L1193.54 438.462L1148.5 419L1104 402Z" fill="#B68A67" stroke="black" stroke-width="3"/>
<path d="M1158.46 418.137L1150.46 415.717L1140.61 414.749L1192.31 433.139L1192.31 429.751L1194.16 424.428L1192.31 421.194L1192.31 416.304L1162.77 407.49L1137.53 398.779L1099.99 388.482L1098.14 400.231L1135.07 412.329L1147.38 411.361L1158.46 418.137Z" fill="#D5B87C"/>
<path d="M1093.5 419L1067.5 405L1063.39 396.334L1063.39 389L1079 394L1106.5 403.5L1156 424L1195.74 440.268L1195.91 450.028L1192.93 460.24L1142.2 439.666L1093.5 419Z" fill="#B68A67" stroke="black" stroke-width="3"/>
<path d="M1112.9 419.333L1132.7 425.398L1165.37 436.552L1189.35 445.563L1189.31 443.058L1190.44 442.291L1142.99 425.318L1099.51 409.425L1092.58 409.347L1094.53 413.272L1112.9 419.333Z" fill="#D5B87C"/>
<path d="M47.5 174.923L86.4873 95H129.905L110.854 150.946L86.4873 211.887L88.7025 385.718L117.057 448.657L141.424 493.114L152.5 606.005L129.905 611L110.854 606.005L101.108 503.105L81.1709 469.137L47.5 385.718V174.923Z" fill="#1B4558" stroke="black" stroke-width="8"/>
<path d="M68 211L112 97.5H123.5L100 171.5L83.5 211L87.5 383.5L113 442L138 488.5L147.5 549L152 603H144.5L138 556L131 495.5L102.5 442L81 387.5L68 211Z" fill="#7A8B9A"/>
<path fill-rule="evenodd" clip-rule="evenodd" d="M131.337 446.721L137.386 433.967L150.938 433.044L164.935 445.152L171.533 466.452L166.547 477.75L149.977 479.045L140.383 471.545L129.081 476.152L124.883 468.966L134.383 462.545L131.337 446.721ZM137.386 450L141.383 459.645L147.384 455.045L139.383 443.34L137.386 450ZM152.384 451.045L144.165 439.5L150.64 440.038L156.884 447L152.384 451.045ZM149.977 460.545L144.165 464.545L150.938 473.045L159.384 473.045L149.977 460.545ZM164.935 459.645L163.384 468.966L154.454 456.215L159.883 452.045L164.935 459.645Z" fill="#855154"/>
<path d="M99 470.5L89.5 482.5L82 470.5L90.5 457.5L109 446.721L117.5 446.721L124.883 459.645L110 462.545L99 470.5Z" fill="#1E0708"/>
<path d="M137.386 485L130.5 496L112.5 501.5C112.5 501.5 100.462 501.394 100.5 500.5C100.5 500.5 100.5 512.5 102 514L115 512.5L133.5 508.5L143 497L137.386 485Z" fill="#59494A"/>
<path d="M140.383 471.545L149.977 479.045L166.547 477.75L171.533 466.452L164.935 445.152L150.938 433.044L137.386 433.967L131.337 446.721L134.383 462.545M140.383 471.545L129.081 476.152L124.883 468.966L134.383 462.545M140.383 471.545L134.383 462.545M137.386 450L141.383 459.645L147.384 455.045L139.383 443.34L137.386 450ZM144.165 439.5L152.384 451.045L156.884 447L150.64 440.038L144.165 439.5ZM149.977 460.545L144.165 464.545L150.938 473.045L159.384 473.045L149.977 460.545ZM163.384 468.966L164.935 459.645L159.883 452.045L154.454 456.215L163.384 468.966ZM124.883 459.645L117.5 446.721L109 446.721L90.5 457.5L82 470.5L89.5 482.5L99 470.5L110 462.545L124.883 459.645ZM137.386 485L130.5 496L112.5 501.5C112.5 501.5 100.462 501.394 100.5 500.5C100.5 500.5 100.5 512.5 102 514L115 512.5L133.5 508.5L143 497L137.386 485Z" stroke="black" stroke-width="4"/>
<path fill-rule="evenodd" clip-rule="evenodd" d="M185.429 212.745L168.071 199L151.5 216.5L146 241L149.5 275.5L168.071 300.5L190.571 281.112L197 244.378L185.429 212.745Z" fill="#799271"/>
<path d="M146 212.745L136.5 233V259L144.5 283.5L157 298.5L168.071 300.5L149.5 275.5L146 241L151.5 216.5L168.071 199L157 200.5L146 212.745Z" fill="#8F9AA1"/>
<path d="M168.071 199L185.429 212.745L197 244.378L190.571 281.112L168.071 300.5M168.071 199L151.5 216.5L146 241L149.5 275.5L168.071 300.5M168.071 199L157 200.5L146 212.745L136.5 233V259L144.5 283.5L157 298.5L168.071 300.5" stroke="black" stroke-width="4"/>
<path d="M167.256 246.524C167.162 245.737 167.124 244.911 167.14 244.045C167.281 243.167 167.485 242.32 167.754 241.504C168.145 240.826 168.588 240.253 169.084 239.785C169.657 239.588 170.251 239.55 170.865 239.67C171.478 240.13 172.065 240.759 172.629 241.558C173.097 242.668 173.496 243.907 173.825 245.274C173.98 246.821 174.034 248.41 173.988 250.04C173.728 251.643 173.363 253.174 172.892 254.634C172.227 255.836 171.481 256.857 170.654 257.699C169.713 258.096 168.743 258.243 167.744 258.139C166.754 257.507 165.801 256.617 164.887 255.468C164.116 253.849 163.448 252.036 162.883 250.029C162.572 247.748 162.407 245.399 162.387 242.982C162.675 240.586 163.115 238.281 163.708 236.068C164.582 234.195 165.574 232.564 166.685 231.175C167.97 230.386 169.303 229.938 170.686 229.83C172.078 230.444 173.429 231.415 174.739 232.742C175.876 234.727 176.886 236.991 177.768 239.532C178.326 242.485 178.696 245.555 178.879 248.743C178.659 251.966 178.236 255.101 177.612 258.148C176.608 260.813 175.439 263.192 174.106 265.285C172.52 266.646 170.853 267.584 169.106 268.099C167.308 267.701 165.542 266.843 163.807 265.525C162.252 263.341 160.84 260.78 159.572 257.842C158.682 254.314 158.018 250.597 157.578 246.69C157.632 242.644 157.938 238.657 158.498 234.731C159.543 231.182 160.805 227.943 162.284 225.014C164.115 222.913 166.067 221.308 168.141 220.198C170.332 220.18 172.512 220.725 174.682 221.832C176.69 224.027 178.549 226.711 180.261 229.882C181.557 233.855 182.598 238.11 183.384 242.649C183.595 247.477 183.503 252.299 183.109 257.115C182.12 261.606 180.857 265.787 179.319 269.657C177.319 272.641 175.145 275.074 172.798 276.956C170.246 277.587 167.671 277.556 165.073 276.864C162.595 274.861 160.258 272.249 158.062 269.03C156.296 264.773 152.713 260.516 151.5 255.468C150.931 249.935 150.373 245.207 150.5 239.532C151.331 234.074 154.926 227.631 156.424 222.747C158.508 218.761 160.825 215.363 163.375 212.552C166.238 211.121 169.169 210.441 172.169 210.512C175.117 212.113 177.943 214.445 180.649 217.507C182.934 221.866 184.932 226.746 186.643 232.15C187.657 238.274 188.283 244.571 188.522 251.04C187.954 257.448 186.993 263.62 185.639 269.556C183.568 274.632 181.199 279.107 178.531 282.981C175.423 285.383 172.191 286.958 168.834 287.706C165.436 286.72 163.722 284.69 160.5 282C157.663 277.746 155.857 272.577 153.593 267C152.056 260.432 151.29 252.433 150.592 245.274" stroke="#CCC68D" stroke-width="2"/>
<path d="M172.593 226.588L160.308 229.343L172.845 229.075L189.47 234.423L183.392 229.009L193.536 224.964L183.435 224.482L187.357 218.555L172.593 226.588Z" fill="#FF2B2B" stroke="black" stroke-width="2"/>
<path d="M182.383 280.158L169.74 278.527L181.583 282.527L194.501 294.279L191.211 286.834L202.118 287.352L193.124 282.731L199.148 278.96L182.383 280.158Z" fill="#FF2B2B" stroke="black" stroke-width="2"/>
<path d="M189 251.5L176.5 249H189L205 242L199.5 248L210 251L200 252.5L204.5 258L189 251.5Z" fill="#FF2B2B" stroke="black" stroke-width="2"/>
<path d="M220.517 303.131L233.311 153.235L250.364 152.381L266.984 153.546L267.657 166.99L282.772 148.761L304.621 147.667L318.043 148.992L261.94 234.166L257.011 327.759L261.703 474.782L242.659 489.214L222.408 490.228L220.31 394.99L220.517 303.131Z" fill="#B68A67"/>
<path d="M242.659 489.214L222.408 490.228L220.31 394.99L220.517 303.131L233.311 153.235L250.364 152.381M242.659 489.214L261.703 474.782L257.011 327.759L261.94 234.166M242.659 489.214L238.091 344.681L244.874 235.021M261.94 234.166L318.043 148.992L304.621 147.667M261.94 234.166L249.683 234.78M304.621 147.667L249.683 234.78M304.621 147.667L282.772 148.761L267.657 166.99M249.683 234.78L244.874 235.021M250.364 152.381L266.984 153.546L267.657 166.99M250.364 152.381L247.538 191.958M267.657 166.99L247.538 191.958M247.538 191.958L244.874 235.021" stroke="black" stroke-width="4"/>
<path d="M257.468 240.879L250.007 241.253L242.838 343.445L249.546 477.388L257.191 470.016L253.137 346.423L248.65 342.155L249.341 334.633L252.913 341.942L257.468 240.879Z" fill="#D5B87C"/>
<path d="M311.798 152.299L307.002 152.54L256.987 231.287L262.223 229.16L311.798 152.299Z" fill="#D5B87C"/>
<path d="M1221 297.5L1202 148H1186L1170.5 150V163.5L1155.5 146H1135L1122.5 148L1179 230.5L1188 324L1190.5 471.5L1209 485H1228L1225.5 389.5L1221 297.5Z" fill="#B68A67"/>
<path d="M1209 485H1228L1225.5 389.5L1221 297.5L1202 148H1186M1209 485L1190.5 471.5L1188 324L1179 230.5M1209 485L1206.5 340L1195.01 230.5M1179 230.5L1122.5 148L1135 146M1179 230.5H1190.5M1135 146L1190.5 230.5M1135 146H1155.5L1170.5 163.5M1190.5 230.5H1195.01M1186 148L1170.5 150V163.5M1186 148L1190.5 187.5M1170.5 163.5L1190.5 187.5M1190.5 187.5L1195.01 230.5" stroke="black" stroke-width="4"/>
<path d="M1183.5 237H1190.5L1202 339V473.5L1194.5 466.5L1192.5 342.5L1196.5 338L1195.5 330.5L1192.5 338L1183.5 237Z" fill="#D5B87C"/>
<path d="M1128.5 151H1133L1183.5 227.368L1178.5 225.5L1128.5 151Z" fill="#D5B87C"/>
<path d="M543 404.5V278L545 177H570.5L574 188.5V203.75L572.5 230.5V262.5L575.5 404.5H558H543Z" fill="#878779"/>
<path d="M630.5 173.5C617 186 592.7 210.9 591.5 212.5L590 220.5L591.5 222.5L642 172.5L630.5 173.5Z" fill="#878779"/>
<path d="M756.5 172C766.505 187.441 791.295 222.146 792.666 223.602L800.292 226.449L801.5 216.5L769.5 172L756.5 172Z" fill="#878779"/>
<path d="M819 409.5V283V172.5H845.5V192V213.5V236L849 323.5L851.5 409.5H834H819Z" fill="#878779"/>
<path d="M569.5 288.5V178L581.5 176L581 209.5L584.5 202.5V178L599 173.5L602 187.5L600.5 214.25L643.5 173.5H669L599 241V273L602 412.5L584.5 418L569.5 412.5V288.5Z" fill="#B68A67"/>
<path d="M599 241V273L602 412.5L584.5 418L569.5 412.5V288.5V178L581.5 176L581 209.5L584.5 202.5V178L599 173.5L602 187.5L600.5 214.25M599 241L669 173.5H643.5L600.5 214.25M599 241L600.5 214.25" stroke="black" stroke-width="4"/>
<path d="M644.5 180C631 192.5 603.7 220.9 602.5 222.5L609.5 219.5L602.5 232.5L655.5 180H644.5Z" fill="#D5B87C"/>
<path d="M573.5 409.312V181.5L577 180L578.5 216.5L586 209L589 181.5L594.5 180L590.5 296L597.5 409.312L587.5 414V335L584 414L573.5 409.312Z" fill="#D5B87C"/>
<path d="M827 286L821.5 171H812L808.5 173.5H801H794.5H786V186L788.5 215.5L753 171H727.5L788.5 251.5L790.5 279.5L794.5 410L812 415.5L827 410V286Z" fill="#B68A67"/>
<path d="M788.5 251.5L790.5 279.5L794.5 410L812 415.5L827 410V286L821.5 171H812L808.5 173.5H801H794.5H786V186L788.5 215.5M788.5 251.5L727.5 171H753L788.5 215.5M788.5 251.5V215.5" stroke="black" stroke-width="4"/>
<path d="M749.379 177.894C760.524 192.533 785.5 224.5 785.5 224.5L777.5 220L785.5 237.5L738.543 176L749.379 177.894Z" fill="#D5B87C"/>
<path d="M811.5 413L821.5 411V349.5V283L821 231.5L814.5 240.5V230L817.5 224.5V183L804 180.5V214.5V259.5L807 286L811.5 291.5H807L804 295L807 301L811.5 303L814.5 299L811.5 308.5L800.5 303L799 180.5L793.5 179L796.5 295L799 407.5L807 411L804 314L811.5 413Z" fill="#D5B87C"/>
<path d="M373.5 407V178.5L393.5 182L382.5 399.5L373.5 407Z" fill="#B68A67" stroke="black" stroke-width="4"/>
<path d="M476 188H405.5L382 408H476V188Z" fill="#878779"/>
<path fill-rule="evenodd" clip-rule="evenodd" d="M388 163.5L372 292.5L358.5 428L374.5 432.5L386 422.5L388 398.5H468V429.5L483.5 435L496 421L491.5 173L484.5 163.5H471L470.655 179.5H410.94L413.5 163.5H399H388ZM470.445 189.211L469.344 240.238L404.5 238L409 189.211H470.445ZM468 302.5L469.344 253L401.5 250.5L395.447 313H468V302.5ZM388 387L394.489 323.5H468V375.75V387H388Z" fill="#B68A67"/>
<path d="M374.5 432.5L358.5 428L372 292.5L388 163.5H399M374.5 432.5L385.5 292.5L399 163.5M374.5 432.5L386 422.5L388 398.5M399 163.5H413.5L410.94 179.5M404.5 238L409 189.211M404.5 238L397 242V246.5L401.5 250.5M404.5 238L469.344 240.238M388 387L394.489 323.5M388 387H468M388 387L383.5 390.5V397L388 398.5M483.5 435L468 429.5V398.5M483.5 435L482 302.5L484.5 163.5M483.5 435L496 421L491.5 173L484.5 163.5M484.5 163.5H471L470.655 179.5M410.94 179.5L405.5 181.5L404.5 186L409 189.211M410.94 179.5H470.655M470.445 189.211L470.655 179.5M470.445 189.211L469.344 240.238M470.445 189.211H409M469.344 240.238V253M469.344 253L468 302.5V313M469.344 253L401.5 250.5M468 313H395.447M468 313V323.5M395.447 313L401.5 250.5M395.447 313L390 315.5L389.5 320.5L394.489 323.5M394.489 323.5H468M468 323.5V375.75V387M468 387V391.5V398.5M468 398.5H388" stroke="black" stroke-width="4"/>
<path d="M396 237.5L401.5 192.5L406 191.5L401 234L396 237.5Z" fill="#D5B87C"/>
<path d="M388 311L394 258L396.5 251L392 309L388 311Z" fill="#D5B87C"/>
<path d="M382 383L386.5 327.5L388 331L384.5 381L382 383Z" fill="#D5B87C"/>
<path d="M1446.5 503L1440 550.5L1391 560L1401 520.5L1396.5 475.5L1374.1 444.5L1360.5 395L1364 303.5L1353.5 96L1379 90.5L1402.5 99.5L1415 300L1415 390L1440 457L1446.5 503Z" fill="#1B4558" stroke="black" stroke-width="5"/>
<path d="M1381.5 226L1387 340L1387 393L1404.5 439L1418 468.5L1428.5 522L1423.5 551L1404.5 554.5L1410 525L1403 474L1387 441.5L1370.5 393L1370.5 310.5L1367.5 228.5L1365 188L1362.27 163L1356.5 116L1367.5 110.5L1373 160.5L1376.5 185.5L1381.5 226Z" fill="#7A8B9A"/>
<path d="M601.5 406.5L603 385L636.5 371H680L723.5 374V417.5L710 424.5L684 434L605.5 428.5L601.5 406.5Z" fill="#E6E9C4"/>
<path d="M603 385L601.5 406.5L605.5 428.5L684 434M603 385L636.5 371H680L723.5 374M603 385H642.5L684 388M684 434L686 411.25L684 388M684 434L710 424.5L723.5 417.5V374M723.5 374L684 388" stroke="black" stroke-width="3"/>
<path d="M715.5 423.5V403L723.5 396L822.5 394L824.5 420L792 434.5L720 430L715.5 423.5Z" fill="#E6E9C4"/>
<path d="M715.5 403V423.5L720 430L792 434.5M715.5 403L792 406M715.5 403L723.5 396L822.5 394M792 434.5L824.5 420L822.5 394M792 434.5V406M822.5 394L815 403L810 406H792" stroke="black" stroke-width="3"/>
<path d="M720 403V373L740.5 361.5L819.5 365.5V392.5L803 404.5H762L720 403Z" fill="#E6E9C4"/>
<path d="M720 373V403L762 404.5H803M720 373L740.5 361.5L819.5 365.5M720 373L764.5 375H803M803 404.5L819.5 392.5V365.5M803 404.5V375M819.5 365.5L803 375" stroke="black" stroke-width="3"/>
<path d="M548.5 564.5L491.5 548.5C513 531.5 567.5 540.5 571.5 540.5C575.5 540.5 704.5 552.833 768.5 559L828.5 564.5C809.5 577.5 761 577.5 761 577.5H647.5C647.5 577.5 582.167 568.833 548.5 564.5Z" fill="#787878"/>
<path d="M475 506L436.5 529.5L457 536.5L491.5 545L528.5 553.5L571 561L627.5 567.5L687 573.5H744H828H886H935V550.5L926 517L922.5 485.5H889L839.5 492.5L768 496L692.5 492.5L627.5 485.5L539.5 473L513 492.5L475 506Z" fill="#B05A50" stroke="black" stroke-width="4"/>
<path d="M429.196 509.403L440.824 522.886L421.344 523.776L414.078 518.102L412.714 510.156L420.568 506.794L429.196 509.403Z" fill="#B05A50" stroke="black" stroke-width="3"/>
<path d="M451.075 499.105L456.252 514.685L439.453 508.792L435.266 501.424L436.861 494.119L444.674 493.91L451.075 499.105Z" fill="#B05A50" stroke="black" stroke-width="3"/>
<path d="M467.366 493.007L469.085 507.007L455.58 498.17L453.261 491.135L455.939 485.53L462.743 487.223L467.366 493.007Z" fill="#B05A50" stroke="black" stroke-width="3"/>
<path d="M482.555 486.885L481.648 500.811L470.348 491.019L469.412 483.903L472.993 478.599L479.189 480.816L482.555 486.885Z" fill="#B05A50" stroke="black" stroke-width="3"/>
<path d="M497.336 483.073L494.495 495.24L485.95 484.961L486.165 478.542L490.105 474.375L495.253 477.227L497.336 483.073Z" fill="#B05A50" stroke="black" stroke-width="3"/>
<path d="M509.851 480.587L505.957 490.727L499.81 480.985L500.758 475.497L504.649 472.343L508.749 475.345L509.851 480.587Z" fill="#B05A50" stroke="black" stroke-width="3"/>
<path d="M520.043 470.197L520.284 481.057L510.902 474.371L509.699 468.934L512.105 464.54L517.036 465.764L520.043 470.197Z" fill="#B05A50" stroke="black" stroke-width="3"/>
<path d="M529.514 462.167L531.439 472.075L521.753 467.338L519.793 462.537L521.319 458.159L526.05 458.552L529.514 462.167Z" fill="#B05A50" stroke="black" stroke-width="3"/>
<path d="M950.222 565.473L937.5 569.697L949.236 577.827L956.064 576.969L960.153 572.352L956.646 567.129L950.222 565.473Z" fill="#B05A50" stroke="black" stroke-width="3"/>
<path d="M949.912 547.861L937.5 552.939L949.77 559.907L956.528 558.548L960.295 553.757L956.438 548.968L949.912 547.861Z" fill="#B05A50" stroke="black" stroke-width="3"/>
<path d="M944.515 533.456L935.5 539.393L947.071 542.582L952.291 540.411L954.306 536.154L950.092 533.188L944.515 533.456Z" fill="#B05A50" stroke="black" stroke-width="3"/>
<path d="M941.358 521.728L933.629 529.095L944.716 530.581L949.328 527.598L950.739 522.985L946.506 520.617L941.358 521.728Z" fill="#B05A50" stroke="black" stroke-width="3"/>
<path d="M936.591 511.595L930.809 519.176L940.877 518.884L944.535 515.601L945.111 511.348L941.002 509.879L936.591 511.595Z" fill="#B05A50" stroke="black" stroke-width="3"/>
<path d="M932.121 503.382L928.025 510.552L936.643 509.185L939.409 505.952L939.414 502.225L935.714 501.415L932.121 503.382Z" fill="#B05A50" stroke="black" stroke-width="3"/>
<path d="M933.381 492.571L926.906 497.787L935.264 499.732L939.019 497.725L940.454 494.218L937.402 492.067L933.381 492.571Z" fill="#B05A50" stroke="black" stroke-width="3"/>
<path d="M933.6 483.327L926.885 487.133L934.246 490.208L937.986 488.937L939.829 485.929L937.358 483.48L933.6 483.327Z" fill="#B05A50" stroke="black" stroke-width="3"/>
<path d="M486.742 527.191C484.347 519.103 486.433 517.706 493 523C499.567 528.294 504.772 526.635 502.376 518.548C499.981 510.46 505.433 513.254 512 518.548C518.567 523.841 520.653 522.444 518.258 514.356C515.862 506.269 517.948 504.872 524.515 510.165C531.082 515.459 533.168 514.062 530.773 505.974C528.377 497.886 530.463 496.489 537.03 501.783C543.598 507.076 542.896 503.088 540.5 495C538.105 486.912 538.933 481.706 545.5 487C552.067 492.294 554.153 490.897 551.758 482.809" stroke="#E6E9C4" stroke-width="4"/>
<path d="M918.584 566.336C912.91 564.311 912.711 561.844 917.986 558.935C923.262 556.026 923.063 553.559 917.389 551.535C911.715 549.51 911.515 547.043 916.791 544.134C922.066 541.225 921.867 538.759 916.193 536.734C910.519 534.709 910.32 532.243 915.595 529.334C920.871 526.425 920.671 523.958 914.997 521.933C909.323 519.909 909.124 517.442 914.399 514.533C919.675 511.624 919.476 509.157 913.802 507.132C908.128 505.108 907.928 502.641 913.204 499.732C918.479 496.823 918.28 494.356 912.606 492.332" stroke="#E6E9C4" stroke-width="4"/>
<path opacity="0.3" d="M644.65 480.242L587.466 491.183L567.431 498.882L559.5 507.392L567.431 515.902L586.214 525.222L644.65 536.163L786.984 539L855.438 531.301L879.23 521.98L890.5 510.634L875.056 498.882L855.438 494.83L786.984 483.484L716.443 477L644.65 480.242Z" fill="#E6E9C4"/>
</svg>
