<svg width="1458" height="704" viewBox="0 0 1458 704" fill="none" xmlns="http://www.w3.org/2000/svg">
<path d="M0 704V0H1458V704H0Z" fill="#265952"/>
<path d="M10.5 96C21.8333 78 45.5 41.1 49.5 37.5L76.5 45.5L309 8L702 22L936 8L1075 22L1350 30.5L1418 45.5L1441.5 148V365.5V638.5L1336 652.5L1189 682L1093.5 675L797.5 682H444.5L23.5 638.5L10.5 593.5V409L23.5 192.5L10.5 96Z" fill="#CCC3AB"/>
<path d="M37.5 255L51.5 57.5L333 162H541H793.5H1115L1393.5 57.5L1416 382V618.5L1129 502L1062 510H682L324.5 502L175 559.5L28 618.5V433.5L37.5 255Z" fill="#B3DCEA"/>
<path d="M324.5 502L175 559.5L28 618.5V433.5L37.5 255L51.5 57.5L333 162M324.5 502L682 510H1062L1129 502M324.5 502L333 162M1129 502L1416 618.5V382L1393.5 57.5L1115 162M1129 502L1115 162M1115 162H793.5H541H333" stroke="black" stroke-width="3"/>
<path d="M334.5 162.5L52 54L327.5 35H738L1394.5 56L1117.5 162.5H334.5Z" fill="#C4CACA" stroke="black" stroke-width="3"/>
<path d="M308 493.5L33 619L366.5 650L820.5 659.5L1287.5 637L1411 617.5L1130 502L955.5 510.5H651.5L308 493.5Z" fill="#D9E9F3" stroke="black" stroke-width="3"/>
<path fill-rule="evenodd" clip-rule="evenodd" d="M288.5 488L291.5 483.5L290.5 478.5L281 485L258 487.5L228.5 488H197.5L168 487.5L157.5 485L163 477.5L174 471.5H194.5V441.5V399L189.5 371.5L182 363.5L174 357L154.5 355.717V358.5L149.5 361L144.5 358.5V355.059L136 355.717L126 357L116 361L111.5 373L119 375.5L128 378L136.5 379.5L145.5 380L148 487.5L159 493.5L183.5 498H221H258L282 494.5L288.5 488Z" fill="#F7F7F7"/>
<path d="M112.5 485L121 508.5L133.5 514.5L145.5 522L152.5 528L159 534.5L162 546.5L163 558V589L168 594.5L183 597L198.5 598L214.5 596.5L230 594.5L224 585L221 574.5V565V554.5L224 545.5L230 539.5L236.5 534.5L248.5 528L261 522L279 513L284.5 505.5L288.5 498V488L282 494.5L258 498H221H183.5L159 493.5L148 487.5L145.5 380L136.5 379.5L128 378L119 375.5L111.5 373L107 385L106 410L107 436L108.5 460.5L112.5 485Z" fill="#D9D9D9"/>
<path d="M290.5 478.5L272 473.5L243.5 471.5H216H194.5H174L163 477.5L157.5 485L168 487.5L197.5 488H228.5L258 487.5L281 485L290.5 478.5Z" fill="#916F5D"/>
<path d="M144.5 358.5L149.5 361L154.5 358.5V355.717V352.5H161.5L161 345.5L155.5 344.5L149 344L143 344.5L138.5 345.5L137.5 352.5H144.5V355.059V358.5Z" fill="#916F5D"/>
<path d="M288.5 488V498L284.5 505.5L279 513L261 522L248.5 528L236.5 534.5L230 539.5L224 545.5L221 554.5V565V574.5L224 585L230 594.5L214.5 596.5L198.5 598L183 597L168 594.5L163 589V558L162 546.5L159 534.5L152.5 528L145.5 522L133.5 514.5L121 508.5L112.5 485L108.5 460.5L107 436L106 410L107 385L111.5 373M288.5 488L282 494.5L258 498H221H183.5L159 493.5L148 487.5L145.5 380M288.5 488L291.5 483.5L290.5 478.5M290.5 478.5L272 473.5L243.5 471.5H216H194.5M290.5 478.5L281 485L258 487.5L228.5 488H197.5L168 487.5L157.5 485L163 477.5L174 471.5H194.5M194.5 471.5V441.5V399L189.5 371.5M189.5 371.5L178 372L166 374L155.5 376.5L145.5 380M189.5 371.5L182 363.5L174 357L154.5 355.717M145.5 380L136.5 379.5L128 378L119 375.5L111.5 373M111.5 373L116 361L126 357L136 355.717L144.5 355.059M154.5 358.5L149.5 361L144.5 358.5V355.059M154.5 358.5V355.717M154.5 358.5V352.5M154.5 352.5H161.5L161 345.5L155.5 344.5L149 344L143 344.5L138.5 345.5L137.5 352.5H144.5V355.059M154.5 352.5V355.717" stroke="black" stroke-width="3"/>
<g opacity="0.5">
<path d="M707.5 78.5H627.5L570.5 83.5L545 88L526.5 98.5L518 109L524.5 118.5L536.75 122L549 125.5L575 129.25L604.5 131L635 133H778.5H807.5H836.5L867 131L895.5 125.5L905 116L898 106L875.5 96L851 88L809.5 81L758.5 78.5H707.5Z" fill="#FBF9EA"/>
<path d="M650.5 560L611 563.5L580.5 567L558.5 571.5L537 583L528.5 598.5L541.5 616.5L573 629L614.5 633L660.5 636.5H739H836.5L880 633L922.5 626L943 616.5L957.5 603L955 590L943 580.5L896 567L853.5 560L810.5 557.5H724H688L650.5 560Z" fill="#FBF9EA"/>
</g>
<path fill-rule="evenodd" clip-rule="evenodd" d="M671.5 122.5L663.5 127.5L655.5 134L649 144L649.5 152.5L652.5 160.5L659 168.5L667 175L676.5 181L691.5 184L708 184.5L721.5 181L732 176.5L741 170L748 162.5L751 153.5V145L747.5 137L742 131L737.5 126L732 122.5H671.5Z" fill="#FFFFBF"/>
<path d="M671.5 114V122.5H732V114L723 110.5L709.5 108.5H692L678 110.5L671.5 114Z" fill="#C4CACA"/>
<path d="M671.5 122.5V114L678 110.5L692 108.5H709.5L723 110.5L732 114V122.5M671.5 122.5H732M671.5 122.5L663.5 127.5L655.5 134L649 144L649.5 152.5L652.5 160.5L659 168.5L667 175L676.5 181L691.5 184L708 184.5L721.5 181L732 176.5L741 170L748 162.5L751 153.5V145L747.5 137L742 131L737.5 126L732 122.5" stroke="black" stroke-width="3"/>
<path d="M799.5 395.5L802.5 387.5L811 381.5L823.5 377H849.5H885.5H909L918.5 381.5L925.5 391V403L920 406V434.5L916.5 469L912 498.5L906 522.5L889.5 527L864 530L838 527L823.5 522.5L817.5 502.5L812 474.5L810.5 450.5V432.5V413.5V405.24L802.5 403L799.5 395.5Z" fill="#CE904C"/>
<path d="M920 406L925.5 403V391L918.5 381.5L909 377H885.5H849.5H823.5L811 381.5L802.5 387.5L799.5 395.5L802.5 403L810.5 405.24M920 406L902.5 409H868.5L836 408L815 406.5L810.5 405.24M920 406V434.5L916.5 469L912 498.5L906 522.5L889.5 527L864 530L838 527L823.5 522.5L817.5 502.5L812 474.5L810.5 450.5V432.5V413.5V405.24" stroke="black" stroke-width="3"/>
<path d="M958.5 387V376.5L973.5 378L991.5 379H1007L1004.5 372L999 371L997 369.5L996.5 367.5L998.5 364.5L1001.5 363.5L1005.5 364L1009 365.5L1013 371L1015.5 378L1019.5 379V365.5L1018.5 363L1018 360V357.5L1019 354.5L1021 352.5L1023.5 352L1028 352.5L1030.5 353.5L1032.5 355L1033.5 357.5L1031 360.5L1027.5 361.5V379H1038.5H1089V387L1083 394.5L1068.5 402.5L1055.5 410.5L1042 417L1040.5 432.5V460.5L1042 487V497.5L1045.5 503.5L1047 511.5L1039.5 514.5L1031 516L1024 517L1017 515.5L1011.5 513.5L1007 510.5L1009 503.5L1013 497V480.5V448.5V423.5L1010.5 415.5L998 409L980 402.5L963.5 394.5L958.5 387Z" fill="#F7F7F7"/>
<path d="M1007 379H991.5L973.5 378L958.5 376.5V387L963.5 394.5L980 402.5L998 409L1010.5 415.5L1013 423.5V448.5V480.5V497L1009 503.5L1007 510.5L1011.5 513.5L1017 515.5L1024 517L1031 516L1039.5 514.5L1047 511.5L1045.5 503.5L1042 497.5V487L1040.5 460.5V432.5L1042 417L1055.5 410.5L1068.5 402.5L1083 394.5L1089 387V379H1038.5H1027.5M1007 379L1004.5 372L999 371L997 369.5L996.5 367.5L998.5 364.5L1001.5 363.5L1005.5 364L1009 365.5L1013 371L1015.5 378L1019.5 379M1007 379H1019.5M1019.5 379H1027.5M1019.5 379V365.5L1018.5 363L1018 360V357.5L1019 354.5L1021 352.5L1023.5 352L1028 352.5L1030.5 353.5L1032.5 355L1033.5 357.5L1031 360.5L1027.5 361.5M1027.5 361.5H1024M1027.5 361.5V379" stroke="black" stroke-width="3"/>
<path d="M1193.5 261.5C1193.1 260.3 1187.33 254.333 1184.5 251.5L1141 259V268.5L1156 267.188L1161.17 266.735L1181 265L1185.5 266.75L1190 268.5L1193.5 261.5Z" fill="#F7F7F7"/>
<path fill-rule="evenodd" clip-rule="evenodd" d="M1185.5 266.75L1195 314.5L1197 361L1190 355.5L1193.5 385.5L1181 406.5L1171 397L1167 341L1171 307.5L1181 265L1185.5 266.75ZM1161.17 266.735L1156 267.188L1144 335.5V355.5L1152.5 344.5L1150 379.5L1159.5 399L1167 392V376V341V323.5L1161.17 266.735Z" fill="#A1AB03"/>
<path d="M1181 265L1161.17 266.735M1181 265L1171 307.5L1167 341M1181 265L1185.5 266.75M1156 267.188L1141 268.5V259L1184.5 251.5C1187.33 254.333 1193.1 260.3 1193.5 261.5L1190 268.5L1185.5 266.75M1156 267.188L1144 335.5V355.5L1152.5 344.5L1150 379.5L1159.5 399L1167 392V376V341M1156 267.188L1161.17 266.735M1161.17 266.735L1167 323.5V341M1167 341L1171 397L1181 406.5L1193.5 385.5L1190 355.5L1197 361L1195 314.5L1185.5 266.75" stroke="#050505" stroke-width="3"/>
<path d="M1243 544.5L1250.5 548.5L1239.5 200.5L1229.42 204.5L1230.17 223.5L1230.92 242.5L1241.46 509L1243 544.5Z" fill="#D9D9D9"/>
<path d="M1309.5 176.5L1229 194L1229.42 204.5L1239.5 200.5L1310.4 196L1309.5 176.5Z" fill="#A7BFC7"/>
<path fill-rule="evenodd" clip-rule="evenodd" d="M1239.5 200.5L1310.4 196L1326.8 553L1250.5 548.5L1239.5 200.5Z" fill="#CFBAAE"/>
<path d="M1243 547.5L1329 583.5L1326.8 553L1250.5 548.5L1243 544.5V547.5Z" fill="#A7BFC7"/>
<path d="M1243 544.5V547.5L1329 583.5L1326.8 553M1243 544.5L1250.5 548.5M1243 544.5L1241.46 509M1250.5 548.5L1326.8 553M1250.5 548.5L1239.5 200.5M1326.8 553L1310.4 196M1239.5 200.5L1229.42 204.5M1239.5 200.5L1310.4 196M1229.42 204.5L1229 194L1309.5 176.5L1310.4 196M1229.42 204.5L1230.17 223.5M1241.46 509L1246 511V488H1241.46M1241.46 509L1230.92 242.5M1230.92 242.5L1236.5 246.5L1234.5 220.5L1230.17 223.5M1230.92 242.5L1230.17 223.5" stroke="#050505" stroke-width="3"/>
<path d="M450 543V542M456 545.5V544.5M458 540.5V539.5M462 545.5V544.5M464 540.5V539.5M468 545.5V544.5M471 540.5V539.5M475 545.5V544.5M478 540.5V539.5M482 543.5V542.5M444.5 539.5L450.5 537L461 536C463.167 536 468 536 468 536H477L484 536.5L489.5 540.5L492 543.5L490.5 546L487.5 548L481 549L470.5 549.5H460.5L449 548.5L442.5 545.5L441.5 542.5L444.5 539.5Z" stroke="#050505" stroke-width="3"/>
<g opacity="0.4">
<path d="M211 65.5L245.5 43.5L59 56L240 126L211 108.5L200.5 85L211 65.5Z" fill="#939292"/>
<path d="M82.5 374.5C90 371.333 113.5 364 113.5 364L109 374.5L104.5 386L105.5 428.5L110 482.5L120 511V540V584.5H144.5L162 589.5L167 596L182.5 598.5L151.5 608L94.5 617L127 626L39.5 619L44 596L54.5 562.5C54.5 562.5 61.5 536.167 65 527.5L71 482V417.5L82.5 374.5Z" fill="#939292"/>
<path d="M320.5 164L306.5 154L331 164H369.5L342.5 168L331 171.5L320.5 164Z" fill="#939292"/>
<path d="M1132.73 159.097C1132.84 159.051 1132.93 159.019 1133 159L1132.73 159.097C1130.59 160.043 1122.5 166.5 1122.5 166.5L1117 174.5L1116.5 165L1132.73 159.097Z" fill="#939292"/>
<path d="M1113.5 165H1092.5L1105 168.5L1114 174L1113.5 165Z" fill="#939292"/>
<path d="M1276.5 63.5L1255 53.5L1309.5 55L1384.5 58.5L1286 97L1288.5 91.5L1286 81L1276.5 63.5Z" fill="#939292"/>
<path d="M1338.5 598.5L1333 587L1405 616L1392.5 619L1325 629L1305.5 633L1283.5 635L1307 627.5L1327 620L1338.5 612V598.5Z" fill="#939292"/>
<path d="M1165.5 290.5L1163 268.5L1179 266.5L1166.5 271.5L1170.5 303L1168 318L1165.5 290.5Z" fill="#939292"/>
<path d="M1196 271.5L1197.5 266L1195 261.5L1191 270H1187.5L1190 280L1196 313L1197.5 328L1196 291.5L1193 280L1191 272.5L1196 271.5Z" fill="#939292"/>
<path d="M1199.5 368L1198.5 364L1192 358.5L1195 385.5L1183.5 406L1185.5 407.5L1198.5 388.5L1196 366L1199.5 368Z" fill="#939292"/>
<path d="M1163 404L1159 401L1163 398L1168 392.5V385.5L1170 398L1163 404Z" fill="#939292"/>
<path d="M931 519.5L907.5 523L914 498.5L919.5 452L921.5 434V407L927 404V390.5L919.5 380.5L912 377L939.5 379.5L946 401L939.5 407.5V457.5L935 499.5L931 519.5Z" fill="#939292"/>
<path d="M1049 512.5L1041 515.5L1053 516L1055.5 512V508L1053.5 501.5L1050 495.5L1048 460.5V441L1049 422.5L1073 411L1095.5 398L1097.5 392L1098 385.5L1094.5 380.5L1090.5 377.5V387L1084 395.5L1043.5 418L1042 432V459L1043.5 497.5L1047 503L1049 512.5Z" fill="#939292"/>
<path d="M346.5 548L255 526.5L280 514.5L286.5 505L307.5 495L572 508L557.5 530.5L541 546L519.5 557.5H435.5L346.5 548Z" fill="#939292"/>
</g>
</svg>
