<svg width="1457" height="680" viewBox="0 0 1457 680" fill="none" xmlns="http://www.w3.org/2000/svg">
<path d="M0 680V0L1457 6V680H0Z" fill="#255952"/>
<path d="M15.5 195L33 44H210.5L311 24L332.5 38L446 31H741.5L806.5 10.5L945 31L1377.5 44L1406 229.5L1388.5 243.5V584.5L1377.5 617.5L1129.5 623.5L1108 636.5L955.5 629.5L894 646L857.5 629.5L503.5 636.5L25 609L15.5 565.5V445L7 371.5L15.5 195Z" fill="#C4C0BB"/>
<path d="M267 168L42.5 70L448 54.5H754.5L1360 70L1218 138.5L838.5 125.5L811 168H267Z" fill="#6978B7" stroke="black" stroke-width="3"/>
<path d="M273 510L43.5 591.5L876.5 604.5L888 618.5H1114L1105.5 604.5L1361.5 601L1219 538H831.5L809 510H273Z" fill="#607489" stroke="black" stroke-width="3"/>
<path d="M43.5 71L271 169H811L838.5 125.5L1220.5 135L1361 71L1374 325.5L1361 599.5L1212 540.5H831.5L817 513.5H271L43.5 589L34 338.5L43.5 71Z" fill="#486E98"/>
<path d="M271 169L43.5 71L34 338.5L43.5 589L271 513.5M271 169H811M271 169V513.5M811 169L838.5 125.5M811 169L817 513.5M838.5 125.5L1220.5 135M838.5 125.5V226M1220.5 135L1361 71L1374 325.5L1361 599.5L1212 540.5M1220.5 135V226M1212 540.5L1201.5 226H1220.5M1212 540.5H831.5M1220.5 226H838.5M838.5 226L831.5 540.5M831.5 540.5L817 513.5M817 513.5H271" stroke="black" stroke-width="3"/>
<g opacity="0.7">
<path d="M53.5 416L38.5 428L45 587L150.5 552V491.5H145.5V457L161 453.5L153.5 442.5L136.5 423.5L112 412.5L80.5 410.5L53.5 416Z" fill="#BFA665"/>
<path d="M148.5 489V460H229L233.5 464L236.5 470L237 476.5L236 483.5L234 489H171.5V558.5H153.5V488.5L148.5 489Z" fill="#BFA665"/>
<path d="M158 592L167 587L172.5 581.5L176 575.5L177 567.5L174.5 561.5H150.5V555L52.5 590L158 592Z" fill="#BFA665"/>
</g>
<path opacity="0.7" d="M1046 616.5L949.5 542H1175.5V580L1214 602L1102.5 603L1111.5 617L1046 616.5Z" fill="#DBDAB9"/>
<g opacity="0.4">
<path d="M142 114.011L159.5 121.5L128 115.5H97L70 119.5L51 136.5L42 154L45 72.5L142 114.011L48.5 72.5L193 66L155.5 72.5L134 77.5L128 92L134 102.5L142 114.011Z" fill="#3F454D"/>
<path d="M249 161L271 170H292L280 179L271 188V230L264.5 200L259.5 179L255 171.5L249 161Z" fill="#3F454D"/>
<path d="M272.5 515.5L174 547V561L332 559L362 547V515.5H272.5Z" fill="#3F454D"/>
<path d="M418 515.5L387.5 535.5V515.5H418Z" fill="#3F454D"/>
<path d="M528 518.5L467 515.5H602L596 518.5H528Z" fill="#3F454D"/>
<path d="M667 485.5L684.5 464H698H719.5H736.5L776 458L795.5 452.5L813.5 383L816.5 499L832 524.5L830.5 535L815 515.5L811.5 512H792H774H736.5H719.5H698H684.5H646V505L667 485.5Z" fill="#3F454D"/>
<path d="M948 539.5L912.5 484L1145.5 482H1160L1160.5 510L1160 539L948 539.5Z" fill="#3F454D"/>
<path d="M1175 571V580.5L1198.5 594L1212.5 602L1354 600L1333.5 591.122L1323.5 587L1313 583L1277 568.5V573.5H1265.5L1259.5 573L1242.5 571.941H1234.5H1223L1188 571H1175Z" fill="#3F454D"/>
<path d="M1350 402L1368.5 401L1363.5 515L1359.16 597.5L1342.5 591.122L1333.5 587.5L1313.04 579.5L1277 565V562.5L1312 561.5L1333.5 561L1335 402H1350Z" fill="#3F454D"/>
<path d="M1221.5 228H1202.5L1205 289.5L1212 282.5L1223.5 276L1221.5 228Z" fill="#3F454D"/>
<path d="M1365 149.5L1361 73.5L1280.5 110L1297 107.5H1314.5H1337L1351 114.5L1361 127.5L1365 149.5Z" fill="#3F454D"/>
<path d="M1273 69.5L1355 71.5L1271.5 111L1279.5 102L1285 91.5L1283 79L1273 69.5Z" fill="#3F454D"/>
<path d="M1229 138.5L1237 129.5L1221.5 136V168L1229 138.5Z" fill="#3F454D"/>
<path d="M1218.5 161V137L1201 136L1208 138.5L1216 146L1218.5 161Z" fill="#3F454D"/>
<path d="M1220 134L1254 119L1238.5 123L1221 128L1205 129.5L1153 132L1220 134Z" fill="#3F454D"/>
<path d="M812.853 234.5L813 241.5L807 227L804.5 209.5V193L801.5 184.5L791 176L782.5 170H811.5L831.5 139L828 152.5L824.5 161.5L822 170L819.5 184.5L812.853 234.5Z" fill="#3F454D"/>
<path d="M811.5 166.5L830 139L818 145.5L808.5 152.5L797.5 157.5L782 166.5H811.5Z" fill="#3F454D"/>
<path d="M839.5 234.5V227.5H879.5L878 234.5H839.5Z" fill="#3F454D"/>
</g>
<path d="M461 512.5V461L445 467.422V512.5H461Z" fill="#81622E"/>
<path fill-rule="evenodd" clip-rule="evenodd" d="M152 560V490.5H147V458.5H380H387.5L467 429V509L461 512.5V461L445 467.422L387.5 490.5L385 564H380H362V490.5H173V560H152Z" fill="#B2863F"/>
<path d="M387.5 458.5L467 429L272.5 427L147 458.5H380H387.5Z" fill="#D2E9E7"/>
<path d="M387.5 490.5L385 564H380M387.5 490.5L445 467.422M387.5 490.5V458.5M461 512.5V461L445 467.422M461 512.5H445V467.422M461 512.5L467 509V429M467 429L387.5 458.5M467 429L272.5 427L147 458.5M387.5 458.5H380M380 458.5V564M380 458.5H147M380 564H362V490.5H173V560H152V490.5H147V458.5" stroke="black" stroke-width="3"/>
<path d="M241 436L229 441.5L233.5 444.5H241L250 441.5L258.5 437L279.5 431.5H286L290 436L291.5 442.5L292.5 449L298 452.5H309.5L314 449L349.5 437L352 442.5V449L362 450L378 451L405 449L427 446.5L439.5 441.5L442.5 433L438 426.5L424 425H414L410 421.5L405 414.5L399 404L388 395.5L375.5 389.5L363.5 387.5L353 388.5L342 391L335.5 393L318 400L305 408V414.5L279.5 423L251 431.5L241 436Z" fill="#423D81" stroke="black" stroke-width="3"/>
<path d="M327.5 389.5L333.5 390.5L332.5 393L330.5 394L333.5 396L333 397.5L332 399.5H328L330 401L331.5 402L330.5 404.5L329 405.5L326 405L323.5 404L325.5 406L326.5 408L323.5 409L317.5 406.5L314 402.5V398.5L315.5 394L318 391C319.167 390.667 322 390 322 390L327.5 389.5Z" fill="#BC9166"/>
<path d="M314 441L317 436.5L321 433L326.5 428.5L330.5 422.5L333.5 417L337 413L341 408L344.5 405.5L347.5 404V399.5L350.5 395.5L353.5 393.5L358 394L360.5 396.5V401L358 404L362 403.5L364.5 407L362 409.5L365.5 410.5L366 414L363 415.5L367.5 417L366.5 420L363.5 420.5L366 423.5L363.5 426L360.5 425H358.5L355.5 430L350.5 434.5L347.5 438L349.5 438.5L351.5 443L349 445.5L341 448.5L333.5 449.5L329.5 451.5L324.5 452L319 451.5L315 448.5L313.5 444.5L314 441Z" fill="#BC9166"/>
<path fill-rule="evenodd" clip-rule="evenodd" d="M403 398.5L408.5 394L412.5 387.5V380L408.5 372.5L407.5 380L404.5 373.5L398.5 367.5L389 366L383.5 367.5L381 373.5L378.5 378L376.5 373.5H372L370 378L372 381.5L370 383.5L367.5 387.5L374 389.5L378.5 391L385 394L392.5 398.5L398.5 402.5L403 398.5Z" fill="#BC9166"/>
<path d="M367.5 387.5L370 383.5L372 381.5L370 378L372 373.5H376.5L378.5 378L381 373.5L383.5 367.5L389 366L398.5 367.5L404.5 373.5L407.5 380L408.5 372.5L412.5 380V387.5L408.5 394L420.5 397.5L421.5 391L424.5 396L428 389.5V384.5L426 378L424.5 371L429 372.5L426 364L421.5 356.5L414.5 350H406L408.5 346L403 343H395.5L387.5 346L381 350L378.5 346L374 350L367.5 355L364.5 361.5L361.5 363V372.5L364.5 381.5L367.5 387.5Z" fill="#6B352E"/>
<path d="M271 397L272 392.5L271 386.5L266 382.5L261 383.5L260 389L261 392.5L258 390H255L254 394L250.5 395.5V398.5L247 399L246.5 402.5L247.625 404L245 405L244.5 408L247.625 409.5L250 410L251 411.5V418L254 426L258 434.5L261 442L262.5 447L266 450.5L272 451.5L279.5 452L283 448V443L281.5 436.5L279 430L278.5 421L276.5 411.5L275 404.5L272 399L271 397Z" fill="#BC9166"/>
<path d="M281.5 436.5L283 443L290 439.5L289 435.5L285.5 431.5L281.5 430.5L279 430L281.5 436.5Z" fill="#BC9166"/>
<path d="M367.5 387.5L370 383.5L372 381.5L370 378L372 373.5H376.5L378.5 378L381 373.5L383.5 367.5L389 366L398.5 367.5L404.5 373.5L407.5 380L408.5 372.5L412.5 380V387.5L408.5 394M367.5 387.5L374 389.5L378.5 391L385 394L392.5 398.5L398.5 402.5L403 398.5L408.5 394M367.5 387.5L364.5 381.5L361.5 372.5V363L364.5 361.5L367.5 355L374 350L378.5 346L381 350L387.5 346L395.5 343H403L408.5 346L406 350H414.5L421.5 356.5L426 364L429 372.5L424.5 371L426 378L428 384.5V389.5L424.5 396L421.5 391L420.5 397.5L408.5 394M327.5 389.5L333.5 390.5L332.5 393L330.5 394L333.5 396L333 397.5L332 399.5H328L330 401L331.5 402L330.5 404.5L329 405.5L326 405L323.5 404L325.5 406L326.5 408L323.5 409L317.5 406.5L314 402.5V398.5L315.5 394L318 391C319.167 390.667 322 390 322 390M327.5 389.5C327.673 389.529 322 390 322 390M327.5 389.5L322 390M358 404L360.5 401V396.5L358 394L353.5 393.5L350.5 395.5L347.5 399.5V404L344.5 405.5L341 408L337 413L333.5 417L330.5 422.5L326.5 428.5L321 433L317 436.5L314 441L313.5 444.5L315 448.5L319 451.5L324.5 452L329.5 451.5L333.5 449.5M358 404L355.5 406L353.5 407M358 404L362 403.5L364.5 407L362 409.5M362 409.5L357 412M362 409.5L365.5 410.5L366 414L363 415.5M363 415.5L360 416.5M363 415.5L367.5 417L366.5 420L363.5 420.5M363.5 420.5H360.5M363.5 420.5L366 423.5L363.5 426L360.5 425H358.5L355.5 430L350.5 434.5L347.5 438M347.5 438L342 442L338 445.5L333.5 449.5M347.5 438L349.5 438.5L351.5 443L349 445.5L341 448.5L333.5 449.5M261 392.5L260 389L261 383.5L266 382.5L271 386.5L272 392.5L271 397L272 399L275 404.5L276.5 411.5L278.5 421L279 430M261 392.5L262.5 394.5M261 392.5L258 390H255L254 394M254 394L256.5 397L258.5 399M254 394L250.5 395.5V398.5M250.5 398.5L253 401.5M250.5 398.5L247 399L246.5 402.5L247.625 404M250.5 405.5L247.625 404M247.625 404L245 405L244.5 408L247.625 409.5L250 410L251 411.5V418L254 426L258 434.5L261 442L262.5 447L266 450.5L272 451.5L279.5 452L283 448V443M283 443L281.5 436.5L279 430M283 443L290 439.5L289 435.5L285.5 431.5L281.5 430.5L279 430M374 376.5L372.5 377.5M390 379H393L395 381.5L396 383.5M401.5 387.5L404.5 388L406 390L407.5 392M401 390.5L403 393M390 382.5L393 385.5M393 392L394 392.5M396.5 394L397 395" stroke="black" stroke-width="3"/>
<path d="M335.5 383L337 391L342 389.5L347.5 388.5L354.5 387L361.5 386.5L367.5 387L364 380L358 379.5H351L344.5 380L339.5 381L335.5 383Z" fill="#D2E9E7"/>
<path fill-rule="evenodd" clip-rule="evenodd" d="M417 396.5L409 394.5L404 399.5L399 404L401.5 409L404 415.5L407.5 421L414 424.5L415 421L419.5 415.5L423.5 411.5L430 410.5H437.5L436 407.5L430.5 403L424 399.5L417 396.5Z" fill="#D2E9E7"/>
<path d="M437.5 410.5H430L423.5 411.5L419.5 415.5L415 421L414 424.5L419.5 426.5L425 427H430L436 426.5L434 421V415.5L437.5 410.5Z" fill="#93A4A2"/>
<path d="M437.5 410.5L436 407.5L430.5 403L424 399.5L417 396.5L409 394.5L404 399.5L399 404L401.5 409L404 415.5L407.5 421L414 424.5M437.5 410.5H430L423.5 411.5L419.5 415.5L415 421L414 424.5M437.5 410.5L434 415.5V421L436 426.5L430 427H425L419.5 426.5L414 424.5M337 391L335.5 383L339.5 381L344.5 380L351 379.5H358L364 380L367.5 387L361.5 386.5L354.5 387L347.5 388.5L342 389.5L337 391Z" stroke="black" stroke-width="3"/>
<path d="M92.3555 216C92.3555 216 91.5555 158.1 92.3555 156.5L203.356 170.5V228L199.356 311.5L197.856 376.5L141.356 383.5H97.3555L92.3555 290V216Z" fill="#A8ABA7" stroke="black" stroke-width="3"/>
<path d="M145.018 270.5L137.518 265V271.5L136.518 277L132.355 280.5L128.018 284.5L123.518 287.5L117.018 290.5V283L121.018 280.5L124.355 278L128.355 272L132.018 266L127.355 265.5L123.518 269L120 271.5L119.018 268L120 259.5L121.018 254L119.018 253.5L113.855 264.5L111.855 253.5H110.018L107.518 263.5L105.518 256.5L103.518 257L102.5 265.5L103.518 273.5L107.518 280.5V287.5L106.855 304L105.518 327L112.518 337.5L122.046 328.705L122.152 327.802L123.518 316.111L124.641 306.5L125.518 299L123.518 316.111V319.5L122.268 328.5L121.018 337.5V351.421C128.497 351.65 136.437 351.862 142.018 352L165.518 347.881L175.518 346.129V340.5V324L173.518 301.5L171.355 293.5L164.855 287.5L157.018 284L153.518 278.5V270.5H145.018Z" fill="#7A9C37"/>
<path fill-rule="evenodd" clip-rule="evenodd" d="M133.018 213L128.855 219L125.518 225L124.855 232L125.518 239.5L126.355 246.5L128.018 253.5L132.355 259.5L137.518 265L145.018 270.5H153.518L161.518 265L164.855 257L167.018 249L168.692 241.207L167.028 241.915L163.518 242.5L159.018 241L156.018 237V233L159.018 228L162.018 227L165.355 226.5L169.518 227V221.5L166.018 216.5L161.518 213L158.355 219.5H155.018L156.018 214.5L157.018 211.312L153.518 210H148.018L149.018 214.5V219.5H146.018L143.018 211L133.018 213ZM133.018 225L136.518 223H140.518L143.518 225L146.518 228L147.518 233.5L146.018 238.5L142.018 241H136.518L132.018 238.5L130.518 235V229.5L133.018 225Z" fill="#7A9C37"/>
<path d="M159.018 228L156.018 233V237L159.018 241L163.518 242.5L167.028 241.915L168.692 241.207L170.355 240.5L173.018 237V232L171.018 228.5L169.518 227L165.355 226.5L162.018 227L159.018 228Z" fill="#D9D9A2"/>
<path d="M136.518 223L133.018 225L130.518 229.5V235L132.018 238.5L136.518 241H142.018L146.018 238.5L147.518 233.5L146.518 228L143.518 225L140.518 223H136.518Z" fill="#D9D9A2"/>
<path d="M156.018 214.5L155.018 219.5H158.355L161.518 213L164.518 208.5L168.764 203L179.018 198L185.518 196L190.855 195L192.855 192.5L190.518 191L185.518 192L178.518 194L171.018 196.5L164.518 200L159.518 207L157.018 211.312L156.018 214.5Z" fill="#D9D9A2"/>
<path fill-rule="evenodd" clip-rule="evenodd" d="M100.018 243.5L103.518 165.5L150.018 171.5L195.855 178.5L192.518 268L190.518 343.5L175.518 346.129V340.5V324L173.518 301.5L171.355 293.5L164.855 287.5L157.018 284L153.518 278.5V270.5L161.518 265L164.855 257L167.018 249L168.692 241.207L170.355 240.5L173.018 237V232L171.018 228.5L169.518 227V221.5L166.018 216.5L161.518 213L164.518 208.5L168.764 203L179.018 198L185.518 196L190.855 195L192.855 192.5L190.518 191L185.518 192L178.518 194L171.018 196.5L164.518 200L159.518 207L157.018 211.312L153.518 210H148.018L145.518 201.5L140.018 196L132.018 190.5L124.518 186.5L117.018 183.5L114.855 184.5L115.355 187L121.355 189L128.855 192.5L135.355 197.5L141.018 204L143.018 211L133.018 213L128.855 219L125.518 225L124.855 232L125.518 239.5L126.355 246.5L128.018 253.5L132.355 259.5L137.518 265V271.5L136.518 277L132.355 280.5L128.018 284.5L123.518 287.5L117.018 290.5V283L121.018 280.5L124.355 278L128.355 272L132.018 266L127.355 265.5L123.518 269L120 271.5L119.018 268L120 259.5L121.018 254L119.018 253.5L113.855 264.5L111.855 253.5H110.018L107.518 263.5L105.518 256.5L103.518 257L102.5 265.5L103.518 273.5L107.518 280.5V287.5L106.855 304L105.518 327L112.518 337.5L122.046 328.705L122.152 327.802L123.518 316.111V319.5L122.268 328.5L121.018 337.5V351.421C110.406 351.095 100.722 350.735 100.018 350.5C98.8181 350.1 99.5181 279 100.018 243.5Z" fill="#9C5833"/>
<path d="M149.018 219.5V214.5L148.018 210L145.518 201.5L140.018 196L132.018 190.5L124.518 186.5L117.018 183.5L114.855 184.5L115.355 187L121.355 189L128.855 192.5L135.355 197.5L141.018 204L143.018 211L146.018 219.5H149.018Z" fill="#D9D9A2"/>
<path d="M148.018 210H153.518L157.018 211.312M148.018 210L149.018 214.5V219.5H146.018L143.018 211M148.018 210L145.518 201.5L140.018 196L132.018 190.5L124.518 186.5L117.018 183.5L114.855 184.5L115.355 187L121.355 189L128.855 192.5L135.355 197.5L141.018 204L143.018 211M137.518 265L145.018 270.5H153.518M137.518 265L132.355 259.5L128.018 253.5L126.355 246.5L125.518 239.5L124.855 232L125.518 225L128.855 219L133.018 213L143.018 211M137.518 265V271.5L136.518 277L132.355 280.5L128.018 284.5L123.518 287.5L117.018 290.5V283L121.018 280.5L124.355 278L128.355 272L132.018 266L127.355 265.5L123.518 269L120 271.5L119.018 268L120 259.5L121.018 254L119.018 253.5L113.855 264.5L111.855 253.5H110.018L107.518 263.5L105.518 256.5L103.518 257L102.5 265.5L103.518 273.5L107.518 280.5V287.5L106.855 304L105.518 327L112.518 337.5L122.046 328.705M153.518 270.5L161.518 265L164.855 257L167.018 249L168.692 241.207M153.518 270.5V278.5L157.018 284L164.855 287.5L171.355 293.5L173.518 301.5L175.518 324V340.5V346.129M168.692 241.207L167.028 241.915M168.692 241.207L170.355 240.5M161.518 213L164.518 208.5L168.764 203L179.018 198L185.518 196L190.855 195L192.855 192.5L190.518 191L185.518 192L178.518 194L171.018 196.5L164.518 200L159.518 207L157.018 211.312M161.518 213L158.355 219.5H155.018L156.018 214.5L157.018 211.312M161.518 213L166.018 216.5L169.518 221.5V227M175.518 346.129L190.518 343.5L192.518 268L195.855 178.5L150.018 171.5L103.518 165.5L100.018 243.5C99.5181 279 98.8181 350.1 100.018 350.5C100.722 350.735 110.406 351.095 121.018 351.421M175.518 346.129L165.518 347.881M165.518 347.881L142.018 352C136.437 351.862 128.497 351.65 121.018 351.421M165.518 347.881V333.5L163.518 315L161.518 299M121.018 351.421V337.5M121.018 337.5L122.268 328.5M121.018 337.5L122.046 328.705M122.268 328.5L123.518 319.5V316.111M122.268 328.5L122.152 327.802M122.268 328.5L122.046 328.705M117.018 296.5L119.018 309L122.152 327.802M170.355 240.5L173.018 237V232L171.018 228.5L169.518 227M170.355 240.5L167.028 241.915M149.018 243.5L151.518 243L153.518 243.5M141.018 253L144.018 254.5H146.855L149.018 253L151.518 251L154.518 253.5L157.018 254.5L158.855 255M123.518 316.111L125.518 299L124.641 306.5L123.518 316.111ZM123.518 316.111L122.152 327.802M122.152 327.802L122.046 328.705M167.028 241.915L163.518 242.5L159.018 241L156.018 237V233L159.018 228L162.018 227L165.355 226.5L169.518 227M167.5 229.5L163 230L160 232.5V236L161.518 239L165.355 239.5L168.692 238.5L169.518 235L168 233H165.355L163.518 234V236L164.855 237M138.5 226.5L134.5 228.5L133.018 231V235L136.518 237.5L140 238.5L143.018 237L144.018 234C144.018 233 144.018 230.9 144.018 230.5C144.018 230.1 142.685 229.667 142.018 229.5H138.5L136.518 231V234L139 235.5L141.018 234M136.518 223L133.018 225L130.518 229.5V235L132.018 238.5L136.518 241H142.018L146.018 238.5L147.518 233.5L146.518 228L143.518 225L140.518 223H136.518Z" stroke="black" stroke-width="2"/>
<path d="M96.9999 513.5H79.4999V526.75L79.9999 525.5L84.4999 521H94.9999L96.9999 522.143V513.5Z" fill="#726B65"/>
<path fill-rule="evenodd" clip-rule="evenodd" d="M96.9999 522.143L98.4999 523L101 528L102.5 535V544.5L99.4999 552.5L96.9999 555L95.4999 556.5L84.4999 556L79.4999 551L76.9999 548.5V540.5V533L79.4999 526.75L79.9999 525.5L84.4999 521H94.9999L96.9999 522.143Z" fill="#FDB46C"/>
<path d="M79.4999 561.5H96.9999V555L95.4999 556.5L84.4999 556L79.4999 551V561.5Z" fill="#726B65"/>
<path d="M94.9999 521L89.9999 525.5L87.4999 532L86.9999 540.5L87.9999 549.5L90.9999 554L95.4999 556.5M94.9999 521H84.4999L79.9999 525.5L79.4999 526.75M94.9999 521L96.9999 522.143M95.4999 556.5L84.4999 556L79.4999 551M95.4999 556.5L96.9999 555M96.9999 522.143L98.4999 523L101 528L102.5 535V544.5L99.4999 552.5L96.9999 555M96.9999 522.143V513.5H79.4999V526.75M96.9999 555V561.5H79.4999V551M79.4999 526.75L76.9999 533V540.5V548.5L79.4999 551" stroke="black" stroke-width="3"/>
</svg>
