<svg width="1465" height="751" viewBox="0 0 1465 751" fill="none" xmlns="http://www.w3.org/2000/svg">
<path d="M0.5 751V0H1465V751H0.5Z" fill="#4C7570"/>
<path d="M9 72.5L42.5 54L254 18.5L444 42L731 29L1314 42L1406.5 54L1436.5 242V665.5H1374.5L1223.5 709L1026.5 699L647 709L20.5 665.5V640V354.5L30.5 227L9 72.5Z" fill="#C1B798"/>
<path d="M350 191.5L62 79.5L694.5 64.5L1399 89.5L1123 191.5H350Z" fill="#B0BDC1" stroke="black" stroke-width="3"/>
<path d="M313 529.5L36 643L236.5 669L783 690L1419 653L1133.5 526L313 529.5Z" fill="#90B0A5" stroke="black" stroke-width="3"/>
<path d="M39.5 347L63 80.5L350 190.5H549H793H1122.5L1257 142.5L1398.5 90.5L1419.5 400V652L1213.5 560.5L1133.5 526C1085.83 526 989.5 528 985.5 536C981.5 544 716.5 539.333 584.5 536L320.5 526L32 643L39.5 347Z" fill="#BCB6BE"/>
<path d="M1133.5 526C1085.83 526 989.5 528 985.5 536C981.5 544 716.5 539.333 584.5 536L320.5 526L32 643L39.5 347L63 80.5L350 190.5H549H793H1122.5M1133.5 526L1213.5 560.5L1419.5 652V400L1398.5 90.5L1257 142.5L1122.5 190.5M1133.5 526L1122.5 190.5" stroke="black" stroke-width="3"/>
<path opacity="0.3" d="M1013.39 133C1016.99 131.8 1045.67 124 1058 122H1094L1133.89 125.5L1176.39 143L1205.89 173L1221.89 204.5V232.5L1209.5 237L1226 569L1134.5 527L1134 531L1131.5 534.5L1125 539L1116.5 539.5L1105 540L1094 539.5L1074 538L1052 535.5L1029 529L967 408.5L955.389 374.5C951.222 359.833 946.5 326 946.5 326L943.5 293V261.5L946.5 232.5L955.389 204.5C955.389 204.5 968.056 177 972.889 165.5C984.889 155.167 1009.79 134.2 1013.39 133Z" fill="#FFF7F7"/>
<path fill-rule="evenodd" clip-rule="evenodd" d="M108.5 149.5H96L92 228.5H103.5L122.5 231.799L215 247.859L232.5 250.793L224.785 466.024V473.5L211.5 468.989L120 490V521.5H155L265.5 490V468.989L238 463L243.5 252.636L279.5 260L283 205L108.5 149.5Z" fill="#C8C6C8"/>
<path d="M232.5 250.793L215 247.859L211.5 468.989L224.785 473.5V466.024L232.5 250.793Z" fill="#A09FA0"/>
<path d="M120 490L211.5 468.989L215 247.859L122.5 231.799L120 490Z" fill="#ABCDE6"/>
<path d="M108.5 149.5H96L92 228.5H103.5M108.5 149.5L283 205L279.5 260L243.5 252.636M108.5 149.5L103.5 228.5M103.5 228.5L122.5 231.799M215 247.859L232.5 250.793M215 247.859L211.5 468.989M215 247.859L122.5 231.799M232.5 250.793L243.5 252.636M232.5 250.793L224.785 466.024V473.5M243.5 252.636L238 463M238 463L265.5 468.989M238 463V468.989L224.785 473.5M265.5 468.989V490L155 521.5M265.5 468.989L155 496M155 521.5V496M155 521.5H120V490M155 496L120 490M120 490L211.5 468.989M120 490L122.5 231.799M211.5 468.989L224.785 473.5" stroke="black" stroke-width="3"/>
<path d="M256 511.5L263 491.5L237.5 497.5V515.5L246.5 517L256 511.5Z" fill="#F8D2C1"/>
<path fill-rule="evenodd" clip-rule="evenodd" d="M155.5 238L109 229.5L107 246.5L103 284.5V338.5V384.5V416.5H123L138 396L149.5 372L154 346.5L155.5 322L157.5 300.5L159 278V256.5L155.5 238ZM123 426.5H103L92 451.5L88 483.5V531L92 568.5L111 574L131.5 568.5L134.5 538V508L131.5 477.5L126 447.5L123 426.5Z" fill="#F8D2C1"/>
<path d="M123 426.5L124 421.5L123 416.5H103L102 421.5L103 426.5H123Z" fill="#706560"/>
<path fill-rule="evenodd" clip-rule="evenodd" d="M244 254L242 300.5L237.5 390H249L259 374L263 360.5L271 335.5L273.5 314V294.5L271 259L244 254ZM251.205 401.5H237.5V430.5L239.5 462L265.5 468.5L263 447.5L259 426.5L256 413L251.205 401.5Z" fill="#F8D2C1"/>
<path d="M249 390H237.5V401.5H251.205L252 395L249 390Z" fill="#706560"/>
<path d="M123 416.5H103M123 416.5L138 396L149.5 372L154 346.5L155.5 322L157.5 300.5L159 278V256.5L155.5 238L109 229.5L107 246.5L103 284.5V338.5V384.5V416.5M123 416.5L124 421.5L123 426.5M123 426.5H103M123 426.5L126 447.5L131.5 477.5L134.5 508V538L131.5 568.5L111 574L92 568.5L88 531V483.5L92 451.5L103 426.5M103 426.5L102 421.5L103 416.5M237.5 390L242 300.5L244 254L271 259L273.5 294.5V314L271 335.5L263 360.5L259 374L249 390M237.5 390H249M237.5 390V401.5M249 390L252 395L251.205 401.5M237.5 401.5V430.5L239.5 462L265.5 468.5L263 447.5L259 426.5L256 413L251.205 401.5M237.5 401.5H251.205M263 491.5L256 511.5L246.5 517L237.5 515.5V497.5L263 491.5Z" stroke="black" stroke-width="3"/>
<path fill-rule="evenodd" clip-rule="evenodd" d="M1041.5 234L1028 236.5L1025 262L1020.5 301.5L1018 342.5H1025.25H1032.5L1062.5 345H1077H1087.5H1109H1125.5H1139H1148L1144 287.5L1139 236.5L1125.5 234L1103.5 232.5H1077L1041.5 234Z" fill="#FAFAC7"/>
<path d="M1077 345V530.5H1066H1055H1047L1038.5 533L1035 537.5L1038.5 543L1048 544.5L1062 545.5H1081.5H1106.5L1119 544.5L1127.5 543L1132 539L1127.5 533L1119 530.5H1112H1097H1087.5V345H1077Z" fill="#DCDCDC"/>
<path d="M1041.5 234L1028 236.5L1025 262L1020.5 301.5L1018 342.5H1025.25M1041.5 234L1077 232.5H1103.5L1125.5 234M1041.5 234L1037.5 252M1125.5 234L1139 236.5L1144 287.5L1148 345H1139M1125.5 234L1130.5 241V254.5M1032.5 342.5L1062.5 345H1077M1032.5 342.5L1034.5 324.5M1032.5 342.5H1025.25M1077 345V530.5H1066H1055H1047L1038.5 533L1035 537.5L1038.5 543L1048 544.5L1062 545.5H1081.5H1106.5L1119 544.5L1127.5 543L1132 539L1127.5 533L1119 530.5H1112H1097H1087.5V345M1077 345H1087.5M1087.5 345H1109H1125.5M1025.25 342.5L1028 307M1139 345L1137 324.5M1139 345H1125.5M1125.5 345L1128 320" stroke="#040404" stroke-width="3"/>
<path d="M1213 238L1222 444.5L1305 466L1290.86 235.5L1213 238Z" fill="#A9A4AB"/>
<path d="M1253 224.5L1213 238L1290.86 235.5L1290 221.5L1253 224.5Z" fill="#8C9498"/>
<path d="M1213 238L1222 444.5L1305 466L1290.86 235.5M1213 238L1253 224.5L1290 221.5L1290.86 235.5M1213 238L1290.86 235.5" stroke="#040404" stroke-width="3"/>
<path d="M596 588C585.333 587.833 563.3 587.6 560.5 588L548 608.5L543 629.5L577 634.5H627.5L693 640L767 643H838.5H913.5L972 640L1025.5 634.5L1069 626L1057 602.5L1040.5 581.5L991 592.5H944H866.5H784H677.5L596 588Z" fill="#B78E6C" stroke="black" stroke-width="3"/>
<path d="M569 590L563 597L559 604L557 614V622.75L559 629.5M1034.5 585.5L1037 594L1041 600.5L1046 610.5L1050.5 619.5L1054.5 626" stroke="#F2D6AE" stroke-width="3"/>
<g opacity="0.4">
<path d="M152.5 93.5L164.5 84.5L174.5 79.5L185.5 78L70.5 80.5L139.5 108L143 102.5L152.5 93.5Z" fill="#837F7F"/>
<path d="M94.5 149L59 144.5L52.5 222.5L90.5 229.5L94.5 149Z" fill="#837F7F"/>
<path d="M228.5 546.5L230.5 536.5L246 531.5L263.5 522.5L271 512V496.5L275.5 486L279 474.5L281 427L287 315.5L291 243V209.5L296.5 195L308.5 190L315 193.5L306 202L301 209.5L297.5 215V404.5V528L307.5 529.5L231 560.5L228.5 546.5Z" fill="#837F7F"/>
<path d="M167 595L182.5 585L159.5 594L122.5 609.5L84.5 624.5L42.5 642L92.5 649L144 655.5L196.5 662L172.5 655.5L160.5 653L148 650L138 647L129.5 644.5L126.5 638L125.5 631.5L128 624L132 617L140 611L148.5 605.5L167 595Z" fill="#837F7F"/>
<path d="M313 531C313 531 240.2 561.2 239 562L268 565.5L345 569L526 573.5L652.5 578H772H886L971.5 573.5L982.5 579L991.5 587L1012.5 585L1033.5 580L1036.5 567.5L1039.5 552L1060.5 551L1083.5 547H1068L1053 546.5L1037.5 544.5L1033 537L1039.5 530H1031.5L1014.5 531.5L990.5 535L987 537.5L982.5 539L790.5 542L597.5 538L476.5 533L400.5 530.5L329.5 531.5L313 531Z" fill="#837F7F"/>
<path d="M1182.5 623.5L1215.5 618L1340 619.5L1412 651.5L1346 655.5L1241 662L1225 653L1215.5 645L1182.5 623.5Z" fill="#837F7F"/>
<path d="M1301 124L1390.5 91.5L1360.5 89.5L1338 88.5L1285 87.5L1235.5 85.0968L1249.5 87.5L1267 90.5L1281 97L1290 103.5L1297 112L1301 124Z" fill="#837F7F"/>
</g>
</svg>
