<svg width="1453" height="773" viewBox="0 0 1453 773" fill="none" xmlns="http://www.w3.org/2000/svg">
<path d="M0 772.5V2H1447.5V772.5H0Z" fill="#255952"/>
<path d="M4 382.5V2H1450V447.5L632.5 135L4 382.5Z" fill="#3A3A54" stroke="black" stroke-width="3"/>
<path d="M1297.95 197H1347.72H1362.16L1374.96 192L1378.9 187.5L1375.95 171.5L1365.77 165.5L1354.45 161L1343.13 156.5L1330 154.5H1316L1305.83 161L1309.5 150.5L1305.83 140L1297.95 137.5H1289.09L1276.95 147L1272.03 131.5L1257.91 123L1245.11 125.5L1237.24 131.5L1233.96 120.5L1223.1 108L1211.61 106H1197.5L1185.38 114L1174.88 127.5L1167.66 112L1157.81 102.5L1147.31 99.5H1134.84L1125 106L1115.81 114L1108.26 116.5L1099.73 114L1097.76 102.5L1091.19 91L1079 80.5L1066 76H1051.5L1037.5 83L1023.58 91L1016.04 109L998.114 112.5L983.346 123L973.5 137.5L968.5 149.5L950.5 141.5L934.973 139.5L922.5 141.5L911.5 151.5L900.5 164.5L898.5 181L907 185L946.5 193.5L973.5 197H1008.5L1027.85 187.5H1063.62L1106 190.5L1144.03 197L1163.07 201.5H1181.77L1199.5 190.5L1218.53 187.5L1247.08 190.5L1272.03 193.5L1297.95 197Z" fill="#7E7E85"/>
<path d="M968.5 149.5L950.5 141.5L934.973 139.5L922.5 141.5L911.5 151.5L900.5 164.5L898.5 181L907 185L946.5 193.5L973.5 197H1008.5L1027.85 187.5H1063.62L1106 190.5L1144.03 197L1163.07 201.5H1181.77L1199.5 190.5L1218.53 187.5L1247.08 190.5L1272.03 193.5L1297.95 197H1347.72H1362.16L1374.96 192L1378.9 187.5L1375.95 171.5L1365.77 165.5L1354.45 161L1343.13 156.5L1330 154.5H1316L1305.83 161L1309.5 150.5L1305.83 140L1297.95 137.5H1289.09L1276.95 147L1272.03 131.5L1257.91 123L1245.11 125.5L1237.24 131.5L1233.96 120.5L1223.1 108L1211.61 106H1197.5L1185.38 114L1174.88 127.5L1167.66 112L1157.81 102.5L1147.31 99.5H1134.84L1125 106L1115.81 114M968.5 149.5L973.5 159.5M968.5 149.5L973.5 137.5L983.346 123L998.114 112.5L1016.04 109M1016.04 109L1023.58 123M1016.04 109L1023.58 91L1037.5 83L1051.5 76H1066L1079 80.5L1091.19 91L1097.76 102.5L1099.73 114L1108.26 116.5L1115.81 114M1115.81 114L1106 127.5V133.5" stroke="black" stroke-width="3"/>
<path d="M980.5 174L961.5 167.5L942 163L924.5 164.5L912 168.5L906 172L903 178.5L906.5 183L912.5 186L947 193L973 196.5H992.5H1008.5L1027.5 187H1065L1106 190L1143.5 196L1163.5 201H1182L1199.5 190L1218.5 187L1264.5 192L1298 196.5H1351.5L1355 194.5L1356.5 190.5L1355 186.5L1350.5 182L1339 175L1327 173H1318.5L1311.5 174L1299.5 179L1293 180L1286 179L1276.5 175L1275 168L1271.5 162.5L1265.5 159L1258.5 157.5H1252.5L1247.5 158.5L1240 165.5L1241.5 161L1241 156L1238.5 152.5L1232.5 150H1227.5L1221.5 152.5L1218 145L1211 139.5L1203 135L1193 133H1186L1179.5 136L1173.5 139.5L1169 145.5L1164 140L1157.5 136L1148.5 132L1141 129.5L1134 127.5L1126 126H1120L1114 127.5L1109.5 129.5L1106 134V130.5V127.5L1107.5 124.5L1110 121.5L1114 115.5L1108.5 117L1102 115.5L1097.5 113L1087.5 110.5H1078L1071 115.5L1066 126L1064.5 136L1056.5 133L1047.5 136L1040.5 148L1037.5 161L1026 152.5H1013.5L1003.5 159.5L997 170L980.5 174Z" fill="#727288"/>
<path d="M137 144C112.333 147 59.5 152 59.5 152H37.5L18 147L12 142.5L16.5 126.5L32 120.5L49.25 116L66.5 111.5L86.5 109.5H108L125 94L137 90H150.5L169 94L176.5 78.5L198 70L217.5 72.5L229.5 78.5L234.5 67.5L248 59L265.5 57H287L308.5 61L324.5 74.5L335.5 59L350.5 49.5L366.5 46.5H385.5L400.5 53L414.5 61L426 63.5L439 61L442 49.5L452 38L468.5 25.5L490 20H512.5L534.5 27.5L555 36L572.5 49.5L596.5 46.5L619 57L634 71.5L639.5 94L662 84.5L690 86.5L706 94L719.5 106.5L725 124L719.5 137.5L665.5 134.5L622 120.5L567 126.5L548.5 134.5H494L426 126.5L371.5 144L342.5 148.5H314L287 137.5L258 134.5L214.5 137.5L176.5 148.5L137 144Z" fill="#7E7E85"/>
<path d="M639.5 94L662 84.5L690 86.5L706 94L719.5 106.5L725 124L719.5 137.5L665.5 134.5L622 120.5L567 126.5L548.5 134.5H494L426 126.5L371.5 144L342.5 148.5H314L287 137.5L258 134.5L214.5 137.5L176.5 148.5L137 144C112.333 147 59.5 152 59.5 152H37.5L18 147L12 142.5L16.5 126.5L32 120.5L49.25 116L66.5 111.5L86.5 109.5H108L125 94L137 90H150.5L169 94L176.5 78.5L198 70L217.5 72.5L229.5 78.5L234.5 67.5L248 59L265.5 57H287L308.5 61L324.5 74.5L335.5 59L350.5 49.5L366.5 46.5H385.5L400.5 53L414.5 61M639.5 94L622 103M639.5 94L634 71.5L619 57L596.5 46.5L572.5 49.5M572.5 49.5L561 63.5M572.5 49.5L555 36L534.5 27.5L512.5 20H490L468.5 25.5L452 38L442 49.5L439 61L426 63.5L414.5 61M414.5 61L421 78.5L434.5 84.5" stroke="black" stroke-width="3"/>
<path d="M383.5 139.5L403 133.5L426 126L471 131.5L494 134H531.5L535 132L536.5 128L535 124L530.5 119.5L519 112.5L507 110.5H498.5L491.5 111.5L486.5 114L483.5 117L480.5 121L479.5 126L478 123L476.5 121L475 119.5L473 118.5L471 117.5L468.5 117H465.5L463 117.5L460.5 118.5L458.5 120.5H456L454 119.5L452.5 116.5L450.5 114L448 112L444.5 110.5L441 109.5L437.5 108.5L434.5 108H431L428.5 109L426.5 110L424.5 111L422.5 113L419 117L420.5 112.5L420 107.5L417.5 104L411.5 101.5H406.5L400.5 104L397 96.4995L390 91L382 86.4995L372 84.5H365L358.5 87.5L352.5 91L348 97L343 91.4995L336.5 87.5L327.5 83.4995L320 80.9995L313 78.9995L305 77.4995H299L293 78.9995L288.5 80.9995L284.5 85L286.5 81.5L288 77.4995V73.5L287 70.5L285.5 67.5L281 64.5L276 63L268.5 61H264L257 62L253 64L250 66.9995L246.5 71.5L244 77L243.5 82V87.5L239.5 85.5L235.5 84.5L231 85.5L226.5 87.5L222.5 93L219.5 99.5L217 106L216.5 112.5L211.5 108L205 104L199 103L192.5 104L187 107L182.5 111L179 116L176 121.5L168 124.5L159.5 125.5L150 121.5L136 116.5L128.5 115L121 114.5H112L106 115.5L98 117L91 120L85 123.5L83 126.5L82 130L83 132.5L85.5 134.5L91.5 137.5L107 142L125.5 144.5L137 143.5L176 148L191 143.5L215 136.5L247.5 134.5L258.5 133.5L287 137L314.5 148H342.5L371.5 143.5L383.5 139.5Z" fill="#727288"/>
<path d="M908 110.717L924.5 108.717L937 98.7173L943.5 85.7174L945 74.7174L943.5 62.2174L940.5 52.7174L937 45L925.5 37L911 31.5H899.5L888.5 36L876 42L869.5 48.7174L864 62.2174V74.7174L866 85.7174L871.5 96.2174L879 105.717L893 110.717H908Z" fill="#F7F7B9"/>
<path d="M891 68.2174L887.5 72L886 77.2174L887 81.5L889.5 85.7174L894 86.5L898.5 85.7174L901 81.5L901.5 77.2174L900.5 74L898.5 71.2174M922 87.7174H926L929.5 85.7174L930 82L929.5 79.2174L927 78.5L924.5 79.2174M896.5 37L898 40L900.5 42L904.5 42.5L908 42L910 39.5L911 37V31.5M911 31.5H899.5L888.5 36L876 42L869.5 48.7174L864 62.2174V74.7174L866 85.7174L871.5 96.2174L879 105.717L893 110.717H908L924.5 108.717L937 98.7173L943.5 85.7174L945 74.7174L943.5 62.2174L940.5 52.7174L937 45L925.5 37L911 31.5Z" stroke="black" stroke-width="3"/>
<path d="M2.5 386L631 137L1452.5 453.5V487.5L1202.5 387.563V556.5L1192.5 588L1185 638.5L1172 696L1141 714.5H953.5L842 730.5H583.5H414.5L128.5 714.5L105.5 696L93 664L75 556.5L62.5 487.5V453.5V379.831L2.5 403V386Z" fill="#858585"/>
<path d="M91.5 362.5L276.5 395.5L393 346.5L416 355L610 282.5L605 171L344.5 263L91.5 362.5Z" fill="#6E5E46"/>
<path fill-rule="evenodd" clip-rule="evenodd" d="M605 171L628.5 189.5L659.5 169L922 265.5L1179.5 367.5L1181 379.5V391.5V403L1179.74 415L1181 422V429.5V438L1179.5 445.5L1181 457.5V467L1179.5 479L1176.51 489.912L1179.51 511L1176.61 533V544.5L1175 557L1173.5 569.5L1170.16 581L1169 592.5L1167.5 602L1165.5 612.5L1161.8 622.5L1160.5 638.5L1158 654.5L1153.5 670.25L1149 686L931 597.5L946 566L953 541.5L958 514.5V487V458.5V432V404L642.5 279L624 290L610 282.5L605 171ZM91.5 362.5L276.5 395.5L281 429L284 455.5L287.5 493V519.5L291 547.5L294.5 585L297.5 615.5L123.5 688L118 676L115 664L112.908 642.5L107.5 632.5L104.5 621L101.024 606.5V590.5L97.5 579L95.5635 567.5V556.5L98.5 545.5L95.5635 537.5L93.5 528.5V519.5L95.5635 510.5L90 500.5L88 488.5V474.5L91.5 462.5L88 451.5V440.5V427.5L91.5 417.5L88 404.5V389.5V375L91.5 362.5Z" fill="#6E5E46"/>
<path d="M941.5 702L1149 686L931 597.5L687.5 605.5L525.5 608L489 607.5L436 605.5L416 620L297.5 615.5L123.5 688L262.5 702L453 711.5L692 714L941.5 702Z" fill="#7C7C7D"/>
<path d="M91.5 362.5L276.5 395.5M91.5 362.5L88 375V389.5V404.5L91.5 417.5M91.5 362.5L344.5 263L605 171M605 171L628.5 189.5M605 171L610 282.5M628.5 189.5L659.5 169M628.5 189.5L624 290M659.5 169L642.5 279M659.5 169L922 265.5L1179.5 367.5M1179.5 367.5L958 404M1179.5 367.5L1181 379.5V391.5V403L1179.74 415M1179.5 445.5L958 458.5M1179.5 445.5L1181 457.5V467L1179.5 479L1176.51 489.912M1179.5 445.5L1181 438V429.5V422L1179.74 415M1149 686L941.5 702L692 714L453 711.5L262.5 702L123.5 688M1149 686L931 597.5M1149 686L1153.5 670.25L1158 654.5L1160.5 638.5L1161.8 622.5M123.5 688L297.5 615.5M123.5 688L118 676L115 664L112.908 642.5M95.5635 510.5L287.5 493M95.5635 510.5L90 500.5L88 488.5V474.5L91.5 462.5M95.5635 510.5L93.5 519.5V528.5L95.5635 537.5L98.5 545.5M91.5 417.5L281 429M91.5 417.5L88 427.5V440.5V451.5L91.5 462.5M276.5 395.5L393 346.5L416 355L610 282.5M276.5 395.5L281 429M610 282.5L624 290M624 290L642.5 279M642.5 279L958 404M958 404V432M958 432L1179.74 415M958 432V458.5M958 458.5V487M958 487L1176.51 489.912M958 487V514.5M1176.51 489.912L1179.51 511L1176.61 533M1176.61 533L958 514.5M1176.61 533V544.5L1175 557L1173.5 569.5L1170.16 581M958 514.5L953 541.5M953 541.5L1170.16 581M953 541.5L946 566M1170.16 581L1169 592.5L1167.5 602L1165.5 612.5L1161.8 622.5M1161.8 622.5L946 566M946 566L931 597.5M931 597.5L687.5 605.5L525.5 608L489 607.5L436 605.5L416 620L297.5 615.5M281 429L284 455.5M284 455.5L91.5 462.5M284 455.5L287.5 493M287.5 493V519.5M287.5 519.5L98.5 545.5M287.5 519.5L291 547.5M98.5 545.5L95.5635 556.5V567.5L97.5 579L101.024 590.5M101.024 590.5L291 547.5M101.024 590.5V606.5L104.5 621L107.5 632.5L112.908 642.5M291 547.5L294.5 585M294.5 585L112.908 642.5M294.5 585L297.5 615.5" stroke="black" stroke-width="3"/>
<path d="M340.5 358.5C326.5 335.5 297.7 289.5 294.5 289.5L447.5 230.5L484 326L417.5 349.5L392.5 341.5L340.5 358.5Z" fill="#84745B"/>
<path d="M288.5 292.5L335 365.5L301 379L276 390L173 373.5L158.5 365.5L156.5 349.5L288.5 292.5Z" fill="#84745B"/>
<path d="M585 186L458 230.5L492.5 320.5L594.5 281.5L585 186Z" fill="#84745B"/>
<path d="M630 277.5C631.667 251 634.8 197.5 634 195.5L651 183L640 273.5L630 277.5Z" fill="#84745B"/>
<path d="M651 277.5L667 183L787.5 226L757 320.5L651 277.5Z" fill="#84745B"/>
<path d="M767.5 320.5L792 230L938.5 281.5L887 365.5L767.5 320.5Z" fill="#84745B"/>
<path d="M896 369L945 286.5L1161 365.5L963 397L896 369Z" fill="#84745B"/>
<path d="M1170.5 411.5L979 425.5V416L981 407.5L1074 388L1168.5 374.5L1174 378.5L1175.5 391.5V404.5L1170.5 411.5Z" fill="#84745B"/>
<path d="M1172.5 443L979 453L976.5 444.5L979 434.5L1174 419L1175.5 427.5V436L1172.5 443Z" fill="#84745B"/>
<path d="M976.5 483.5L979 463.5L1068.5 457.5L1175.5 450.5L1177 457.5V466.5L1172.5 485.5L976.5 483.5Z" fill="#84745B"/>
<path d="M969.5 511.5V492.5L1168.5 496.5L1170.5 504.5V513.5L1168.5 523.5L1161 528.5L969.5 511.5Z" fill="#84745B"/>
<path d="M964 539L969.5 519.5L1161 538L1166.5 543.5L1168.5 554.5L1166.5 565L1161 574.5L964 539Z" fill="#84745B"/>
<path d="M958.5 565L964 547L1154.5 585L1159 593L1156.5 606.5L1152 614.5L958.5 565Z" fill="#84745B"/>
<path d="M958.5 576.5L947.5 594.5L1142 677L1150.5 660.5L1152 645V634.5L1150.5 624.5L958.5 576.5Z" fill="#84745B"/>
<path d="M269.5 434.5V451L187.5 454H103L97.5 440.5L100 424.5L269.5 434.5Z" fill="#84745B"/>
<path d="M106 469L276 463.5L279.5 474.5L276 488L191.5 497L106 501.5L100 485.5L106 469Z" fill="#84745B"/>
<path d="M281 516L109 539.5L106 525.5L109 516L279.5 498.5L281 507V516Z" fill="#84745B"/>
<path d="M283 545.5L114.5 581.5L109 566L111.5 551.5L279.5 527L283 536V545.5Z" fill="#84745B"/>
<path d="M266 595L276 618.5L213 645.5L149 668.5L139.5 666L133.5 658.5L127.5 642.5L266 595Z" fill="#84745B"/>
<path d="M103 387.5L111.5 379L187.5 384.5L266 404.5L269.5 413.5V423L184.5 417.5L100 408L103 387.5Z" fill="#84745B"/>
<path d="M198.5 575L283 554.5V563V570.5L203.5 608L125 633L118 614V595L198.5 575Z" fill="#84745B"/>
<path d="M103.5 393L95.5 409L100.5 390H107.5H122.5H156L171.5 390.5L186 393L203 398L233 404.5L253.5 408L272.5 409L267.5 411.5H252L237.5 409L203 401L183 395.5L180 398.5L176.5 403L178 406H180.5L182 404.5V401L184.5 401.5L185.5 407L183 410L176.5 409.5L171.5 408L170.5 404L172 400L179 394.5L172 393L158.5 393.5L139 393H103.5Z" fill="#6E5E46"/>
<path d="M132.5 430L95.5 425L189 430L140.5 429L141.5 431L144 433L148.5 435.5L153.5 437L146 437.5L139 437L135 433.5L132.5 430Z" fill="#6E5E46"/>
<path d="M150.5 478L103.5 480V486L148 480L150.5 478Z" fill="#6E5E46"/>
<path d="M190 509H183L212.5 506.5L203.25 509H206.5L223 512H216H200L190 509Z" fill="#6E5E46"/>
<path d="M143 554.5L116 557L131 559L151.5 557L154.5 560.5L161.5 563.5L173.5 563L180 561L184.5 557.5L188 554L191 549.5L249.5 540L244 539L183.5 547.5L182 552L178.5 556L171 560H165.5L161 559L159 558L158.5 556L159.5 554.5L161 553.5L165.5 552H167.5L169 553L168 555L165.5 556.5H168L170 555.5L171.5 554.5V552.5L170.5 550.5L167 550H163L157.5 550.5L152 552L143 554.5Z" fill="#6E5E46"/>
<path d="M155 655L147 653H143L144 657L154.5 662.5L178.5 663.5L184.5 660.5L190.5 657L185 659L179.5 660L175 659L171.5 657L174 654.5L177.5 652.5L187.5 647.5L198.5 642.5L192.5 644L178.5 649L163.5 654L155 655Z" fill="#6E5E46"/>
<path d="M1149.55 634.945L1157.84 625.093L1152.49 637.999L1145.49 637.872L1130.5 637.598L1097 636.988L1081.51 636.205L1067.06 633.442L1050.16 627.133L1020.28 615.087L999.847 608.214L980.868 600.868L985.913 598.46L1001.41 604.742L1015.86 610.506L1050.21 624.133L1070.11 630.997L1073.16 628.052L1076.74 623.616L1075.3 620.59L1072.8 620.544L1071.27 622.016L1071.21 625.516L1068.72 624.97L1067.82 619.453L1070.37 616.499L1076.86 617.117L1081.83 618.708L1082.76 622.726L1081.19 626.698L1074.09 632.069L1081.06 633.697L1094.57 633.443L1114.05 634.298L1149.55 634.945Z" fill="#6E5E46"/>
<path d="M1121.23 597.423L1158.13 616.096L1064.74 593.393L1113.21 598.277L1112.25 596.259L1109.78 594.214L1105.33 591.632L1100.36 590.041L1107.87 589.678L1114.86 590.305L1118.79 593.878L1121.23 597.423Z" fill="#6E5E46"/>
<path d="M1113.11 552.103L1160.13 556.959L1160.24 550.96L1115.64 550.148L1113.11 552.103Z" fill="#6E5E46"/>
<path d="M1059.18 534.388L1066.18 534.516L1036.64 536.478L1045.93 534.147L1042.68 534.087L1026.24 530.787L1033.24 530.915L1049.23 531.206L1059.18 534.388Z" fill="#6E5E46"/>
<path d="M1136 469.752L1163.04 467.745L1148.08 465.472L1127.55 467.098L1124.61 463.544L1117.67 460.416L1105.66 460.698L1099.12 462.579L1094.56 465.996L1091 469.432L1087.92 473.877L1029.25 476.309L1034.73 477.409L1095.38 476.013L1096.96 471.541L1100.53 467.605L1108.1 463.743L1113.6 463.843L1118.08 464.925L1120.06 465.961L1120.53 467.97L1119.5 469.451L1117.98 470.424L1113.46 471.842L1111.46 471.805L1109.98 470.778L1111.01 468.797L1113.54 467.342L1111.04 467.297L1109.02 468.26L1107.5 469.233L1107.47 471.232L1108.43 473.25L1111.92 473.814L1115.92 473.887L1121.43 473.487L1126.95 472.088L1136 469.752Z" fill="#6E5E46"/>
<path d="M1096.83 404.05L1104.79 406.195L1108.79 406.268L1107.87 402.251L1097.47 396.561L1073.49 395.123L1067.44 398.013L1061.37 401.404L1066.91 399.504L1072.43 398.605L1076.91 399.686L1080.37 401.75L1077.83 404.204L1074.29 406.14L1064.2 410.956L1053.11 415.755L1059.14 414.365L1073.23 409.621L1088.31 404.895L1096.83 404.05Z" fill="#6E5E46"/>
<g opacity="0.5">
<path d="M189.5 693L124.5 686.5L118 675L116.5 662.5L113.5 640L109 632L102 604V588L99.5 577L97.5 566.5V554.5L99.5 542.5L96.5 533L94.5 521.5L96.5 508L91 500.5L89 482L91 471L93 460L89 450.5V427.5L93 416.5L89 403.5L89.5 383V375L92.5 364.5L97.5 362L174 331.5L160 341L149 351.5V359.5L152 367L163 373L178.5 376L92.5 364.5L163 377.083L139.5 376.565L107.5 373L99.5 376.565L96.5 387V403.5L99.5 413.5V418L96.5 429.5L94.5 443L99.5 458.5L103 464.5L93 476.5L94.5 491.5L99.5 503L105.5 512.5L103 524.5L107.5 542.5L105.5 553V570L109 585.5L112 593V602.5V612L118 633L122.5 642V649.5L124.5 657.5L126.5 663.5L130.5 669L140 671.5L153 670L165 666.5L190.5 658L124.5 686.5L196.5 659.5L188.5 667L184.5 675L186.5 682.5L193 688L219.5 694L258.5 700L189.5 693Z" fill="#4E4C4C"/>
<path d="M292 576.5L283.5 574.5L287 571.5L288 563L286 552L284.5 546.5L287 543.5L283.5 524L280 520L284.5 515L283.5 497L280 491.5L283.5 487.5L281.5 471L279.5 459.5L277 454L279.5 448.5L277.5 435L273.5 426.5L275 419.5L273.5 412L270.5 404L261 398.5L250 392.5L275 397L279.5 426.5L284.5 466.5L286 506.5V521L289.5 541.5L292 576.5Z" fill="#4E4C4C"/>
<path d="M279.5 392.5C277 391.5 271.7 389.6 270.5 390L289.5 383L322 374L279.5 392.5Z" fill="#4E4C4C"/>
<path d="M608.5 281.5L603.5 173.5L589.5 178.5L597 284.5L608.5 297L623 291.5L608.5 281.5Z" fill="#4E4C4C"/>
<path d="M951 453.5L950 411L947.5 406.5L943.5 402.5L935 396.5L956.5 405V487.5V514.5L951.5 540L945 565L933 590L927.5 596L920.5 596.5L899.5 597L907 594L914.5 590.5L920 588L925 584.5L928.5 581L931.5 577.5L938 562.5L943 547.5L948.5 517.5L951 453.5Z" fill="#4E4C4C"/>
<path d="M925 599V608L923 605L920 602.5L915.5 600.5L910.5 599.5L925 599Z" fill="#4E4C4C"/>
<path d="M1010 695C998 690.167 974.8 682.9 974 682.5L1084.5 673V661.5L1142 685L1010 695Z" fill="#4E4C4C"/>
<path d="M1084.5 658V654.5L1120.5 669.5L1130 673.5L1139 678L1146.5 679L1151 668L1152.5 655.5L1155.5 638.5L1155 622.5L1160 623.5L1159 639L1156.5 654.5L1148 684L1084.5 658Z" fill="#4E4C4C"/>
<path d="M1165 586C1162.5 596.167 1157.4 616.7 1157 617.5L1157.5 618L1161 617.5L1165 586Z" fill="#4E4C4C"/>
<path d="M959.5 405.5V426L962.5 417L964.5 413L967.5 409.5L972 405.5L979.5 402L959.5 405.5Z" fill="#4E4C4C"/>
<path d="M453.5 348L480 333L415.5 357L420 398C420.833 390.167 423 381.5 423 381.5L427 371.5L433 364L442 355L453.5 348Z" fill="#4E4C4C"/>
<path d="M438 604L435 544L441 558.5L445.5 568.5L452 578L459 584L467 589L478 594L487.5 595.5L528 601L569.5 605.5L527.5 606.5L487.5 606L438 604Z" fill="#4E4C4C"/>
<path d="M436.5 607L422 617.5L434 613L440 611L448.5 609.5L476 608.5L436.5 607Z" fill="#4E4C4C"/>
<path d="M1179.5 378.5L1178 369L1164 371.5L1151.5 374L1159.5 373.5L1165.5 373H1170.5L1174.5 374L1177 378.5L1178.5 386L1179.5 402V378.5Z" fill="#4E4C4C"/>
</g>
<path fill-rule="evenodd" clip-rule="evenodd" d="M392.5 348.5L278.5 396L288 479L289.5 520L295.5 572L299 614L416 618.5V572L413.5 503.5L405 422L392.5 348.5Z" fill="#7A4F45"/>
<path d="M392.5 348.5L405 422L413.5 503.5L416 572V618.5L436.5 603.5L432 520L424 439L416 377L413.5 356.5L392.5 348.5Z" fill="#A55F4E"/>
<path d="M235.5 187L261 275.5L371.5 232.5L352.5 166.5L235.5 187Z" fill="#5B335C"/>
<path d="M352.5 166.5L371.5 232.5L388.5 226.5L375.5 182.5L352.5 166.5Z" fill="#714073"/>
<path d="M392.5 348.5L278.5 396L288 479L289.5 520L295.5 572L299 614L416 618.5M392.5 348.5L405 422L413.5 503.5L416 572V618.5M392.5 348.5L413.5 356.5L416 377L424 439L432 520L436.5 603.5L416 618.5M352.5 166.5L235.5 187L261 275.5L371.5 232.5M352.5 166.5L371.5 232.5M352.5 166.5L375.5 182.5L388.5 226.5L371.5 232.5" stroke="black" stroke-width="3"/>
<path d="M322 380L337 376.5M413 364.763H403.75M403.75 364.763C403.75 364.763 403.5 355.238 403.75 354.738M403.75 364.763C403.75 364.763 398 364.5 397 364.763M281.5 409L297.5 406.738M297.5 406.738L294.5 391.5M297.5 406.738L315 403.809M341 399.457L337 376.5M341 399.457L369.25 394.729M341 399.457L315 403.809M337 376.5L392 364.5L396.5 390.5L369.25 394.729M369.25 394.729L373 422M373 422L403 418.5M373 422L347.5 425.458M410 388L413 417.463L419.5 416.5L406 418.5M410 388L415.5 386.5M410 388L401.5 390M284.5 434L303.25 431.458M319.5 429.5L315 403.809M319.5 429.5L347.5 425.458M319.5 429.5L303.25 431.458M347.5 425.458L350.5 449.5M350.5 449.5L378.5 446.932M350.5 449.5L325 452.425M286 456.5L325 452.425M422.5 441L417 442.5M288.5 478.5L308.5 477.319M408.5 471.5L382.5 472.947M411 495L384.625 496.173M291 500.5L310.5 499.5M291 523L312.438 522.468M412 520L387 520.62M296 562H312.438M414 561.5L390 562M414.5 582H369.25M298 582H312.438M418 599L425.75 596.25M434 592.5L425.75 596.25M433 577.5L425.5 581M417.5 584L425.5 581M417.5 563L424.75 560M432 557L424.75 560M431 539L423.5 540.75M416.5 542L423.5 540.75M416 520L423 518M430 516.5L423 518M427.5 491L421.5 493M414.5 495L421.5 493M425 468.5L419 470M412 471.5L419 470M409 444.5L417 442.5M303.25 431.458L306 453.5M378.5 446.932L382.5 472.947M378.5 446.932L405.5 444.5M382.5 472.947L355.5 474.542M325 452.425L328.5 476.137M328.5 476.137L308.5 477.319M328.5 476.137L355.5 474.542M308.5 477.319L310.5 499.5M310.5 499.5L333.875 498.518M355.5 474.542L357 497.5M357 497.5L384.625 496.173M357 497.5L333.875 498.518M384.625 496.173L387 520.62M387 520.62L366.5 521.128M333.875 498.518L335.5 521.468M335.5 521.468L312.438 522.468M335.5 521.468L366.5 521.128M312.438 522.468V541.5M312.438 541.5H293.5M312.438 541.5H339.469M413 541.5H389.25M366.5 541.5V521.128M366.5 541.5H339.469M366.5 541.5H389.25M339.469 541.5V562M339.469 562H369.25M339.469 562H312.438M390 562C390.4 560.4 389.667 547.667 389.25 541.5M390 562H369.25M369.25 562V582M369.25 582H312.438M312.438 562V582M417 442.5L419 470M421.5 493L423 518M423.5 540.75L424.75 560M425.5 581L425.75 596.25M351 169.5L324.5 173.5L293.5 179.5M293.5 179.5L273.25 183.505L257 185.463L238.25 188.005M293.5 179.5L296.625 197M296.625 197L330.5 190M296.625 197L264.5 202M330.5 190L335.5 216M330.5 190L355 185.463M335.5 216L362 211M335.5 216L309 220.5M264.5 202L243 205M264.5 202L270 228M270 228L261.5 229.5L250 232M270 228L309 220.5M256 255L276 251L293.5 247.5L314 243M309 220.5L314 243M314 243L343 236.5M359.5 187L370.5 189M370.5 189L376 191M370.5 189L373 211.5M381 211L373 211.5M373 211.5L366.5 212" stroke="#A39675" stroke-width="3"/>
<path d="M926.5 599L966.5 617L983.5 607L994.5 601.5L1007 598L1017 595.5L1027.5 594.5H1041L1055.5 595.5L1000 581L983.5 578.5H973.5L964 579.5L953 583L944 586.5L934 591L926.5 599Z" fill="#756C61"/>
<path d="M926.5 599V617L938.5 623V617L945.5 619.5V626L966.5 636V617L926.5 599Z" fill="#756C61"/>
<path d="M966.5 681.5V636L945.5 626V633.5L938.5 630V623L926.5 617V658L966.5 681.5Z" fill="#756C61"/>
<path d="M1083 629V612.5L1071.5 604L1055.5 595.5L1041 594.5H1027.5L1017 595.5L1007 598L994.5 601.5L983.5 607L966.5 617V636L1083 629Z" fill="#625E58"/>
<path d="M1083 671.5V629L966.5 636V681.5L1083 671.5Z" fill="#625E58"/>
<path d="M938.5 617V623V630L945.5 633.5V626V619.5L938.5 617Z" fill="#B7AF82"/>
<path d="M1083 629V671.5L966.5 681.5M1083 629V612.5L1071.5 604L1055.5 595.5M1083 629L966.5 636M966.5 636V681.5M966.5 636L945.5 626M966.5 636V617M966.5 681.5L926.5 658V617M926.5 599V617M926.5 599L966.5 617M926.5 599L934 591L944 586.5L953 583L964 579.5L973.5 578.5H983.5L1000 581L1055.5 595.5M926.5 617L938.5 623M938.5 623V617L945.5 619.5V626M938.5 623V630L945.5 633.5V626M966.5 617L983.5 607L994.5 601.5L1007 598L1017 595.5L1027.5 594.5H1041L1055.5 595.5" stroke="#030303" stroke-width="3"/>
<g opacity="0.8">
<path d="M969.5 648.5V639L976 638.5L1076 632.5L1080.5 632L1080 641L1077.5 639.5L1076 637L1075.5 635L1076 632.5L976 638.5L976.5 642.5L976 645.5L973 647.5L969.5 648.5Z" fill="#C7C08B"/>
<path d="M1080 669V663L1077.5 663.5L1075 664.5L1073.5 667L1073 669.5L1080 669Z" fill="#C7C08B"/>
<path d="M969.5 678.5V671L972 671.5L974 673L975.5 675L976 678L969.5 678.5Z" fill="#C7C08B"/>
<path d="M963.5 676.5V668L961.5 667.5L959.5 668L958 670L957 672.5L963.5 676.5Z" fill="#C7C08B"/>
<path d="M929.5 656.5V651.5L931.5 652L933.5 653.5V655.5L933 658.5L929.5 656.5Z" fill="#C7C08B"/>
<path d="M929.5 630V621.5L932.5 623.5V626L931.5 628L929.5 630Z" fill="#C7C08B"/>
<path d="M963.5 648.5L960.5 647L958.5 645L957.5 642.5V638.5L958.5 635.5L963.5 638V648.5Z" fill="#C7C08B"/>
<path d="M969.5 632.5V623.5L973 624.5L976.5 626.5L978 632L969.5 632.5Z" fill="#C7C08B"/>
<path d="M963.5 632V624L961.5 623.5L959 624L957 625L955 627.5L963.5 632Z" fill="#C7C08B"/>
<path d="M963.5 621.5V618.5L958 616V618L959 620L963.5 621.5Z" fill="#C7C08B"/>
<path d="M929.5 615V611L931.5 612L933 613.5L933.5 615L934 617.5L929.5 615Z" fill="#C7C08B"/>
<path d="M929.5 606.5V603L934.5 605.5L932 607.5L929.5 606.5Z" fill="#C7C08B"/>
<path d="M1080 626.5V620.5L1078 620L1076 620.5L1074.5 623L1075 626.5H1080Z" fill="#C7C08B"/>
<path d="M966.5 613.5L963 612L969 609L972.5 610L966.5 613.5Z" fill="#C7C08B"/>
<path d="M937 600.5L931.5 598L935.5 593.5L937 600.5Z" fill="#C7C08B"/>
<path d="M976 638.5L976.5 642.5L976 645.5L973 647.5L969.5 648.5V639L976 638.5ZM976 638.5L1076 632.5M1076 632.5L1080.5 632L1080 641L1077.5 639.5L1076 637L1075.5 635L1076 632.5ZM932.5 623.5L929.5 621.5V630L931.5 628L932.5 626V623.5ZM932.5 623.5L936.5 625.5M947 630L958.5 635.5M958.5 635.5L963.5 638V648.5L960.5 647L958.5 645L957.5 642.5V638.5L958.5 635.5ZM968.5 619L985.5 609L995.5 604.5L1017.5 598.5L1029 597.5H1041L1054.5 598.5L1069 606L1081 614M1026.5 592.5L1012.5 594L994 599L978.5 606.5L972.5 610M972.5 610L966.5 613.5L963 612L969 609L972.5 610ZM935.5 593.5L937 600.5L931.5 598L935.5 593.5ZM935.5 593.5L950.5 587L964.5 582.5L973.5 581.5H984M1080 663V669L1073 669.5L1073.5 667L1075 664.5L1077.5 663.5L1080 663ZM969.5 671V678.5L976 678L975.5 675L974 673L972 671.5L969.5 671ZM963.5 668C963.5 668 963.5 674.333 963.5 676.5L957 672.5L958 670L959.5 668L961.5 667.5L963.5 668ZM929.5 651.5C929.5 652.3 929.5 655.333 929.5 656.5L933 658.5L933.5 655.5V653.5L931.5 652L929.5 651.5ZM969.5 623.5V632.5L978 632L976.5 626.5L973 624.5L969.5 623.5ZM963.5 624V632L955 627.5L957 625L959 624L961.5 623.5L963.5 624ZM963.5 618.5V621.5L959 620L958 618V616L963.5 618.5ZM929.5 611V615L934 617.5L933.5 615L933 613.5L931.5 612L929.5 611ZM929.5 603V606.5L932 607.5L934.5 605.5L929.5 603ZM1080 620.5V626.5H1075L1074.5 623L1076 620.5L1078 620L1080 620.5Z" stroke="#C7C08B" stroke-width="3"/>
</g>
<path opacity="0.5" d="M731.584 253.551L748.306 248.769L769.351 248.177L786.835 248.933L804.818 249.711L830.1 255.308L858.184 265.53L880.188 277.492L901.542 292.928L917.508 305.63L930.847 321.22L941.429 342.697L938.392 355.078L926.122 361.053L907.14 360.233L890.264 357.001L873.866 354.29L856.555 349.538L818.131 335.365L782.27 319.802L763.741 308.491L747.753 296.29L733.372 281.655L726.961 267.865L725.808 259.808L731.584 253.551Z" fill="#CAB593"/>
<path d="M866 323L868.5 326.5L860 341L853.5 342L844.5 340.5L835.5 337.5L824.5 333.5L813.5 329L803.5 325L794.5 320.5L787.5 316L783 310L789 297H798L808.5 298.5L820 301L832 305L843.5 310L853.5 314.5L860 318.5L866 323Z" fill="#DFD6A2"/>
<path d="M860 341L868.5 326.5L866 323L860 318.5L853.5 314.5L843.5 310L832 305L820 301L808.5 298.5L798 297H789L783 310M860 341L855 336L848 331L838.5 325L828 320.5L817.5 316L807.5 313L795.5 310.5L786 310H783M860 341L853.5 342L844.5 340.5L835.5 337.5L824.5 333.5L813.5 329L803.5 325L794.5 320.5L787.5 316L783 310" stroke="#030303" stroke-width="3"/>
</svg>
